<svg width="21" height="17" viewBox="0 0 21 17" fill="none" xmlns="http://www.w3.org/2000/svg">
<path d="M17.7198 1.87639C16.3919 1.26712 14.968 0.818232 13.4792 0.561137C13.4521 0.556175 13.425 0.568575 13.4111 0.593376C13.2279 0.919083 13.0251 1.344 12.8831 1.67797C11.2818 1.43824 9.68869 1.43824 8.12023 1.67797C7.97816 1.33657 7.76794 0.919083 7.58399 0.593376C7.57003 0.569403 7.54294 0.557003 7.51583 0.561137C6.02786 0.817411 4.60395 1.2663 3.27528 1.87639C3.26378 1.88135 3.25392 1.88962 3.24738 1.90036C0.54651 5.9354 -0.19337 9.87126 0.16959 13.7583C0.171232 13.7773 0.181907 13.7955 0.196689 13.8071C1.97864 15.1157 3.70477 15.9102 5.39884 16.4367C5.42595 16.445 5.45468 16.4351 5.47193 16.4128C5.87267 15.8655 6.22989 15.2885 6.53617 14.6817C6.55424 14.6462 6.53699 14.604 6.50004 14.5899C5.93344 14.375 5.39391 14.113 4.87493 13.8154C4.83388 13.7914 4.83059 13.7327 4.86835 13.7046C4.97757 13.6227 5.08681 13.5376 5.1911 13.4516C5.20996 13.4359 5.23625 13.4326 5.25844 13.4425C8.66794 14.9992 12.3591 14.9992 15.7284 13.4425C15.7506 13.4318 15.7769 13.4351 15.7966 13.4508C15.9009 13.5367 16.0101 13.6227 16.1201 13.7046C16.1579 13.7327 16.1554 13.7914 16.1144 13.8154C15.5954 14.1187 15.0559 14.375 14.4885 14.5891C14.4515 14.6032 14.4351 14.6462 14.4532 14.6817C14.766 15.2877 15.1232 15.8647 15.5166 16.412C15.533 16.4351 15.5625 16.445 15.5897 16.4367C17.2919 15.9102 19.0181 15.1157 20.8 13.8071C20.8156 13.7955 20.8255 13.7782 20.8271 13.7591C21.2615 9.26527 20.0995 5.36169 17.7469 1.90118C17.7411 1.88962 17.7313 1.88135 17.7198 1.87639ZM7.04532 11.3915C6.01882 11.3915 5.17302 10.4491 5.17302 9.29174C5.17302 8.13437 6.00242 7.19197 7.04532 7.19197C8.09641 7.19197 8.93402 8.14265 8.91759 9.29174C8.91759 10.4491 8.08819 11.3915 7.04532 11.3915ZM13.9678 11.3915C12.9414 11.3915 12.0956 10.4491 12.0956 9.29174C12.0956 8.13437 12.9249 7.19197 13.9678 7.19197C15.0189 7.19197 15.8565 8.14265 15.8401 9.29174C15.8401 10.4491 15.0189 11.3915 13.9678 11.3915Z" fill="#73839C"/>
</svg>
