<svg width="1121" height="575" viewBox="0 0 1121 575" fill="none" xmlns="http://www.w3.org/2000/svg">
<path d="M1.7032 54H3.9032V46.96H8.4352V44.936H3.9032V39.524H9.0952V37.5H1.7032V54ZM21.2523 48.5C21.2523 45.134 18.9643 42.78 15.8403 42.78C12.7163 42.78 10.4283 45.134 10.4283 48.5C10.4283 51.866 12.7163 54.22 15.8403 54.22C18.3703 54.22 20.2843 52.966 20.9663 50.7H18.5903C18.1503 51.69 17.2703 52.284 15.9283 52.284C14.0803 52.284 12.8483 51.162 12.5843 49.248H21.2083C21.2303 49.006 21.2523 48.764 21.2523 48.5ZM15.8403 44.716C17.6003 44.716 18.8103 45.816 19.0743 47.664H12.6063C12.8703 45.816 14.0583 44.716 15.8403 44.716ZM30.5892 54H32.7452V46.3C32.7452 43.748 30.5452 42.78 28.1692 42.78C25.7492 42.78 23.4612 43.858 23.4612 46.696H25.7492C25.7492 45.266 26.7392 44.54 28.1692 44.54C29.5112 44.54 30.5452 45.134 30.5452 46.212C30.5452 48.72 23.1312 46.344 23.1312 51.096C23.1312 53.274 24.9132 54.22 26.8712 54.22C28.4552 54.22 29.8632 53.604 30.5892 52.152V54ZM25.3752 50.964C25.3752 49.116 28.7192 49.578 30.5892 48.676V49.468C30.5892 51.382 29.0052 52.372 27.3112 52.372C26.1892 52.372 25.3752 51.91 25.3752 50.964ZM38.6149 50.238V44.936H41.7829V43H38.6149V39.744H36.4149V43H34.6109V44.936H36.4149V50.37C36.4149 53.362 37.9549 54.22 40.0669 54.22C40.7049 54.22 41.3869 54.088 41.7829 53.956V51.998C41.4089 52.13 40.9689 52.196 40.4849 52.196C39.2089 52.196 38.6149 51.602 38.6149 50.238ZM51.6752 54H53.8752V43H51.6752V48.962C51.6752 51.162 50.6852 52.284 49.0792 52.284C47.4512 52.284 46.4612 51.162 46.4612 48.962V43H44.2612V49.402C44.2612 52.68 46.0432 54.22 48.3972 54.22C49.8272 54.22 50.9932 53.538 51.6752 52.24V54ZM59.3329 48.478C59.3329 46.212 60.5649 45.068 62.6769 45.068C63.1169 45.068 63.5129 45.134 63.8429 45.244V42.846C63.6669 42.802 63.4029 42.78 63.1389 42.78C61.4669 42.78 60.1249 43.55 59.3329 44.98V43H57.1329V54H59.3329V48.478ZM76.0159 48.5C76.0159 45.134 73.7279 42.78 70.6039 42.78C67.4799 42.78 65.1919 45.134 65.1919 48.5C65.1919 51.866 67.4799 54.22 70.6039 54.22C73.1339 54.22 75.0479 52.966 75.7299 50.7H73.3539C72.9139 51.69 72.0339 52.284 70.6919 52.284C68.8439 52.284 67.6119 51.162 67.3479 49.248H75.9719C75.9939 49.006 76.0159 48.764 76.0159 48.5ZM70.6039 44.716C72.3639 44.716 73.5739 45.816 73.8379 47.664H67.3699C67.6339 45.816 68.8219 44.716 70.6039 44.716ZM86.9589 50.898C86.9589 46.41 80.2489 48.368 80.2489 45.926C80.2489 45.046 81.0409 44.54 82.2289 44.54C83.5049 44.54 84.4509 45.31 84.4509 46.366H86.7389C86.7389 44.342 84.8029 42.78 82.2289 42.78C79.8529 42.78 78.0269 44.012 78.0269 46.014C78.0269 50.436 84.6929 48.324 84.6929 50.986C84.6929 51.976 83.9009 52.482 82.5589 52.482C81.1509 52.482 80.0949 51.8 80.0949 50.458H77.8069C77.8069 52.856 79.8529 54.22 82.5589 54.22C85.1109 54.22 86.9589 52.966 86.9589 50.898Z" fill="black"/>
<path d="M9.636 139.884V140.764C9.636 143.734 8.36 145.01 6.27 145.01C4.158 145.01 2.904 143.734 2.904 140.764V134.736C2.904 131.766 4.18 130.49 6.27 130.49C8.382 130.49 9.636 131.766 9.636 134.736V135.418H10.956V134.736C10.956 131.084 9.196 129.28 6.27 129.28C3.344 129.28 1.584 131.084 1.584 134.736V140.764C1.584 144.416 3.344 146.22 6.27 146.22C9.196 146.22 10.956 144.416 10.956 140.764V139.884H9.636ZM22.1829 146H23.5029V135H22.1829V140.764C22.1829 143.69 20.9289 145.054 18.8609 145.054C16.8149 145.054 15.5609 143.69 15.5609 140.764V135H14.2409V141.05C14.2409 144.658 16.0889 146.22 18.5309 146.22C20.1589 146.22 21.5009 145.45 22.1829 143.8V146ZM35.2526 143.03C35.2526 138.608 28.0366 140.896 28.0366 137.772C28.0366 136.562 29.0926 135.858 30.6986 135.858C32.3926 135.858 33.6246 136.826 33.6246 138.124H34.9886C34.9886 136.21 33.1626 134.78 30.6986 134.78C28.4326 134.78 26.7166 135.902 26.7166 137.816C26.7166 142.15 33.9106 139.774 33.9106 143.074C33.9106 144.46 32.8326 145.164 31.0286 145.164C29.2026 145.164 27.8166 144.306 27.8166 142.634H26.4526C26.4526 144.944 28.4106 146.22 31.0286 146.22C33.5146 146.22 35.2526 145.076 35.2526 143.03ZM40.0465 142.238V136.166H43.8305V135H40.0465V131.832H38.7265V135H36.8345V136.166H38.7265V142.304C38.7265 145.34 40.1785 146.22 42.1805 146.22C42.7745 146.22 43.4565 146.088 43.8305 145.978V144.768C43.4785 144.9 43.0385 145.01 42.3785 145.01C40.8165 145.01 40.0465 144.152 40.0465 142.238ZM51.2394 146.22C54.3634 146.22 56.7174 143.866 56.7174 140.5C56.7174 137.134 54.3634 134.78 51.2394 134.78C48.1154 134.78 45.7614 137.134 45.7614 140.5C45.7614 143.866 48.1154 146.22 51.2394 146.22ZM51.2394 145.01C48.8634 145.01 47.0814 143.206 47.0814 140.5C47.0814 137.794 48.8634 135.99 51.2394 135.99C53.6154 135.99 55.3974 137.794 55.3974 140.5C55.3974 143.206 53.6154 145.01 51.2394 145.01ZM60.7451 139.62C60.7451 137.112 61.8451 135.946 63.6931 135.946C65.5411 135.946 66.6411 137.112 66.6411 139.62V146H67.9611V139.62C67.9611 137.112 69.1051 135.946 70.9751 135.946C72.7791 135.946 73.8571 137.112 73.8571 139.62V146H75.1771V139.334C75.1771 136.166 73.5051 134.78 71.3271 134.78C69.6331 134.78 68.2471 135.594 67.6751 137.31C67.0811 135.572 65.7171 134.78 64.0451 134.78C62.5931 134.78 61.3831 135.44 60.7451 136.826V135H59.4251V146H60.7451V139.62ZM79.3351 132.184C79.9731 132.184 80.4131 131.722 80.4131 131.106C80.4131 130.49 79.9731 130.028 79.3351 130.028C78.7191 130.028 78.2571 130.49 78.2571 131.106C78.2571 131.722 78.7191 132.184 79.3351 132.184ZM79.9951 146V135H78.6751V146H79.9951ZM91.317 144.834H83.991L90.877 136.584V135H82.935V136.166H89.689L82.825 144.416V146H91.317V144.834ZM101.277 146H102.575V138.212C102.575 135.726 100.463 134.78 98.175 134.78C95.843 134.78 93.643 135.836 93.643 138.608H94.985C94.985 136.782 96.327 135.858 98.175 135.858C99.935 135.858 101.255 136.628 101.255 138.168C101.255 141.292 93.313 138.366 93.313 143.184C93.313 145.252 95.051 146.22 97.163 146.22C98.857 146.22 100.507 145.472 101.277 143.756V146ZM94.655 143.118C94.655 140.302 99.363 141.468 101.277 140.104V141.468C101.277 143.844 99.363 145.098 97.383 145.098C95.777 145.098 94.655 144.46 94.655 143.118ZM116.849 140.5C116.849 137.134 114.583 134.78 111.591 134.78C109.765 134.78 108.225 135.748 107.345 137.332V129.5H106.025V146H107.345V143.668C108.225 145.252 109.765 146.22 111.591 146.22C114.583 146.22 116.849 143.866 116.849 140.5ZM111.437 135.99C113.769 135.99 115.529 137.794 115.529 140.5C115.529 143.206 113.769 145.01 111.437 145.01C109.105 145.01 107.345 143.206 107.345 140.5C107.345 137.794 109.105 135.99 111.437 135.99ZM120.88 146V129.5H119.56V146H120.88ZM134.226 140.5C134.226 137.134 131.96 134.78 128.902 134.78C125.844 134.78 123.578 137.134 123.578 140.5C123.578 143.866 125.844 146.22 128.902 146.22C131.322 146.22 133.236 144.9 133.918 142.7H132.51C131.938 144.152 130.64 145.054 128.946 145.054C126.658 145.054 125.052 143.47 124.876 140.962H134.204C134.226 140.808 134.226 140.654 134.226 140.5ZM128.902 135.946C131.146 135.946 132.752 137.508 132.928 139.994H124.876C125.074 137.508 126.658 135.946 128.902 135.946ZM152.835 140.5C152.835 137.134 150.569 134.78 147.577 134.78C145.751 134.78 144.211 135.748 143.331 137.332V129.5H142.011V146H143.331V143.668C144.211 145.252 145.751 146.22 147.577 146.22C150.569 146.22 152.835 143.866 152.835 140.5ZM147.423 135.99C149.755 135.99 151.515 137.794 151.515 140.5C151.515 143.206 149.755 145.01 147.423 145.01C145.091 145.01 143.331 143.206 143.331 140.5C143.331 137.794 145.091 135.99 147.423 135.99ZM156.866 146V129.5H155.546V146H156.866ZM165.042 146.22C168.166 146.22 170.52 143.866 170.52 140.5C170.52 137.134 168.166 134.78 165.042 134.78C161.918 134.78 159.564 137.134 159.564 140.5C159.564 143.866 161.918 146.22 165.042 146.22ZM165.042 145.01C162.666 145.01 160.884 143.206 160.884 140.5C160.884 137.794 162.666 135.99 165.042 135.99C167.418 135.99 169.2 137.794 169.2 140.5C169.2 143.206 167.418 145.01 165.042 145.01ZM183.15 146.264V135H181.83V137.332C180.95 135.748 179.41 134.78 177.584 134.78C174.592 134.78 172.326 137.134 172.326 140.5C172.326 143.866 174.592 146.22 177.584 146.22C179.41 146.22 180.95 145.252 181.83 143.668V146.264C181.83 148.75 180.378 150.488 177.914 150.488C175.824 150.488 174.372 149.168 174.02 147.144H172.678C173.052 149.872 175.142 151.72 177.914 151.72C180.862 151.72 183.15 149.586 183.15 146.264ZM177.738 145.01C175.406 145.01 173.646 143.206 173.646 140.5C173.646 137.794 175.406 135.99 177.738 135.99C180.07 135.99 181.83 137.794 181.83 140.5C181.83 143.206 180.07 145.01 177.738 145.01ZM199.181 146H200.479V138.212C200.479 135.726 198.367 134.78 196.079 134.78C193.747 134.78 191.547 135.836 191.547 138.608H192.889C192.889 136.782 194.231 135.858 196.079 135.858C197.839 135.858 199.159 136.628 199.159 138.168C199.159 141.292 191.217 138.366 191.217 143.184C191.217 145.252 192.955 146.22 195.067 146.22C196.761 146.22 198.411 145.472 199.181 143.756V146ZM192.559 143.118C192.559 140.302 197.267 141.468 199.181 140.104V141.468C199.181 143.844 197.267 145.098 195.287 145.098C193.681 145.098 192.559 144.46 192.559 143.118ZM205.249 140.104C205.249 137.266 206.547 135.946 208.615 135.946C210.683 135.946 211.981 137.266 211.981 140.104V146H213.301V139.818C213.301 136.298 211.453 134.78 208.967 134.78C207.295 134.78 205.931 135.55 205.249 137.156V135H203.929V146H205.249V140.104ZM225.4 146H226.72V129.5H225.4V137.332C224.52 135.748 222.98 134.78 221.154 134.78C218.162 134.78 215.896 137.134 215.896 140.5C215.896 143.866 218.162 146.22 221.154 146.22C222.98 146.22 224.52 145.252 225.4 143.668V146ZM221.308 135.99C223.64 135.99 225.4 137.794 225.4 140.5C225.4 143.206 223.64 145.01 221.308 145.01C218.976 145.01 217.216 143.206 217.216 140.5C217.216 137.794 218.976 135.99 221.308 135.99ZM243.852 139.378H245.216C244.908 136.628 242.686 134.78 239.892 134.78C236.812 134.78 234.502 137.134 234.502 140.5C234.502 143.866 236.812 146.22 239.892 146.22C242.774 146.22 245.04 144.262 245.26 141.38H243.896C243.654 143.646 241.96 145.01 239.892 145.01C237.56 145.01 235.822 143.206 235.822 140.5C235.822 137.794 237.56 135.99 239.892 135.99C241.894 135.99 243.566 137.266 243.852 139.378ZM252.569 146.22C255.693 146.22 258.047 143.866 258.047 140.5C258.047 137.134 255.693 134.78 252.569 134.78C249.445 134.78 247.091 137.134 247.091 140.5C247.091 143.866 249.445 146.22 252.569 146.22ZM252.569 145.01C250.193 145.01 248.411 143.206 248.411 140.5C248.411 137.794 250.193 135.99 252.569 135.99C254.945 135.99 256.727 137.794 256.727 140.5C256.727 143.206 254.945 145.01 252.569 145.01ZM262.075 140.104C262.075 137.266 263.373 135.946 265.441 135.946C267.509 135.946 268.807 137.266 268.807 140.104V146H270.127V139.818C270.127 136.298 268.279 134.78 265.793 134.78C264.121 134.78 262.757 135.55 262.075 137.156V135H260.755V146H262.075V140.104ZM275.472 142.238V136.166H279.256V135H275.472V131.832H274.152V135H272.26V136.166H274.152V142.304C274.152 145.34 275.604 146.22 277.606 146.22C278.2 146.22 278.882 146.088 279.256 145.978V144.768C278.904 144.9 278.464 145.01 277.804 145.01C276.242 145.01 275.472 144.152 275.472 142.238ZM291.835 140.5C291.835 137.134 289.569 134.78 286.511 134.78C283.453 134.78 281.187 137.134 281.187 140.5C281.187 143.866 283.453 146.22 286.511 146.22C288.931 146.22 290.845 144.9 291.527 142.7H290.119C289.547 144.152 288.249 145.054 286.555 145.054C284.267 145.054 282.661 143.47 282.485 140.962H291.813C291.835 140.808 291.835 140.654 291.835 140.5ZM286.511 135.946C288.755 135.946 290.361 137.508 290.537 139.994H282.485C282.683 137.508 284.267 135.946 286.511 135.946ZM295.87 140.104C295.87 137.266 297.168 135.946 299.236 135.946C301.304 135.946 302.602 137.266 302.602 140.104V146H303.922V139.818C303.922 136.298 302.074 134.78 299.588 134.78C297.916 134.78 296.552 135.55 295.87 137.156V135H294.55V146H295.87V140.104ZM309.267 142.238V136.166H313.051V135H309.267V131.832H307.947V135H306.055V136.166H307.947V142.304C307.947 145.34 309.399 146.22 311.401 146.22C311.995 146.22 312.677 146.088 313.051 145.978V144.768C312.699 144.9 312.259 145.01 311.599 145.01C310.037 145.01 309.267 144.152 309.267 142.238ZM330.808 140.5C330.808 137.134 328.542 134.78 325.484 134.78C322.426 134.78 320.16 137.134 320.16 140.5C320.16 143.866 322.426 146.22 325.484 146.22C327.904 146.22 329.818 144.9 330.5 142.7H329.092C328.52 144.152 327.222 145.054 325.528 145.054C323.24 145.054 321.634 143.47 321.458 140.962H330.786C330.808 140.808 330.808 140.654 330.808 140.5ZM325.484 135.946C327.728 135.946 329.334 137.508 329.51 139.994H321.458C321.656 137.508 323.24 135.946 325.484 135.946ZM342.125 146H343.445V129.5H342.125V137.332C341.245 135.748 339.705 134.78 337.879 134.78C334.887 134.78 332.621 137.134 332.621 140.5C332.621 143.866 334.887 146.22 337.879 146.22C339.705 146.22 341.245 145.252 342.125 143.668V146ZM338.033 135.99C340.365 135.99 342.125 137.794 342.125 140.5C342.125 143.206 340.365 145.01 338.033 145.01C335.701 145.01 333.941 143.206 333.941 140.5C333.941 137.794 335.701 135.99 338.033 135.99ZM347.718 132.184C348.356 132.184 348.796 131.722 348.796 131.106C348.796 130.49 348.356 130.028 347.718 130.028C347.102 130.028 346.64 130.49 346.64 131.106C346.64 131.722 347.102 132.184 347.718 132.184ZM348.378 146V135H347.058V146H348.378ZM353.826 142.238V136.166H357.61V135H353.826V131.832H352.506V135H350.614V136.166H352.506V142.304C352.506 145.34 353.958 146.22 355.96 146.22C356.554 146.22 357.236 146.088 357.61 145.978V144.768C357.258 144.9 356.818 145.01 356.158 145.01C354.596 145.01 353.826 144.152 353.826 142.238ZM365.019 146.22C368.143 146.22 370.497 143.866 370.497 140.5C370.497 137.134 368.143 134.78 365.019 134.78C361.895 134.78 359.541 137.134 359.541 140.5C359.541 143.866 361.895 146.22 365.019 146.22ZM365.019 145.01C362.643 145.01 360.861 143.206 360.861 140.5C360.861 137.794 362.643 135.99 365.019 135.99C367.395 135.99 369.177 137.794 369.177 140.5C369.177 143.206 367.395 145.01 365.019 145.01ZM374.524 140.676C374.524 137.574 375.954 136.122 378.33 136.122C378.792 136.122 379.21 136.188 379.562 136.32V134.912C379.276 134.824 378.924 134.78 378.572 134.78C376.746 134.78 375.272 135.638 374.524 137.442V135H373.204V146H374.524V140.676Z" fill="black"/>
<path d="M16.28 208.5H14.938L12.232 223.878L9.262 208.5H7.238L4.268 223.878L1.562 208.5H0.22L3.256 225H5.214L8.25 209.512L11.286 225H13.244L16.28 208.5ZM19.624 219.676C19.624 216.574 21.054 215.122 23.43 215.122C23.892 215.122 24.31 215.188 24.662 215.32V213.912C24.376 213.824 24.024 213.78 23.672 213.78C21.846 213.78 20.372 214.638 19.624 216.442V214H18.304V225H19.624V219.676ZM27.837 211.184C28.475 211.184 28.915 210.722 28.915 210.106C28.915 209.49 28.475 209.028 27.837 209.028C27.221 209.028 26.759 209.49 26.759 210.106C26.759 210.722 27.221 211.184 27.837 211.184ZM28.497 225V214H27.177V225H28.497ZM33.945 221.238V215.166H37.729V214H33.945V210.832H32.625V214H30.733V215.166H32.625V221.304C32.625 224.34 34.077 225.22 36.079 225.22C36.673 225.22 37.355 225.088 37.729 224.978V223.768C37.377 223.9 36.937 224.01 36.277 224.01C34.715 224.01 33.945 223.152 33.945 221.238ZM41.3292 211.184C41.9672 211.184 42.4072 210.722 42.4072 210.106C42.4072 209.49 41.9672 209.028 41.3292 209.028C40.7132 209.028 40.2512 209.49 40.2512 210.106C40.2512 210.722 40.7132 211.184 41.3292 211.184ZM41.9892 225V214H40.6692V225H41.9892ZM46.9092 219.104C46.9092 216.266 48.2072 214.946 50.2752 214.946C52.3432 214.946 53.6412 216.266 53.6412 219.104V225H54.9612V218.818C54.9612 215.298 53.1132 213.78 50.6272 213.78C48.9552 213.78 47.5912 214.55 46.9092 216.156V214H45.5892V225H46.9092V219.104ZM68.3803 225.264V214H67.0603V216.332C66.1803 214.748 64.6403 213.78 62.8143 213.78C59.8223 213.78 57.5563 216.134 57.5563 219.5C57.5563 222.866 59.8223 225.22 62.8143 225.22C64.6403 225.22 66.1803 224.252 67.0603 222.668V225.264C67.0603 227.75 65.6083 229.488 63.1443 229.488C61.0543 229.488 59.6023 228.168 59.2503 226.144H57.9083C58.2823 228.872 60.3723 230.72 63.1443 230.72C66.0923 230.72 68.3803 228.586 68.3803 225.264ZM62.9683 224.01C60.6363 224.01 58.8763 222.206 58.8763 219.5C58.8763 216.794 60.6363 214.99 62.9683 214.99C65.3003 214.99 67.0603 216.794 67.0603 219.5C67.0603 222.206 65.3003 224.01 62.9683 224.01ZM86.4358 208.5H85.2038V224.186L79.3078 208.5H77.0638V225H78.2958V209.204L84.2358 225H86.4358V208.5ZM90.0403 225H91.3603V217.498H96.4203V216.31H91.3603V209.71H97.0803V208.5H90.0403V225ZM98.2102 209.71H102.104V225H103.424V209.71H107.318V208.5H98.2102V209.71ZM116.592 222.03C116.592 217.608 109.376 219.896 109.376 216.772C109.376 215.562 110.432 214.858 112.038 214.858C113.732 214.858 114.964 215.826 114.964 217.124H116.328C116.328 215.21 114.502 213.78 112.038 213.78C109.772 213.78 108.056 214.902 108.056 216.816C108.056 221.15 115.25 218.774 115.25 222.074C115.25 223.46 114.172 224.164 112.368 224.164C110.542 224.164 109.156 223.306 109.156 221.634H107.792C107.792 223.944 109.75 225.22 112.368 225.22C114.854 225.22 116.592 224.076 116.592 222.03ZM125.269 211.184C125.907 211.184 126.347 210.722 126.347 210.106C126.347 209.49 125.907 209.028 125.269 209.028C124.653 209.028 124.191 209.49 124.191 210.106C124.191 210.722 124.653 211.184 125.269 211.184ZM125.929 225V214H124.609V225H125.929ZM130.849 219.104C130.849 216.266 132.147 214.946 134.215 214.946C136.283 214.946 137.581 216.266 137.581 219.104V225H138.901V218.818C138.901 215.298 137.053 213.78 134.567 213.78C132.895 213.78 131.531 214.55 130.849 216.156V214H129.529V225H130.849V219.104ZM144.246 221.238V215.166H148.03V214H144.246V210.832H142.926V214H141.034V215.166H142.926V221.304C142.926 224.34 144.378 225.22 146.38 225.22C146.974 225.22 147.656 225.088 148.03 224.978V223.768C147.678 223.9 147.238 224.01 146.578 224.01C145.016 224.01 144.246 223.152 144.246 221.238ZM160.609 219.5C160.609 216.134 158.343 213.78 155.285 213.78C152.227 213.78 149.961 216.134 149.961 219.5C149.961 222.866 152.227 225.22 155.285 225.22C157.705 225.22 159.619 223.9 160.301 221.7H158.893C158.321 223.152 157.023 224.054 155.329 224.054C153.041 224.054 151.435 222.47 151.259 219.962H160.587C160.609 219.808 160.609 219.654 160.609 219.5ZM155.285 214.946C157.529 214.946 159.135 216.508 159.311 218.994H151.259C151.457 216.508 153.041 214.946 155.285 214.946ZM173.246 225.264V214H171.926V216.332C171.046 214.748 169.506 213.78 167.68 213.78C164.688 213.78 162.422 216.134 162.422 219.5C162.422 222.866 164.688 225.22 167.68 225.22C169.506 225.22 171.046 224.252 171.926 222.668V225.264C171.926 227.75 170.474 229.488 168.01 229.488C165.92 229.488 164.468 228.168 164.116 226.144H162.774C163.148 228.872 165.238 230.72 168.01 230.72C170.958 230.72 173.246 228.586 173.246 225.264ZM167.834 224.01C165.502 224.01 163.742 222.206 163.742 219.5C163.742 216.794 165.502 214.99 167.834 214.99C170.166 214.99 171.926 216.794 171.926 219.5C171.926 222.206 170.166 224.01 167.834 224.01ZM178.179 219.676C178.179 216.574 179.609 215.122 181.985 215.122C182.447 215.122 182.865 215.188 183.217 215.32V213.912C182.931 213.824 182.579 213.78 182.227 213.78C180.401 213.78 178.927 214.638 178.179 216.442V214H176.859V225H178.179V219.676ZM192.972 225H194.27V217.212C194.27 214.726 192.158 213.78 189.87 213.78C187.538 213.78 185.338 214.836 185.338 217.608H186.68C186.68 215.782 188.022 214.858 189.87 214.858C191.63 214.858 192.95 215.628 192.95 217.168C192.95 220.292 185.008 217.366 185.008 222.184C185.008 224.252 186.746 225.22 188.858 225.22C190.552 225.22 192.202 224.472 192.972 222.756V225ZM186.35 222.118C186.35 219.302 191.058 220.468 192.972 219.104V220.468C192.972 222.844 191.058 224.098 189.078 224.098C187.472 224.098 186.35 223.46 186.35 222.118ZM199.568 221.238V215.166H203.352V214H199.568V210.832H198.248V214H196.356V215.166H198.248V221.304C198.248 224.34 199.7 225.22 201.702 225.22C202.296 225.22 202.978 225.088 203.352 224.978V223.768C203 223.9 202.56 224.01 201.9 224.01C200.338 224.01 199.568 223.152 199.568 221.238ZM206.952 211.184C207.59 211.184 208.03 210.722 208.03 210.106C208.03 209.49 207.59 209.028 206.952 209.028C206.336 209.028 205.874 209.49 205.874 210.106C205.874 210.722 206.336 211.184 206.952 211.184ZM207.612 225V214H206.292V225H207.612ZM215.788 225.22C218.912 225.22 221.266 222.866 221.266 219.5C221.266 216.134 218.912 213.78 215.788 213.78C212.664 213.78 210.31 216.134 210.31 219.5C210.31 222.866 212.664 225.22 215.788 225.22ZM215.788 224.01C213.412 224.01 211.63 222.206 211.63 219.5C211.63 216.794 213.412 214.99 215.788 214.99C218.164 214.99 219.946 216.794 219.946 219.5C219.946 222.206 218.164 224.01 215.788 224.01ZM225.294 219.104C225.294 216.266 226.592 214.946 228.66 214.946C230.728 214.946 232.026 216.266 232.026 219.104V225H233.346V218.818C233.346 215.298 231.498 213.78 229.012 213.78C227.34 213.78 225.976 214.55 225.294 216.156V214H223.974V225H225.294V219.104Z" fill="black"/>
<path d="M0.352 304H1.694L2.86 299.336H8.36L9.526 304H10.868L6.622 287.5H4.598L0.352 304ZM3.168 298.126L5.61 288.38L8.052 298.126H3.168ZM20.8508 304H22.1708V293H20.8508V298.764C20.8508 301.69 19.5968 303.054 17.5288 303.054C15.4828 303.054 14.2288 301.69 14.2288 298.764V293H12.9088V299.05C12.9088 302.658 14.7568 304.22 17.1988 304.22C18.8268 304.22 20.1688 303.45 20.8508 301.8V304ZM27.6286 300.238V294.166H31.4126V293H27.6286V289.832H26.3086V293H24.4166V294.166H26.3086V300.304C26.3086 303.34 27.7606 304.22 29.7626 304.22C30.3566 304.22 31.0386 304.088 31.4126 303.978V302.768C31.0606 302.9 30.6206 303.01 29.9606 303.01C28.3986 303.01 27.6286 302.152 27.6286 300.238ZM38.8214 304.22C41.9454 304.22 44.2994 301.866 44.2994 298.5C44.2994 295.134 41.9454 292.78 38.8214 292.78C35.6974 292.78 33.3434 295.134 33.3434 298.5C33.3434 301.866 35.6974 304.22 38.8214 304.22ZM38.8214 303.01C36.4454 303.01 34.6634 301.206 34.6634 298.5C34.6634 295.794 36.4454 293.99 38.8214 293.99C41.1974 293.99 42.9794 295.794 42.9794 298.5C42.9794 301.206 41.1974 303.01 38.8214 303.01ZM48.3271 297.62C48.3271 295.112 49.4271 293.946 51.2751 293.946C53.1231 293.946 54.2231 295.112 54.2231 297.62V304H55.5431V297.62C55.5431 295.112 56.6871 293.946 58.5571 293.946C60.3611 293.946 61.4391 295.112 61.4391 297.62V304H62.7591V297.334C62.7591 294.166 61.0871 292.78 58.9091 292.78C57.2151 292.78 55.8291 293.594 55.2571 295.31C54.6631 293.572 53.2991 292.78 51.6271 292.78C50.1751 292.78 48.9651 293.44 48.3271 294.826V293H47.0071V304H48.3271V297.62ZM73.6051 304H74.9031V296.212C74.9031 293.726 72.7911 292.78 70.5031 292.78C68.1711 292.78 65.9711 293.836 65.9711 296.608H67.3131C67.3131 294.782 68.6551 293.858 70.5031 293.858C72.2631 293.858 73.5831 294.628 73.5831 296.168C73.5831 299.292 65.6411 296.366 65.6411 301.184C65.6411 303.252 67.3791 304.22 69.4911 304.22C71.1851 304.22 72.8351 303.472 73.6051 301.756V304ZM66.9831 301.118C66.9831 298.302 71.6911 299.468 73.6051 298.104V299.468C73.6051 301.844 71.6911 303.098 69.7111 303.098C68.1051 303.098 66.9831 302.46 66.9831 301.118ZM80.2008 300.238V294.166H83.9848V293H80.2008V289.832H78.8808V293H76.9888V294.166H78.8808V300.304C78.8808 303.34 80.3328 304.22 82.3348 304.22C82.9288 304.22 83.6108 304.088 83.9848 303.978V302.768C83.6328 302.9 83.1928 303.01 82.5328 303.01C80.9708 303.01 80.2008 302.152 80.2008 300.238ZM87.5851 290.184C88.2231 290.184 88.6631 289.722 88.6631 289.106C88.6631 288.49 88.2231 288.028 87.5851 288.028C86.9691 288.028 86.5071 288.49 86.5071 289.106C86.5071 289.722 86.9691 290.184 87.5851 290.184ZM88.2451 304V293H86.9251V304H88.2451ZM100.293 297.378H101.657C101.349 294.628 99.127 292.78 96.333 292.78C93.253 292.78 90.943 295.134 90.943 298.5C90.943 301.866 93.253 304.22 96.333 304.22C99.215 304.22 101.481 302.262 101.701 299.38H100.337C100.095 301.646 98.401 303.01 96.333 303.01C94.001 303.01 92.263 301.206 92.263 298.5C92.263 295.794 94.001 293.99 96.333 293.99C98.335 293.99 100.007 295.266 100.293 297.378ZM115.071 304.22C118.063 304.22 120.329 301.866 120.329 298.5C120.329 295.134 118.063 292.78 115.071 292.78C113.245 292.78 111.705 293.748 110.825 295.332V293H109.505V309.5H110.825V301.668C111.705 303.252 113.245 304.22 115.071 304.22ZM114.917 303.01C112.585 303.01 110.825 301.206 110.825 298.5C110.825 295.794 112.585 293.99 114.917 293.99C117.249 293.99 119.009 295.794 119.009 298.5C119.009 301.206 117.249 303.01 114.917 303.01ZM130.388 304H131.686V296.212C131.686 293.726 129.574 292.78 127.286 292.78C124.954 292.78 122.754 293.836 122.754 296.608H124.096C124.096 294.782 125.438 293.858 127.286 293.858C129.046 293.858 130.366 294.628 130.366 296.168C130.366 299.292 122.424 296.366 122.424 301.184C122.424 303.252 124.162 304.22 126.274 304.22C127.968 304.22 129.618 303.472 130.388 301.756V304ZM123.766 301.118C123.766 298.302 128.474 299.468 130.388 298.104V299.468C130.388 301.844 128.474 303.098 126.494 303.098C124.888 303.098 123.766 302.46 123.766 301.118ZM139.47 305.43L144.178 293H142.836L138.898 303.604L134.85 293H133.508L138.26 305.32C137.446 307.41 136.764 308.422 135.048 308.422C134.52 308.422 134.014 308.334 133.618 308.18V309.368C134.014 309.5 134.586 309.588 135.18 309.588C137.688 309.588 138.568 307.872 139.47 305.43ZM147.478 297.62C147.478 295.112 148.578 293.946 150.426 293.946C152.274 293.946 153.374 295.112 153.374 297.62V304H154.694V297.62C154.694 295.112 155.838 293.946 157.708 293.946C159.512 293.946 160.59 295.112 160.59 297.62V304H161.91V297.334C161.91 294.166 160.238 292.78 158.06 292.78C156.366 292.78 154.98 293.594 154.408 295.31C153.814 293.572 152.45 292.78 150.778 292.78C149.326 292.78 148.116 293.44 147.478 294.826V293H146.158V304H147.478V297.62ZM175.154 298.5C175.154 295.134 172.888 292.78 169.83 292.78C166.772 292.78 164.506 295.134 164.506 298.5C164.506 301.866 166.772 304.22 169.83 304.22C172.25 304.22 174.164 302.9 174.846 300.7H173.438C172.866 302.152 171.568 303.054 169.874 303.054C167.586 303.054 165.98 301.47 165.804 298.962H175.132C175.154 298.808 175.154 298.654 175.154 298.5ZM169.83 293.946C172.074 293.946 173.68 295.508 173.856 297.994H165.804C166.002 295.508 167.586 293.946 169.83 293.946ZM179.188 298.104C179.188 295.266 180.486 293.946 182.554 293.946C184.622 293.946 185.92 295.266 185.92 298.104V304H187.24V297.818C187.24 294.298 185.392 292.78 182.906 292.78C181.234 292.78 179.87 293.55 179.188 295.156V293H177.868V304H179.188V298.104ZM192.586 300.238V294.166H196.37V293H192.586V289.832H191.266V293H189.374V294.166H191.266V300.304C191.266 303.34 192.718 304.22 194.72 304.22C195.314 304.22 195.996 304.088 196.37 303.978V302.768C196.018 302.9 195.578 303.01 194.918 303.01C193.356 303.01 192.586 302.152 192.586 300.238ZM212.52 301.03C212.52 296.608 205.304 298.896 205.304 295.772C205.304 294.562 206.36 293.858 207.966 293.858C209.66 293.858 210.892 294.826 210.892 296.124H212.256C212.256 294.21 210.43 292.78 207.966 292.78C205.7 292.78 203.984 293.902 203.984 295.816C203.984 300.15 211.178 297.774 211.178 301.074C211.178 302.46 210.1 303.164 208.296 303.164C206.47 303.164 205.084 302.306 205.084 300.634H203.72C203.72 302.944 205.678 304.22 208.296 304.22C210.782 304.22 212.52 303.076 212.52 301.03ZM219.8 305.43L224.508 293H223.166L219.228 303.604L215.18 293H213.838L218.59 305.32C217.776 307.41 217.094 308.422 215.378 308.422C214.85 308.422 214.344 308.334 213.948 308.18V309.368C214.344 309.5 214.916 309.588 215.51 309.588C218.018 309.588 218.898 307.872 219.8 305.43ZM234.628 301.03C234.628 296.608 227.412 298.896 227.412 295.772C227.412 294.562 228.468 293.858 230.074 293.858C231.768 293.858 233 294.826 233 296.124H234.364C234.364 294.21 232.538 292.78 230.074 292.78C227.808 292.78 226.092 293.902 226.092 295.816C226.092 300.15 233.286 297.774 233.286 301.074C233.286 302.46 232.208 303.164 230.404 303.164C228.578 303.164 227.192 302.306 227.192 300.634H225.828C225.828 302.944 227.786 304.22 230.404 304.22C232.89 304.22 234.628 303.076 234.628 301.03ZM239.422 300.238V294.166H243.206V293H239.422V289.832H238.102V293H236.21V294.166H238.102V300.304C238.102 303.34 239.554 304.22 241.556 304.22C242.15 304.22 242.832 304.088 243.206 303.978V302.768C242.854 302.9 242.414 303.01 241.754 303.01C240.192 303.01 239.422 302.152 239.422 300.238ZM255.784 298.5C255.784 295.134 253.518 292.78 250.46 292.78C247.402 292.78 245.136 295.134 245.136 298.5C245.136 301.866 247.402 304.22 250.46 304.22C252.88 304.22 254.794 302.9 255.476 300.7H254.068C253.496 302.152 252.198 303.054 250.504 303.054C248.216 303.054 246.61 301.47 246.434 298.962H255.762C255.784 298.808 255.784 298.654 255.784 298.5ZM250.46 293.946C252.704 293.946 254.31 295.508 254.486 297.994H246.434C246.632 295.508 248.216 293.946 250.46 293.946ZM259.819 297.62C259.819 295.112 260.919 293.946 262.767 293.946C264.615 293.946 265.715 295.112 265.715 297.62V304H267.035V297.62C267.035 295.112 268.179 293.946 270.049 293.946C271.853 293.946 272.931 295.112 272.931 297.62V304H274.251V297.334C274.251 294.166 272.579 292.78 270.401 292.78C268.707 292.78 267.321 293.594 266.749 295.31C266.155 293.572 264.791 292.78 263.119 292.78C261.667 292.78 260.457 293.44 259.819 294.826V293H258.499V304H259.819V297.62ZM284.932 291.24C284.932 289.326 285.812 288.49 287.374 288.49C287.946 288.49 288.474 288.556 288.936 288.776V287.544C288.408 287.346 287.902 287.28 287.264 287.28C285.064 287.28 283.612 288.556 283.612 291.174V293H281.456V294.166H283.612V304H284.932V294.166H288.716V293H284.932V291.24ZM295.538 304.22C298.662 304.22 301.016 301.866 301.016 298.5C301.016 295.134 298.662 292.78 295.538 292.78C292.414 292.78 290.06 295.134 290.06 298.5C290.06 301.866 292.414 304.22 295.538 304.22ZM295.538 303.01C293.162 303.01 291.38 301.206 291.38 298.5C291.38 295.794 293.162 293.99 295.538 293.99C297.914 293.99 299.696 295.794 299.696 298.5C299.696 301.206 297.914 303.01 295.538 303.01ZM305.044 298.676C305.044 295.574 306.474 294.122 308.85 294.122C309.312 294.122 309.73 294.188 310.082 294.32V292.912C309.796 292.824 309.444 292.78 309.092 292.78C307.266 292.78 305.792 293.638 305.044 295.442V293H303.724V304H305.044V298.676ZM325.9 297.378H327.264C326.956 294.628 324.734 292.78 321.94 292.78C318.86 292.78 316.55 295.134 316.55 298.5C316.55 301.866 318.86 304.22 321.94 304.22C324.822 304.22 327.088 302.262 327.308 299.38H325.944C325.702 301.646 324.008 303.01 321.94 303.01C319.608 303.01 317.87 301.206 317.87 298.5C317.87 295.794 319.608 293.99 321.94 293.99C323.942 293.99 325.614 295.266 325.9 297.378ZM331.362 298.676C331.362 295.574 332.792 294.122 335.168 294.122C335.63 294.122 336.048 294.188 336.4 294.32V292.912C336.114 292.824 335.762 292.78 335.41 292.78C333.584 292.78 332.11 293.638 331.362 295.442V293H330.042V304H331.362V298.676ZM348.661 298.5C348.661 295.134 346.395 292.78 343.337 292.78C340.279 292.78 338.013 295.134 338.013 298.5C338.013 301.866 340.279 304.22 343.337 304.22C345.757 304.22 347.671 302.9 348.353 300.7H346.945C346.373 302.152 345.075 303.054 343.381 303.054C341.093 303.054 339.487 301.47 339.311 298.962H348.639C348.661 298.808 348.661 298.654 348.661 298.5ZM343.337 293.946C345.581 293.946 347.187 295.508 347.363 297.994H339.311C339.509 295.508 341.093 293.946 343.337 293.946ZM358.724 304H360.022V296.212C360.022 293.726 357.91 292.78 355.622 292.78C353.29 292.78 351.09 293.836 351.09 296.608H352.432C352.432 294.782 353.774 293.858 355.622 293.858C357.382 293.858 358.702 294.628 358.702 296.168C358.702 299.292 350.76 296.366 350.76 301.184C350.76 303.252 352.498 304.22 354.61 304.22C356.304 304.22 357.954 303.472 358.724 301.756V304ZM352.102 301.118C352.102 298.302 356.81 299.468 358.724 298.104V299.468C358.724 301.844 356.81 303.098 354.83 303.098C353.224 303.098 352.102 302.46 352.102 301.118ZM365.32 300.238V294.166H369.104V293H365.32V289.832H364V293H362.108V294.166H364V300.304C364 303.34 365.452 304.22 367.454 304.22C368.048 304.22 368.73 304.088 369.104 303.978V302.768C368.752 302.9 368.312 303.01 367.652 303.01C366.09 303.01 365.32 302.152 365.32 300.238ZM376.513 304.22C379.637 304.22 381.991 301.866 381.991 298.5C381.991 295.134 379.637 292.78 376.513 292.78C373.389 292.78 371.035 295.134 371.035 298.5C371.035 301.866 373.389 304.22 376.513 304.22ZM376.513 303.01C374.137 303.01 372.355 301.206 372.355 298.5C372.355 295.794 374.137 293.99 376.513 293.99C378.889 293.99 380.671 295.794 380.671 298.5C380.671 301.206 378.889 303.01 376.513 303.01ZM386.019 298.676C386.019 295.574 387.449 294.122 389.825 294.122C390.287 294.122 390.705 294.188 391.057 294.32V292.912C390.771 292.824 390.419 292.78 390.067 292.78C388.241 292.78 386.767 293.638 386.019 295.442V293H384.699V304H386.019V298.676ZM401.712 301.03C401.712 296.608 394.496 298.896 394.496 295.772C394.496 294.562 395.552 293.858 397.158 293.858C398.852 293.858 400.084 294.826 400.084 296.124H401.448C401.448 294.21 399.622 292.78 397.158 292.78C394.892 292.78 393.176 293.902 393.176 295.816C393.176 300.15 400.37 297.774 400.37 301.074C400.37 302.46 399.292 303.164 397.488 303.164C395.662 303.164 394.276 302.306 394.276 300.634H392.912C392.912 302.944 394.87 304.22 397.488 304.22C399.974 304.22 401.712 303.076 401.712 301.03Z" fill="black"/>
<path d="M1.452 370.108C1.452 372.352 2.816 373.628 4.422 374.662L5.896 375.652C7.238 376.532 8.316 377.522 8.316 379.194C8.316 380.954 7.172 382.01 5.39 382.01C3.63 382.01 2.464 380.734 2.464 378.666V377.764H1.144V378.82C1.144 381.658 3.058 383.22 5.39 383.22C7.722 383.22 9.636 381.834 9.636 379.018C9.636 376.884 8.316 375.674 6.754 374.64L5.28 373.628C3.916 372.748 2.772 371.78 2.772 370.108C2.772 368.414 3.828 367.49 5.368 367.49C7.018 367.49 8.03 368.502 8.03 370.746V371.516H9.35V370.68C9.35 367.71 7.656 366.28 5.368 366.28C3.19 366.28 1.452 367.38 1.452 370.108ZM22.4426 377.5C22.4426 374.134 20.1766 371.78 17.1186 371.78C14.0606 371.78 11.7946 374.134 11.7946 377.5C11.7946 380.866 14.0606 383.22 17.1186 383.22C19.5386 383.22 21.4526 381.9 22.1346 379.7H20.7266C20.1546 381.152 18.8566 382.054 17.1626 382.054C14.8746 382.054 13.2686 380.47 13.0926 377.962H22.4206C22.4426 377.808 22.4426 377.654 22.4426 377.5ZM17.1186 372.946C19.3626 372.946 20.9686 374.508 21.1446 376.994H13.0926C13.2906 374.508 14.8746 372.946 17.1186 372.946ZM27.0055 379.238V373.166H30.7895V372H27.0055V368.832H25.6855V372H23.7935V373.166H25.6855V379.304C25.6855 382.34 27.1375 383.22 29.1395 383.22C29.7335 383.22 30.4155 383.088 30.7895 382.978V381.768C30.4375 381.9 29.9975 382.01 29.3375 382.01C27.7755 382.01 27.0055 381.152 27.0055 379.238ZM47.2481 376.378H48.6121C48.3041 373.628 46.0821 371.78 43.2881 371.78C40.2081 371.78 37.8981 374.134 37.8981 377.5C37.8981 380.866 40.2081 383.22 43.2881 383.22C46.1701 383.22 48.4361 381.262 48.6561 378.38H47.2921C47.0501 380.646 45.3561 382.01 43.2881 382.01C40.9561 382.01 39.2181 380.206 39.2181 377.5C39.2181 374.794 40.9561 372.99 43.2881 372.99C45.2901 372.99 46.9621 374.266 47.2481 376.378ZM52.7099 377.676C52.7099 374.574 54.1399 373.122 56.5159 373.122C56.9779 373.122 57.3959 373.188 57.7479 373.32V371.912C57.4619 371.824 57.1099 371.78 56.7579 371.78C54.9319 371.78 53.4579 372.638 52.7099 374.442V372H51.3899V383H52.7099V377.676ZM70.009 377.5C70.009 374.134 67.743 371.78 64.685 371.78C61.627 371.78 59.361 374.134 59.361 377.5C59.361 380.866 61.627 383.22 64.685 383.22C67.105 383.22 69.019 381.9 69.701 379.7H68.293C67.721 381.152 66.423 382.054 64.729 382.054C62.441 382.054 60.835 380.47 60.659 377.962H69.987C70.009 377.808 70.009 377.654 70.009 377.5ZM64.685 372.946C66.929 372.946 68.535 374.508 68.711 376.994H60.659C60.857 374.508 62.441 372.946 64.685 372.946ZM80.0719 383H81.3699V375.212C81.3699 372.726 79.2579 371.78 76.9699 371.78C74.6379 371.78 72.4379 372.836 72.4379 375.608H73.7799C73.7799 373.782 75.1219 372.858 76.9699 372.858C78.7299 372.858 80.0499 373.628 80.0499 375.168C80.0499 378.292 72.1079 375.366 72.1079 380.184C72.1079 382.252 73.8459 383.22 75.9579 383.22C77.6519 383.22 79.3019 382.472 80.0719 380.756V383ZM73.4499 380.118C73.4499 377.302 78.1579 378.468 80.0719 377.104V378.468C80.0719 380.844 78.1579 382.098 76.1779 382.098C74.5719 382.098 73.4499 381.46 73.4499 380.118ZM86.6676 379.238V373.166H90.4516V372H86.6676V368.832H85.3476V372H83.4556V373.166H85.3476V379.304C85.3476 382.34 86.7996 383.22 88.8016 383.22C89.3956 383.22 90.0776 383.088 90.4516 382.978V381.768C90.0996 381.9 89.6596 382.01 88.9996 382.01C87.4376 382.01 86.6676 381.152 86.6676 379.238ZM97.8605 383.22C100.984 383.22 103.338 380.866 103.338 377.5C103.338 374.134 100.984 371.78 97.8605 371.78C94.7365 371.78 92.3825 374.134 92.3825 377.5C92.3825 380.866 94.7365 383.22 97.8605 383.22ZM97.8605 382.01C95.4845 382.01 93.7025 380.206 93.7025 377.5C93.7025 374.794 95.4845 372.99 97.8605 372.99C100.236 372.99 102.018 374.794 102.018 377.5C102.018 380.206 100.236 382.01 97.8605 382.01ZM107.366 377.676C107.366 374.574 108.796 373.122 111.172 373.122C111.634 373.122 112.052 373.188 112.404 373.32V371.912C112.118 371.824 111.766 371.78 111.414 371.78C109.588 371.78 108.114 372.638 107.366 374.442V372H106.046V383H107.366V377.676ZM121.095 377.676C121.095 374.574 122.525 373.122 124.901 373.122C125.363 373.122 125.781 373.188 126.133 373.32V371.912C125.847 371.824 125.495 371.78 125.143 371.78C123.317 371.78 121.843 372.638 121.095 374.442V372H119.775V383H121.095V377.676ZM133.224 383.22C136.348 383.22 138.702 380.866 138.702 377.5C138.702 374.134 136.348 371.78 133.224 371.78C130.1 371.78 127.746 374.134 127.746 377.5C127.746 380.866 130.1 383.22 133.224 383.22ZM133.224 382.01C130.848 382.01 129.066 380.206 129.066 377.5C129.066 374.794 130.848 372.99 133.224 372.99C135.6 372.99 137.382 374.794 137.382 377.5C137.382 380.206 135.6 382.01 133.224 382.01ZM145.743 384.43L150.451 372H149.109L145.171 382.604L141.123 372H139.781L144.533 384.32C143.719 386.41 143.037 387.422 141.321 387.422C140.793 387.422 140.287 387.334 139.891 387.18V388.368C140.287 388.5 140.859 388.588 141.453 388.588C143.961 388.588 144.841 386.872 145.743 384.43ZM159.672 383H160.97V375.212C160.97 372.726 158.858 371.78 156.57 371.78C154.238 371.78 152.038 372.836 152.038 375.608H153.38C153.38 373.782 154.722 372.858 156.57 372.858C158.33 372.858 159.65 373.628 159.65 375.168C159.65 378.292 151.708 375.366 151.708 380.184C151.708 382.252 153.446 383.22 155.558 383.22C157.252 383.22 158.902 382.472 159.672 380.756V383ZM153.05 380.118C153.05 377.302 157.758 378.468 159.672 377.104V378.468C159.672 380.844 157.758 382.098 155.778 382.098C154.172 382.098 153.05 381.46 153.05 380.118ZM165.739 383V366.5H164.419V383H165.739ZM171.187 379.238V373.166H174.971V372H171.187V368.832H169.867V372H167.975V373.166H169.867V379.304C169.867 382.34 171.319 383.22 173.321 383.22C173.915 383.22 174.597 383.088 174.971 382.978V381.768C174.619 381.9 174.179 382.01 173.519 382.01C171.957 382.01 171.187 381.152 171.187 379.238ZM178.571 369.184C179.209 369.184 179.649 368.722 179.649 368.106C179.649 367.49 179.209 367.028 178.571 367.028C177.955 367.028 177.493 367.49 177.493 368.106C177.493 368.722 177.955 369.184 178.571 369.184ZM179.231 383V372H177.911V383H179.231ZM192.577 377.5C192.577 374.134 190.311 371.78 187.253 371.78C184.195 371.78 181.929 374.134 181.929 377.5C181.929 380.866 184.195 383.22 187.253 383.22C189.673 383.22 191.587 381.9 192.269 379.7H190.861C190.289 381.152 188.991 382.054 187.297 382.054C185.009 382.054 183.403 380.47 183.227 377.962H192.555C192.577 377.808 192.577 377.654 192.577 377.5ZM187.253 372.946C189.497 372.946 191.103 374.508 191.279 376.994H183.227C183.425 374.508 185.009 372.946 187.253 372.946ZM203.432 380.03C203.432 375.608 196.216 377.896 196.216 374.772C196.216 373.562 197.272 372.858 198.878 372.858C200.572 372.858 201.804 373.826 201.804 375.124H203.168C203.168 373.21 201.342 371.78 198.878 371.78C196.612 371.78 194.896 372.902 194.896 374.816C194.896 379.15 202.09 376.774 202.09 380.074C202.09 381.46 201.012 382.164 199.208 382.164C197.382 382.164 195.996 381.306 195.996 379.634H194.632C194.632 381.944 196.59 383.22 199.208 383.22C201.694 383.22 203.432 382.076 203.432 380.03ZM218.907 383H220.073V375.014H222.053V373.804H215.761C213.935 373.804 212.637 372.99 212.637 370.856V370.46C212.637 368.436 213.715 367.49 215.475 367.49C217.257 367.49 218.313 368.436 218.313 370.46V371.23H219.633V370.372C219.633 367.666 217.939 366.28 215.475 366.28C212.989 366.28 211.317 367.666 211.317 370.372V370.856C211.317 372.704 212.285 373.848 213.715 374.376C212.021 374.882 210.877 376.136 210.877 378.138V378.754C210.877 381.702 212.571 383.22 215.255 383.22C217.037 383.22 218.291 382.45 218.907 380.888V383ZM215.475 382.032C213.341 382.032 212.197 380.998 212.197 378.688V378.204C212.197 375.894 213.605 375.014 215.629 375.014H218.753V378.292C218.753 380.844 217.565 382.032 215.475 382.032ZM237.729 376.378H239.093C238.785 373.628 236.563 371.78 233.769 371.78C230.689 371.78 228.379 374.134 228.379 377.5C228.379 380.866 230.689 383.22 233.769 383.22C236.651 383.22 238.917 381.262 239.137 378.38H237.773C237.531 380.646 235.837 382.01 233.769 382.01C231.437 382.01 229.699 380.206 229.699 377.5C229.699 374.794 231.437 372.99 233.769 372.99C235.771 372.99 237.443 374.266 237.729 376.378ZM246.446 383.22C249.57 383.22 251.924 380.866 251.924 377.5C251.924 374.134 249.57 371.78 246.446 371.78C243.322 371.78 240.968 374.134 240.968 377.5C240.968 380.866 243.322 383.22 246.446 383.22ZM246.446 382.01C244.07 382.01 242.288 380.206 242.288 377.5C242.288 374.794 244.07 372.99 246.446 372.99C248.822 372.99 250.604 374.794 250.604 377.5C250.604 380.206 248.822 382.01 246.446 382.01ZM255.952 376.62C255.952 374.112 257.052 372.946 258.9 372.946C260.748 372.946 261.848 374.112 261.848 376.62V383H263.168V376.62C263.168 374.112 264.312 372.946 266.182 372.946C267.986 372.946 269.064 374.112 269.064 376.62V383H270.384V376.334C270.384 373.166 268.712 371.78 266.534 371.78C264.84 371.78 263.454 372.594 262.882 374.31C262.288 372.572 260.924 371.78 259.252 371.78C257.8 371.78 256.59 372.44 255.952 373.826V372H254.632V383H255.952V376.62ZM275.202 376.62C275.202 374.112 276.302 372.946 278.15 372.946C279.998 372.946 281.098 374.112 281.098 376.62V383H282.418V376.62C282.418 374.112 283.562 372.946 285.432 372.946C287.236 372.946 288.314 374.112 288.314 376.62V383H289.634V376.334C289.634 373.166 287.962 371.78 285.784 371.78C284.09 371.78 282.704 372.594 282.132 374.31C281.538 372.572 280.174 371.78 278.502 371.78C277.05 371.78 275.84 372.44 275.202 373.826V372H273.882V383H275.202V376.62ZM293.792 369.184C294.43 369.184 294.87 368.722 294.87 368.106C294.87 367.49 294.43 367.028 293.792 367.028C293.176 367.028 292.714 367.49 292.714 368.106C292.714 368.722 293.176 369.184 293.792 369.184ZM294.452 383V372H293.132V383H294.452ZM306.192 380.03C306.192 375.608 298.976 377.896 298.976 374.772C298.976 373.562 300.032 372.858 301.638 372.858C303.332 372.858 304.564 373.826 304.564 375.124H305.928C305.928 373.21 304.102 371.78 301.638 371.78C299.372 371.78 297.656 372.902 297.656 374.816C297.656 379.15 304.85 376.774 304.85 380.074C304.85 381.46 303.772 382.164 301.968 382.164C300.142 382.164 298.756 381.306 298.756 379.634H297.392C297.392 381.944 299.35 383.22 301.968 383.22C304.454 383.22 306.192 382.076 306.192 380.03ZM317.278 380.03C317.278 375.608 310.062 377.896 310.062 374.772C310.062 373.562 311.118 372.858 312.724 372.858C314.418 372.858 315.65 373.826 315.65 375.124H317.014C317.014 373.21 315.188 371.78 312.724 371.78C310.458 371.78 308.742 372.902 308.742 374.816C308.742 379.15 315.936 376.774 315.936 380.074C315.936 381.46 314.858 382.164 313.054 382.164C311.228 382.164 309.842 381.306 309.842 379.634H308.478C308.478 381.944 310.436 383.22 313.054 383.22C315.54 383.22 317.278 382.076 317.278 380.03ZM320.884 369.184C321.522 369.184 321.962 368.722 321.962 368.106C321.962 367.49 321.522 367.028 320.884 367.028C320.268 367.028 319.806 367.49 319.806 368.106C319.806 368.722 320.268 369.184 320.884 369.184ZM321.544 383V372H320.224V383H321.544ZM329.72 383.22C332.844 383.22 335.198 380.866 335.198 377.5C335.198 374.134 332.844 371.78 329.72 371.78C326.596 371.78 324.242 374.134 324.242 377.5C324.242 380.866 326.596 383.22 329.72 383.22ZM329.72 382.01C327.344 382.01 325.562 380.206 325.562 377.5C325.562 374.794 327.344 372.99 329.72 372.99C332.096 372.99 333.878 374.794 333.878 377.5C333.878 380.206 332.096 382.01 329.72 382.01ZM339.226 377.104C339.226 374.266 340.524 372.946 342.592 372.946C344.66 372.946 345.958 374.266 345.958 377.104V383H347.278V376.818C347.278 373.298 345.43 371.78 342.944 371.78C341.272 371.78 339.908 372.55 339.226 374.156V372H337.906V383H339.226V377.104ZM358.915 380.03C358.915 375.608 351.699 377.896 351.699 374.772C351.699 373.562 352.755 372.858 354.361 372.858C356.055 372.858 357.287 373.826 357.287 375.124H358.651C358.651 373.21 356.825 371.78 354.361 371.78C352.095 371.78 350.379 372.902 350.379 374.816C350.379 379.15 357.573 376.774 357.573 380.074C357.573 381.46 356.495 382.164 354.691 382.164C352.865 382.164 351.479 381.306 351.479 379.634H350.115C350.115 381.944 352.073 383.22 354.691 383.22C357.177 383.22 358.915 382.076 358.915 380.03Z" fill="black"/>
<path d="M6.006 445.5H1.804V462H6.006C9.086 462 10.956 460.328 10.956 456.5V451C10.956 447.172 9.086 445.5 6.006 445.5ZM6.006 460.79H3.124V446.71H6.006C8.294 446.71 9.636 447.898 9.636 451V456.5C9.636 459.602 8.25 460.79 6.006 460.79ZM15.0109 448.184C15.6489 448.184 16.0889 447.722 16.0889 447.106C16.0889 446.49 15.6489 446.028 15.0109 446.028C14.3949 446.028 13.9329 446.49 13.9329 447.106C13.9329 447.722 14.3949 448.184 15.0109 448.184ZM15.6709 462V451H14.3509V462H15.6709ZM29.1928 462.264V451H27.8728V453.332C26.9928 451.748 25.4528 450.78 23.6268 450.78C20.6348 450.78 18.3688 453.134 18.3688 456.5C18.3688 459.866 20.6348 462.22 23.6268 462.22C25.4528 462.22 26.9928 461.252 27.8728 459.668V462.264C27.8728 464.75 26.4208 466.488 23.9568 466.488C21.8668 466.488 20.4148 465.168 20.0628 463.144H18.7208C19.0948 465.872 21.1848 467.72 23.9568 467.72C26.9048 467.72 29.1928 465.586 29.1928 462.264ZM23.7808 461.01C21.4488 461.01 19.6888 459.206 19.6888 456.5C19.6888 453.794 21.4488 451.99 23.7808 451.99C26.1128 451.99 27.8728 453.794 27.8728 456.5C27.8728 459.206 26.1128 461.01 23.7808 461.01ZM33.466 448.184C34.104 448.184 34.544 447.722 34.544 447.106C34.544 446.49 34.104 446.028 33.466 446.028C32.85 446.028 32.388 446.49 32.388 447.106C32.388 447.722 32.85 448.184 33.466 448.184ZM34.126 462V451H32.806V462H34.126ZM39.5739 458.238V452.166H43.3579V451H39.5739V447.832H38.2539V451H36.3619V452.166H38.2539V458.304C38.2539 461.34 39.7059 462.22 41.7079 462.22C42.3019 462.22 42.9839 462.088 43.3579 461.978V460.768C43.0059 460.9 42.5659 461.01 41.9059 461.01C40.3439 461.01 39.5739 460.152 39.5739 458.238ZM53.6461 462H54.9441V454.212C54.9441 451.726 52.8321 450.78 50.5441 450.78C48.2121 450.78 46.0121 451.836 46.0121 454.608H47.3541C47.3541 452.782 48.6961 451.858 50.5441 451.858C52.3041 451.858 53.6241 452.628 53.6241 454.168C53.6241 457.292 45.6821 454.366 45.6821 459.184C45.6821 461.252 47.4201 462.22 49.5321 462.22C51.2261 462.22 52.8761 461.472 53.6461 459.756V462ZM47.0241 459.118C47.0241 456.302 51.7321 457.468 53.6461 456.104V457.468C53.6461 459.844 51.7321 461.098 49.7521 461.098C48.1461 461.098 47.0241 460.46 47.0241 459.118ZM59.7138 462V445.5H58.3938V462H59.7138ZM68.0321 449.108C68.0321 451.352 69.3961 452.628 71.0021 453.662L72.4761 454.652C73.8181 455.532 74.8961 456.522 74.8961 458.194C74.8961 459.954 73.7521 461.01 71.9701 461.01C70.2101 461.01 69.0441 459.734 69.0441 457.666V456.764H67.7241V457.82C67.7241 460.658 69.6381 462.22 71.9701 462.22C74.3021 462.22 76.2161 460.834 76.2161 458.018C76.2161 455.884 74.8961 454.674 73.3341 453.64L71.8601 452.628C70.4961 451.748 69.3521 450.78 69.3521 449.108C69.3521 447.414 70.4081 446.49 71.9481 446.49C73.5981 446.49 74.6101 447.502 74.6101 449.746V450.516H75.9301V449.68C75.9301 446.71 74.2361 445.28 71.9481 445.28C69.7701 445.28 68.0321 446.38 68.0321 449.108ZM79.7218 448.184C80.3598 448.184 80.7998 447.722 80.7998 447.106C80.7998 446.49 80.3598 446.028 79.7218 446.028C79.1058 446.028 78.6438 446.49 78.6438 447.106C78.6438 447.722 79.1058 448.184 79.7218 448.184ZM80.3818 462V451H79.0618V462H80.3818ZM93.9037 462.264V451H92.5837V453.332C91.7037 451.748 90.1637 450.78 88.3377 450.78C85.3457 450.78 83.0797 453.134 83.0797 456.5C83.0797 459.866 85.3457 462.22 88.3377 462.22C90.1637 462.22 91.7037 461.252 92.5837 459.668V462.264C92.5837 464.75 91.1317 466.488 88.6677 466.488C86.5777 466.488 85.1257 465.168 84.7737 463.144H83.4317C83.8057 465.872 85.8957 467.72 88.6677 467.72C91.6157 467.72 93.9037 465.586 93.9037 462.264ZM88.4917 461.01C86.1597 461.01 84.3997 459.206 84.3997 456.5C84.3997 453.794 86.1597 451.99 88.4917 451.99C90.8237 451.99 92.5837 453.794 92.5837 456.5C92.5837 459.206 90.8237 461.01 88.4917 461.01ZM98.8369 456.104C98.8369 453.266 100.135 451.946 102.203 451.946C104.271 451.946 105.569 453.266 105.569 456.104V462H106.889V455.818C106.889 452.298 105.041 450.78 102.555 450.78C100.883 450.78 99.5189 451.55 98.8369 453.156V451H97.5169V462H98.8369V456.104ZM117.734 462H119.032V454.212C119.032 451.726 116.92 450.78 114.632 450.78C112.3 450.78 110.1 451.836 110.1 454.608H111.442C111.442 452.782 112.784 451.858 114.632 451.858C116.392 451.858 117.712 452.628 117.712 454.168C117.712 457.292 109.77 454.366 109.77 459.184C109.77 461.252 111.508 462.22 113.62 462.22C115.314 462.22 116.964 461.472 117.734 459.756V462ZM111.112 459.118C111.112 456.302 115.82 457.468 117.734 456.104V457.468C117.734 459.844 115.82 461.098 113.84 461.098C112.234 461.098 111.112 460.46 111.112 459.118ZM124.33 458.238V452.166H128.114V451H124.33V447.832H123.01V451H121.118V452.166H123.01V458.304C123.01 461.34 124.462 462.22 126.464 462.22C127.058 462.22 127.74 462.088 128.114 461.978V460.768C127.762 460.9 127.322 461.01 126.662 461.01C125.1 461.01 124.33 460.152 124.33 458.238ZM138.886 462H140.206V451H138.886V456.764C138.886 459.69 137.632 461.054 135.564 461.054C133.518 461.054 132.264 459.69 132.264 456.764V451H130.944V457.05C130.944 460.658 132.792 462.22 135.234 462.22C136.862 462.22 138.204 461.45 138.886 459.8V462ZM145.136 456.676C145.136 453.574 146.566 452.122 148.942 452.122C149.404 452.122 149.822 452.188 150.174 452.32V450.912C149.888 450.824 149.536 450.78 149.184 450.78C147.358 450.78 145.884 451.638 145.136 453.442V451H143.816V462H145.136V456.676ZM162.435 456.5C162.435 453.134 160.169 450.78 157.111 450.78C154.053 450.78 151.787 453.134 151.787 456.5C151.787 459.866 154.053 462.22 157.111 462.22C159.531 462.22 161.445 460.9 162.127 458.7H160.719C160.147 460.152 158.849 461.054 157.155 461.054C154.867 461.054 153.261 459.47 153.085 456.962H162.413C162.435 456.808 162.435 456.654 162.435 456.5ZM157.111 451.946C159.355 451.946 160.961 453.508 161.137 455.994H153.085C153.283 453.508 154.867 451.946 157.111 451.946ZM165.304 452.936C165.964 452.936 166.404 452.452 166.404 451.858C166.404 451.242 165.964 450.78 165.304 450.78C164.688 450.78 164.226 451.242 164.226 451.858C164.226 452.452 164.688 452.936 165.304 452.936ZM165.304 462.22C165.964 462.22 166.404 461.736 166.404 461.142C166.404 460.526 165.964 460.064 165.304 460.064C164.688 460.064 164.226 460.526 164.226 461.142C164.226 461.736 164.688 462.22 165.304 462.22ZM183.468 456.5C183.468 453.134 181.202 450.78 178.144 450.78C175.086 450.78 172.82 453.134 172.82 456.5C172.82 459.866 175.086 462.22 178.144 462.22C180.564 462.22 182.478 460.9 183.16 458.7H181.752C181.18 460.152 179.882 461.054 178.188 461.054C175.9 461.054 174.294 459.47 174.118 456.962H183.446C183.468 456.808 183.468 456.654 183.468 456.5ZM178.144 451.946C180.388 451.946 181.994 453.508 182.17 455.994H174.118C174.316 453.508 175.9 451.946 178.144 451.946ZM187.503 456.104C187.503 453.266 188.801 451.946 190.869 451.946C192.937 451.946 194.235 453.266 194.235 456.104V462H195.555V455.818C195.555 452.298 193.707 450.78 191.221 450.78C189.549 450.78 188.185 451.55 187.503 453.156V451H186.183V462H187.503V456.104ZM207.5 455.378H208.864C208.556 452.628 206.334 450.78 203.54 450.78C200.46 450.78 198.15 453.134 198.15 456.5C198.15 459.866 200.46 462.22 203.54 462.22C206.422 462.22 208.688 460.262 208.908 457.38H207.544C207.302 459.646 205.608 461.01 203.54 461.01C201.208 461.01 199.47 459.206 199.47 456.5C199.47 453.794 201.208 451.99 203.54 451.99C205.542 451.99 207.214 453.266 207.5 455.378ZM212.962 456.676C212.962 453.574 214.392 452.122 216.768 452.122C217.23 452.122 217.648 452.188 218 452.32V450.912C217.714 450.824 217.362 450.78 217.01 450.78C215.184 450.78 213.71 451.638 212.962 453.442V451H211.642V462H212.962V456.676ZM224.849 463.43L229.557 451H228.215L224.277 461.604L220.229 451H218.887L223.639 463.32C222.825 465.41 222.143 466.422 220.427 466.422C219.899 466.422 219.393 466.334 218.997 466.18V467.368C219.393 467.5 219.965 467.588 220.559 467.588C223.067 467.588 223.947 465.872 224.849 463.43ZM237.102 462.22C240.094 462.22 242.36 459.866 242.36 456.5C242.36 453.134 240.094 450.78 237.102 450.78C235.276 450.78 233.736 451.748 232.856 453.332V451H231.536V467.5H232.856V459.668C233.736 461.252 235.276 462.22 237.102 462.22ZM236.948 461.01C234.616 461.01 232.856 459.206 232.856 456.5C232.856 453.794 234.616 451.99 236.948 451.99C239.28 451.99 241.04 453.794 241.04 456.5C241.04 459.206 239.28 461.01 236.948 461.01ZM246.92 458.238V452.166H250.704V451H246.92V447.832H245.6V451H243.708V452.166H245.6V458.304C245.6 461.34 247.052 462.22 249.054 462.22C249.648 462.22 250.33 462.088 250.704 461.978V460.768C250.352 460.9 249.912 461.01 249.252 461.01C247.69 461.01 246.92 460.152 246.92 458.238ZM263.282 456.5C263.282 453.134 261.016 450.78 257.958 450.78C254.9 450.78 252.634 453.134 252.634 456.5C252.634 459.866 254.9 462.22 257.958 462.22C260.378 462.22 262.292 460.9 262.974 458.7H261.566C260.994 460.152 259.696 461.054 258.002 461.054C255.714 461.054 254.108 459.47 253.932 456.962H263.26C263.282 456.808 263.282 456.654 263.282 456.5ZM257.958 451.946C260.202 451.946 261.808 453.508 261.984 455.994H253.932C254.13 453.508 255.714 451.946 257.958 451.946ZM274.599 462H275.919V445.5H274.599V453.332C273.719 451.748 272.179 450.78 270.353 450.78C267.361 450.78 265.095 453.134 265.095 456.5C265.095 459.866 267.361 462.22 270.353 462.22C272.179 462.22 273.719 461.252 274.599 459.668V462ZM270.507 451.99C272.839 451.99 274.599 453.794 274.599 456.5C274.599 459.206 272.839 461.01 270.507 461.01C268.175 461.01 266.415 459.206 266.415 456.5C266.415 453.794 268.175 451.99 270.507 451.99ZM291.951 462H293.249V454.212C293.249 451.726 291.137 450.78 288.849 450.78C286.517 450.78 284.317 451.836 284.317 454.608H285.659C285.659 452.782 287.001 451.858 288.849 451.858C290.609 451.858 291.929 452.628 291.929 454.168C291.929 457.292 283.987 454.366 283.987 459.184C283.987 461.252 285.725 462.22 287.837 462.22C289.531 462.22 291.181 461.472 291.951 459.756V462ZM285.329 459.118C285.329 456.302 290.037 457.468 291.951 456.104V457.468C291.951 459.844 290.037 461.098 288.057 461.098C286.451 461.098 285.329 460.46 285.329 459.118ZM304.531 462H305.851V451H304.531V456.764C304.531 459.69 303.277 461.054 301.209 461.054C299.163 461.054 297.909 459.69 297.909 456.764V451H296.589V457.05C296.589 460.658 298.437 462.22 300.879 462.22C302.507 462.22 303.849 461.45 304.531 459.8V462ZM311.308 458.238V452.166H315.092V451H311.308V447.832H309.988V451H308.096V452.166H309.988V458.304C309.988 461.34 311.44 462.22 313.442 462.22C314.036 462.22 314.718 462.088 315.092 461.978V460.768C314.74 460.9 314.3 461.01 313.64 461.01C312.078 461.01 311.308 460.152 311.308 458.238ZM319.353 456.104C319.353 453.266 320.651 451.946 322.719 451.946C324.787 451.946 326.085 453.266 326.085 456.104V462H327.405V455.818C327.405 452.298 325.557 450.78 323.071 450.78C321.399 450.78 320.035 451.55 319.353 453.156V445.5H318.033V462H319.353V456.104ZM335.478 462.22C338.602 462.22 340.956 459.866 340.956 456.5C340.956 453.134 338.602 450.78 335.478 450.78C332.354 450.78 330 453.134 330 456.5C330 459.866 332.354 462.22 335.478 462.22ZM335.478 461.01C333.102 461.01 331.32 459.206 331.32 456.5C331.32 453.794 333.102 451.99 335.478 451.99C337.854 451.99 339.636 453.794 339.636 456.5C339.636 459.206 337.854 461.01 335.478 461.01ZM344.983 456.676C344.983 453.574 346.413 452.122 348.789 452.122C349.251 452.122 349.669 452.188 350.021 452.32V450.912C349.735 450.824 349.383 450.78 349.031 450.78C347.205 450.78 345.731 451.638 344.983 453.442V451H343.663V462H344.983V456.676ZM368.216 456.5C368.216 453.134 365.95 450.78 362.958 450.78C361.132 450.78 359.592 451.748 358.712 453.332V445.5H357.392V462H358.712V459.668C359.592 461.252 361.132 462.22 362.958 462.22C365.95 462.22 368.216 459.866 368.216 456.5ZM362.804 451.99C365.136 451.99 366.896 453.794 366.896 456.5C366.896 459.206 365.136 461.01 362.804 461.01C360.472 461.01 358.712 459.206 358.712 456.5C358.712 453.794 360.472 451.99 362.804 451.99ZM375.261 463.43L379.969 451H378.627L374.689 461.604L370.641 451H369.299L374.051 463.32C373.237 465.41 372.555 466.422 370.839 466.422C370.311 466.422 369.805 466.334 369.409 466.18V467.368C369.805 467.5 370.377 467.588 370.971 467.588C373.479 467.588 374.359 465.872 375.261 463.43ZM383.269 462V445.5H381.949V462H383.269ZM387.528 448.184C388.166 448.184 388.606 447.722 388.606 447.106C388.606 446.49 388.166 446.028 387.528 446.028C386.912 446.028 386.45 446.49 386.45 447.106C386.45 447.722 386.912 448.184 387.528 448.184ZM388.188 462V451H386.868V462H388.188ZM393.108 456.104C393.108 453.266 394.406 451.946 396.474 451.946C398.542 451.946 399.84 453.266 399.84 456.104V462H401.16V455.818C401.16 452.298 399.312 450.78 396.826 450.78C395.154 450.78 393.79 451.55 393.108 453.156V451H391.788V462H393.108V456.104ZM414.404 456.5C414.404 453.134 412.138 450.78 409.08 450.78C406.022 450.78 403.756 453.134 403.756 456.5C403.756 459.866 406.022 462.22 409.08 462.22C411.5 462.22 413.414 460.9 414.096 458.7H412.688C412.116 460.152 410.818 461.054 409.124 461.054C406.836 461.054 405.23 459.47 405.054 456.962H414.382C414.404 456.808 414.404 456.654 414.404 456.5ZM409.08 451.946C411.324 451.946 412.93 453.508 413.106 455.994H405.054C405.252 453.508 406.836 451.946 409.08 451.946ZM425.258 459.03C425.258 454.608 418.042 456.896 418.042 453.772C418.042 452.562 419.098 451.858 420.704 451.858C422.398 451.858 423.63 452.826 423.63 454.124H424.994C424.994 452.21 423.168 450.78 420.704 450.78C418.438 450.78 416.722 451.902 416.722 453.816C416.722 458.15 423.916 455.774 423.916 459.074C423.916 460.46 422.838 461.164 421.034 461.164C419.208 461.164 417.822 460.306 417.822 458.634H416.458C416.458 460.944 418.416 462.22 421.034 462.22C423.52 462.22 425.258 461.076 425.258 459.03Z" fill="black"/>
<path d="M0.22 525.71H4.114V541H5.434V525.71H9.328V524.5H0.22V525.71ZM14.8234 541.22C17.9474 541.22 20.3014 538.866 20.3014 535.5C20.3014 532.134 17.9474 529.78 14.8234 529.78C11.6994 529.78 9.34536 532.134 9.34536 535.5C9.34536 538.866 11.6994 541.22 14.8234 541.22ZM14.8234 540.01C12.4474 540.01 10.6654 538.206 10.6654 535.5C10.6654 532.794 12.4474 530.99 14.8234 530.99C17.1994 530.99 18.9814 532.794 18.9814 535.5C18.9814 538.206 17.1994 540.01 14.8234 540.01ZM30.7311 541H32.4911L27.2991 534.664L31.8971 530H30.1371L24.3291 535.874V524.5H23.0091V541H24.3291V537.392L26.1991 535.5L30.7311 541ZM43.6477 535.5C43.6477 532.134 41.3817 529.78 38.3237 529.78C35.2657 529.78 32.9997 532.134 32.9997 535.5C32.9997 538.866 35.2657 541.22 38.3237 541.22C40.7437 541.22 42.6577 539.9 43.3397 537.7H41.9317C41.3597 539.152 40.0617 540.054 38.3677 540.054C36.0797 540.054 34.4737 538.47 34.2977 535.962H43.6257C43.6477 535.808 43.6477 535.654 43.6477 535.5ZM38.3237 530.946C40.5677 530.946 42.1737 532.508 42.3497 534.994H34.2977C34.4957 532.508 36.0797 530.946 38.3237 530.946ZM47.6826 535.104C47.6826 532.266 48.9806 530.946 51.0486 530.946C53.1166 530.946 54.4146 532.266 54.4146 535.104V541H55.7346V534.818C55.7346 531.298 53.8866 529.78 51.4006 529.78C49.7286 529.78 48.3646 530.55 47.6826 532.156V530H46.3626V541H47.6826V535.104ZM74.224 541.264V530H72.904V532.332C72.024 530.748 70.484 529.78 68.658 529.78C65.666 529.78 63.4 532.134 63.4 535.5C63.4 538.866 65.666 541.22 68.658 541.22C70.484 541.22 72.024 540.252 72.904 538.668V541.264C72.904 543.75 71.452 545.488 68.988 545.488C66.898 545.488 65.446 544.168 65.094 542.144H63.752C64.126 544.872 66.216 546.72 68.988 546.72C71.936 546.72 74.224 544.586 74.224 541.264ZM68.812 540.01C66.48 540.01 64.72 538.206 64.72 535.5C64.72 532.794 66.48 530.99 68.812 530.99C71.144 530.99 72.904 532.794 72.904 535.5C72.904 538.206 71.144 540.01 68.812 540.01ZM85.1852 541H86.4832V533.212C86.4832 530.726 84.3712 529.78 82.0832 529.78C79.7512 529.78 77.5512 530.836 77.5512 533.608H78.8932C78.8932 531.782 80.2352 530.858 82.0832 530.858C83.8432 530.858 85.1632 531.628 85.1632 533.168C85.1632 536.292 77.2212 533.366 77.2212 538.184C77.2212 540.252 78.9592 541.22 81.0712 541.22C82.7652 541.22 84.4152 540.472 85.1852 538.756V541ZM78.5632 538.118C78.5632 535.302 83.2712 536.468 85.1852 535.104V536.468C85.1852 538.844 83.2712 540.098 81.2912 540.098C79.6852 540.098 78.5632 539.46 78.5632 538.118ZM91.7809 537.238V531.166H95.5649V530H91.7809V526.832H90.4609V530H88.5689V531.166H90.4609V537.304C90.4609 540.34 91.9129 541.22 93.9149 541.22C94.5089 541.22 95.1909 541.088 95.5649 540.978V539.768C95.2129 539.9 94.7729 540.01 94.1129 540.01C92.5509 540.01 91.7809 539.152 91.7809 537.238ZM108.144 535.5C108.144 532.134 105.878 529.78 102.82 529.78C99.7618 529.78 97.4958 532.134 97.4958 535.5C97.4958 538.866 99.7618 541.22 102.82 541.22C105.24 541.22 107.154 539.9 107.836 537.7H106.428C105.856 539.152 104.558 540.054 102.864 540.054C100.576 540.054 98.9698 538.47 98.7938 535.962H108.122C108.144 535.808 108.144 535.654 108.144 535.5ZM102.82 530.946C105.064 530.946 106.67 532.508 106.846 534.994H98.7938C98.9918 532.508 100.576 530.946 102.82 530.946ZM124.069 538.03C124.069 533.608 116.853 535.896 116.853 532.772C116.853 531.562 117.909 530.858 119.515 530.858C121.209 530.858 122.441 531.826 122.441 533.124H123.805C123.805 531.21 121.979 529.78 119.515 529.78C117.249 529.78 115.533 530.902 115.533 532.816C115.533 537.15 122.727 534.774 122.727 538.074C122.727 539.46 121.649 540.164 119.845 540.164C118.019 540.164 116.633 539.306 116.633 537.634H115.269C115.269 539.944 117.227 541.22 119.845 541.22C122.331 541.22 124.069 540.076 124.069 538.03ZM132.581 541.22C135.573 541.22 137.839 538.866 137.839 535.5C137.839 532.134 135.573 529.78 132.581 529.78C130.755 529.78 129.215 530.748 128.335 532.332V530H127.015V546.5H128.335V538.668C129.215 540.252 130.755 541.22 132.581 541.22ZM132.427 540.01C130.095 540.01 128.335 538.206 128.335 535.5C128.335 532.794 130.095 530.99 132.427 530.99C134.759 530.99 136.519 532.794 136.519 535.5C136.519 538.206 134.759 540.01 132.427 540.01ZM150.296 535.5C150.296 532.134 148.03 529.78 144.972 529.78C141.914 529.78 139.648 532.134 139.648 535.5C139.648 538.866 141.914 541.22 144.972 541.22C147.392 541.22 149.306 539.9 149.988 537.7H148.58C148.008 539.152 146.71 540.054 145.016 540.054C142.728 540.054 141.122 538.47 140.946 535.962H150.274C150.296 535.808 150.296 535.654 150.296 535.5ZM144.972 530.946C147.216 530.946 148.822 532.508 148.998 534.994H140.946C141.144 532.508 142.728 530.946 144.972 530.946ZM161.459 534.378H162.823C162.515 531.628 160.293 529.78 157.499 529.78C154.419 529.78 152.109 532.134 152.109 535.5C152.109 538.866 154.419 541.22 157.499 541.22C160.381 541.22 162.647 539.262 162.867 536.38H161.503C161.261 538.646 159.567 540.01 157.499 540.01C155.167 540.01 153.429 538.206 153.429 535.5C153.429 532.794 155.167 530.99 157.499 530.99C159.501 530.99 161.173 532.266 161.459 534.378ZM166.261 527.184C166.899 527.184 167.339 526.722 167.339 526.106C167.339 525.49 166.899 525.028 166.261 525.028C165.645 525.028 165.183 525.49 165.183 526.106C165.183 526.722 165.645 527.184 166.261 527.184ZM166.921 541V530H165.601V541H166.921ZM172.633 528.24C172.633 526.326 173.447 525.49 174.899 525.49C175.471 525.49 175.999 525.534 176.461 525.732V524.5C175.933 524.324 175.427 524.28 174.789 524.28C172.677 524.28 171.313 525.556 171.313 528.174V530H169.157V531.166H171.313V541H172.633V531.166H178.265V541H179.585V530H172.633V528.24ZM178.925 527.184C179.563 527.184 180.003 526.722 180.003 526.106C180.003 525.49 179.563 525.028 178.925 525.028C178.309 525.028 177.847 525.49 177.847 526.106C177.847 526.722 178.309 527.184 178.925 527.184ZM192.943 535.5C192.943 532.134 190.677 529.78 187.619 529.78C184.561 529.78 182.295 532.134 182.295 535.5C182.295 538.866 184.561 541.22 187.619 541.22C190.039 541.22 191.953 539.9 192.635 537.7H191.227C190.655 539.152 189.357 540.054 187.663 540.054C185.375 540.054 183.769 538.47 183.593 535.962H192.921C192.943 535.808 192.943 535.654 192.943 535.5ZM187.619 530.946C189.863 530.946 191.469 532.508 191.645 534.994H183.593C183.791 532.508 185.375 530.946 187.619 530.946ZM204.26 541H205.58V524.5H204.26V532.332C203.38 530.748 201.84 529.78 200.014 529.78C197.022 529.78 194.756 532.134 194.756 535.5C194.756 538.866 197.022 541.22 200.014 541.22C201.84 541.22 203.38 540.252 204.26 538.668V541ZM200.168 530.99C202.5 530.99 204.26 532.794 204.26 535.5C204.26 538.206 202.5 540.01 200.168 540.01C197.836 540.01 196.076 538.206 196.076 535.5C196.076 532.794 197.836 530.99 200.168 530.99ZM222.711 534.378H224.075C223.767 531.628 221.545 529.78 218.751 529.78C215.671 529.78 213.361 532.134 213.361 535.5C213.361 538.866 215.671 541.22 218.751 541.22C221.633 541.22 223.899 539.262 224.119 536.38H222.755C222.513 538.646 220.819 540.01 218.751 540.01C216.419 540.01 214.681 538.206 214.681 535.5C214.681 532.794 216.419 530.99 218.751 530.99C220.753 530.99 222.425 532.266 222.711 534.378ZM231.429 541.22C234.553 541.22 236.907 538.866 236.907 535.5C236.907 532.134 234.553 529.78 231.429 529.78C228.305 529.78 225.951 532.134 225.951 535.5C225.951 538.866 228.305 541.22 231.429 541.22ZM231.429 540.01C229.053 540.01 227.271 538.206 227.271 535.5C227.271 532.794 229.053 530.99 231.429 530.99C233.805 530.99 235.587 532.794 235.587 535.5C235.587 538.206 233.805 540.01 231.429 540.01ZM240.935 535.104C240.935 532.266 242.233 530.946 244.301 530.946C246.369 530.946 247.667 532.266 247.667 535.104V541H248.987V534.818C248.987 531.298 247.139 529.78 244.653 529.78C242.981 529.78 241.617 530.55 240.935 532.156V530H239.615V541H240.935V535.104ZM254.332 537.238V531.166H258.116V530H254.332V526.832H253.012V530H251.12V531.166H253.012V537.304C253.012 540.34 254.464 541.22 256.466 541.22C257.06 541.22 257.742 541.088 258.116 540.978V539.768C257.764 539.9 257.324 540.01 256.664 540.01C255.102 540.01 254.332 539.152 254.332 537.238ZM270.695 535.5C270.695 532.134 268.429 529.78 265.371 529.78C262.313 529.78 260.047 532.134 260.047 535.5C260.047 538.866 262.313 541.22 265.371 541.22C267.791 541.22 269.705 539.9 270.387 537.7H268.979C268.407 539.152 267.109 540.054 265.415 540.054C263.127 540.054 261.521 538.47 261.345 535.962H270.673C270.695 535.808 270.695 535.654 270.695 535.5ZM265.371 530.946C267.615 530.946 269.221 532.508 269.397 534.994H261.345C261.543 532.508 263.127 530.946 265.371 530.946ZM274.729 535.104C274.729 532.266 276.027 530.946 278.095 530.946C280.163 530.946 281.461 532.266 281.461 535.104V541H282.781V534.818C282.781 531.298 280.933 529.78 278.447 529.78C276.775 529.78 275.411 530.55 274.729 532.156V530H273.409V541H274.729V535.104ZM288.127 537.238V531.166H291.911V530H288.127V526.832H286.807V530H284.915V531.166H286.807V537.304C286.807 540.34 288.259 541.22 290.261 541.22C290.855 541.22 291.537 541.088 291.911 540.978V539.768C291.559 539.9 291.119 540.01 290.459 540.01C288.897 540.01 288.127 539.152 288.127 537.238Z" fill="black"/>
<rect x="552" width="166" height="574.043" rx="10" fill="#DED1F7"/>
<path d="M618.123 43.5H615.901L612.777 58.24L609.653 43.5H607.431L611.127 60H614.427L618.123 43.5ZM629.59 54.5C629.59 51.134 627.302 48.78 624.178 48.78C621.054 48.78 618.766 51.134 618.766 54.5C618.766 57.866 621.054 60.22 624.178 60.22C626.708 60.22 628.622 58.966 629.304 56.7H626.928C626.488 57.69 625.608 58.284 624.266 58.284C622.418 58.284 621.186 57.162 620.922 55.248H629.546C629.568 55.006 629.59 54.764 629.59 54.5ZM624.178 50.716C625.938 50.716 627.148 51.816 627.412 53.664H620.944C621.208 51.816 622.396 50.716 624.178 50.716ZM634.241 54.478C634.241 52.212 635.473 51.068 637.585 51.068C638.025 51.068 638.421 51.134 638.751 51.244V48.846C638.575 48.802 638.311 48.78 638.047 48.78C636.375 48.78 635.033 49.55 634.241 50.98V49H632.041V60H634.241V54.478ZM649.406 56.898C649.406 52.41 642.696 54.368 642.696 51.926C642.696 51.046 643.488 50.54 644.676 50.54C645.952 50.54 646.898 51.31 646.898 52.366H649.186C649.186 50.342 647.25 48.78 644.676 48.78C642.3 48.78 640.474 50.012 640.474 52.014C640.474 56.436 647.14 54.324 647.14 56.986C647.14 57.976 646.348 58.482 645.006 58.482C643.598 58.482 642.542 57.8 642.542 56.458H640.254C640.254 58.856 642.3 60.22 645.006 60.22C647.558 60.22 649.406 58.966 649.406 56.898ZM662.01 54.5C662.01 51.134 659.722 48.78 656.598 48.78C653.474 48.78 651.186 51.134 651.186 54.5C651.186 57.866 653.474 60.22 656.598 60.22C659.128 60.22 661.042 58.966 661.724 56.7H659.348C658.908 57.69 658.028 58.284 656.686 58.284C654.838 58.284 653.606 57.162 653.342 55.248H661.966C661.988 55.006 662.01 54.764 662.01 54.5ZM656.598 50.716C658.358 50.716 659.568 51.816 659.832 53.664H653.364C653.628 51.816 654.816 50.716 656.598 50.716Z" fill="black"/>
<path d="M625.691 137.272C625.301 136.882 624.668 136.882 624.277 137.272C623.887 137.663 623.887 138.296 624.277 138.687L625.691 137.272ZM630.449 144.859L631.157 145.566L632.571 144.152L631.864 143.445L630.449 144.859ZM624.277 138.687L630.449 144.859L631.864 143.445L625.691 137.272L624.277 138.687Z" fill="black"/>
<path d="M645.723 131.707C646.113 131.317 646.113 130.683 645.723 130.293C645.332 129.902 644.699 129.902 644.309 130.293L645.723 131.707ZM630.801 143.8L630.094 144.507L631.508 145.921L632.216 145.214L630.801 143.8ZM644.309 130.293L630.801 143.8L632.216 145.214L645.723 131.707L644.309 130.293Z" fill="black"/>
<path d="M625.691 215.779C625.301 215.389 624.668 215.389 624.277 215.779C623.887 216.17 623.887 216.803 624.277 217.194L625.691 215.779ZM630.449 223.366L631.157 224.073L632.571 222.659L631.864 221.952L630.449 223.366ZM624.277 217.194L630.449 223.366L631.864 221.952L625.691 215.779L624.277 217.194Z" fill="black"/>
<path d="M645.723 210.214C646.113 209.824 646.113 209.19 645.723 208.8C645.332 208.409 644.699 208.409 644.309 208.8L645.723 210.214ZM630.801 222.307L630.094 223.014L631.508 224.428L632.216 223.721L630.801 222.307ZM644.309 208.8L630.801 222.307L632.216 223.721L645.723 210.214L644.309 208.8Z" fill="black"/>
<path d="M625.691 294.287C625.301 293.896 624.668 293.896 624.277 294.287C623.887 294.677 623.887 295.31 624.277 295.701L625.691 294.287ZM630.449 301.873L631.157 302.58L632.571 301.166L631.864 300.459L630.449 301.873ZM624.277 295.701L630.449 301.873L631.864 300.459L625.691 294.287L624.277 295.701Z" fill="black"/>
<path d="M645.723 288.721C646.113 288.331 646.113 287.698 645.723 287.307C645.332 286.917 644.699 286.917 644.309 287.307L645.723 288.721ZM630.801 300.814L630.094 301.521L631.508 302.936L632.216 302.228L630.801 300.814ZM644.309 287.307L630.801 300.814L632.216 302.228L645.723 288.721L644.309 287.307Z" fill="black"/>
<path d="M625.691 372.794C625.301 372.403 624.668 372.403 624.277 372.794C623.887 373.184 623.887 373.818 624.277 374.208L625.691 372.794ZM630.449 380.38L631.157 381.087L632.571 379.673L631.864 378.966L630.449 380.38ZM624.277 374.208L630.449 380.38L631.864 378.966L625.691 372.794L624.277 374.208Z" fill="black"/>
<path d="M645.723 367.229C646.113 366.838 646.113 366.205 645.723 365.814C645.332 365.424 644.699 365.424 644.309 365.814L645.723 367.229ZM630.801 379.322L630.094 380.029L631.508 381.443L632.216 380.736L630.801 379.322ZM644.309 365.814L630.801 379.322L632.216 380.736L645.723 367.229L644.309 365.814Z" fill="black"/>
<path d="M625.691 451.301C625.301 450.91 624.668 450.91 624.277 451.301C623.887 451.691 623.887 452.325 624.277 452.715L625.691 451.301ZM630.449 458.887L631.157 459.594L632.571 458.18L631.864 457.473L630.449 458.887ZM624.277 452.715L630.449 458.887L631.864 457.473L625.691 451.301L624.277 452.715Z" fill="black"/>
<path d="M645.723 445.736C646.113 445.345 646.113 444.712 645.723 444.321C645.332 443.931 644.699 443.931 644.309 444.321L645.723 445.736ZM630.801 457.829L630.094 458.536L631.508 459.95L632.216 459.243L630.801 457.829ZM644.309 444.321L630.801 457.829L632.216 459.243L645.723 445.736L644.309 444.321Z" fill="black"/>
<path d="M625.691 529.808C625.301 529.418 624.668 529.418 624.277 529.808C623.887 530.199 623.887 530.832 624.277 531.222L625.691 529.808ZM630.449 537.394L631.157 538.102L632.571 536.687L631.864 535.98L630.449 537.394ZM624.277 531.222L630.449 537.394L631.864 535.98L625.691 529.808L624.277 531.222Z" fill="black"/>
<path d="M645.723 524.243C646.113 523.852 646.113 523.219 645.723 522.829C645.332 522.438 644.699 522.438 644.309 522.829L645.723 524.243ZM630.801 536.336L630.094 537.043L631.508 538.457L632.216 537.75L630.801 536.336ZM644.309 522.829L630.801 536.336L632.216 537.75L645.723 524.243L644.309 522.829Z" fill="black"/>
<rect x="752" width="160" height="574" rx="10" fill="#F3F0F8"/>
<path d="M786.481 47.328C786.481 49.528 787.691 50.826 789.187 51.86L790.925 53.07C792.047 53.84 792.883 54.72 792.883 56.084C792.883 57.404 792.025 58.196 790.661 58.196C789.319 58.196 788.439 57.228 788.439 55.666V54.588H786.239V55.82C786.239 58.658 788.219 60.22 790.661 60.22C793.103 60.22 795.083 58.768 795.083 55.82C795.083 53.686 793.873 52.432 792.399 51.398L790.617 50.122C789.539 49.396 788.681 48.626 788.681 47.328C788.681 46.008 789.473 45.304 790.639 45.304C791.871 45.304 792.641 46.052 792.641 47.746V48.692H794.841V47.68C794.841 44.71 792.993 43.28 790.639 43.28C788.351 43.28 786.481 44.446 786.481 47.328ZM804.881 60H807.081V49H804.881V54.962C804.881 57.162 803.891 58.284 802.285 58.284C800.657 58.284 799.667 57.162 799.667 54.962V49H797.467V55.402C797.467 58.68 799.249 60.22 801.603 60.22C803.033 60.22 804.199 59.538 804.881 58.24V60ZM821.427 54.5C821.427 51.134 819.161 48.78 816.147 48.78C814.673 48.78 813.397 49.484 812.539 50.65V43.5H810.339V60H812.539V58.35C813.397 59.516 814.673 60.22 816.147 60.22C819.161 60.22 821.427 57.866 821.427 54.5ZM815.883 50.804C817.797 50.804 819.227 52.278 819.227 54.5C819.227 56.722 817.797 58.196 815.883 58.196C813.969 58.196 812.539 56.722 812.539 54.5C812.539 52.278 813.969 50.804 815.883 50.804ZM832.366 56.898C832.366 52.41 825.656 54.368 825.656 51.926C825.656 51.046 826.448 50.54 827.636 50.54C828.912 50.54 829.858 51.31 829.858 52.366H832.146C832.146 50.342 830.21 48.78 827.636 48.78C825.26 48.78 823.434 50.012 823.434 52.014C823.434 56.436 830.1 54.324 830.1 56.986C830.1 57.976 829.308 58.482 827.966 58.482C826.558 58.482 825.502 57.8 825.502 56.458H823.214C823.214 58.856 825.26 60.22 827.966 60.22C830.518 60.22 832.366 58.966 832.366 56.898ZM837.776 56.238V50.936H840.944V49H837.776V45.744H835.576V49H833.772V50.936H835.576V56.37C835.576 59.362 837.116 60.22 839.228 60.22C839.866 60.22 840.548 60.088 840.944 59.956V57.998C840.57 58.13 840.13 58.196 839.646 58.196C838.37 58.196 837.776 57.602 837.776 56.238ZM850.418 60H852.574V52.3C852.574 49.748 850.374 48.78 847.998 48.78C845.578 48.78 843.29 49.858 843.29 52.696H845.578C845.578 51.266 846.568 50.54 847.998 50.54C849.34 50.54 850.374 51.134 850.374 52.212C850.374 54.72 842.96 52.344 842.96 57.096C842.96 59.274 844.742 60.22 846.7 60.22C848.284 60.22 849.692 59.604 850.418 58.152V60ZM845.204 56.964C845.204 55.116 848.548 55.578 850.418 54.676V55.468C850.418 57.382 848.834 58.372 847.14 58.372C846.018 58.372 845.204 57.91 845.204 56.964ZM863.438 53.378H865.726C865.462 50.628 863.196 48.78 860.292 48.78C857.146 48.78 854.814 51.134 854.814 54.5C854.814 57.866 857.146 60.22 860.292 60.22C863.284 60.22 865.594 58.284 865.77 55.38H863.482C863.262 57.206 861.898 58.196 860.292 58.196C858.422 58.196 857.014 56.722 857.014 54.5C857.014 52.278 858.422 50.804 860.292 50.804C861.876 50.804 863.218 51.706 863.438 53.378ZM875.676 60H878.47L872.904 54.016L878.074 49H875.148L870.418 53.884V43.5H868.218V60H870.418V54.214L875.676 60Z" fill="black"/>
<path d="M822.707 136.272C822.317 135.882 821.683 135.882 821.293 136.272C820.902 136.663 820.902 137.296 821.293 137.687L822.707 136.272ZM827.465 143.859L828.172 144.566L829.586 143.152L828.879 142.445L827.465 143.859ZM821.293 137.687L827.465 143.859L828.879 142.445L822.707 136.272L821.293 137.687Z" fill="black"/>
<path d="M842.738 130.707C843.129 130.317 843.129 129.683 842.738 129.293C842.348 128.902 841.715 128.902 841.324 129.293L842.738 130.707ZM827.817 142.8L827.11 143.507L828.524 144.921L829.231 144.214L827.817 142.8ZM841.324 129.293L827.817 142.8L829.231 144.214L842.738 130.707L841.324 129.293Z" fill="black"/>
<path d="M822.691 293.779C822.301 293.389 821.668 293.389 821.277 293.779C820.887 294.17 820.887 294.803 821.277 295.194L822.691 293.779ZM827.449 301.366L828.157 302.073L829.571 300.659L828.864 299.952L827.449 301.366ZM821.277 295.194L827.449 301.366L828.864 299.952L822.691 293.779L821.277 295.194Z" fill="black"/>
<path d="M842.723 288.214C843.113 287.824 843.113 287.19 842.723 286.8C842.332 286.409 841.699 286.409 841.309 286.8L842.723 288.214ZM827.801 300.307L827.094 301.014L828.508 302.428L829.216 301.721L827.801 300.307ZM841.309 286.8L827.801 300.307L829.216 301.721L842.723 288.214L841.309 286.8Z" fill="black"/>
<rect x="952" width="169" height="574" rx="10" fill="#F3F0F8"/>
<path d="M999.467 43.5H997.267L995.243 57.822L993.087 43.5H989.787L987.631 57.822L985.607 43.5H983.407L985.937 60H989.237L991.437 45.392L993.637 60H996.937L999.467 43.5ZM1005.85 60.22C1009.04 60.22 1011.42 57.866 1011.42 54.5C1011.42 51.134 1009.04 48.78 1005.85 48.78C1002.66 48.78 1000.29 51.134 1000.29 54.5C1000.29 57.866 1002.66 60.22 1005.85 60.22ZM1005.85 58.196C1003.94 58.196 1002.49 56.722 1002.49 54.5C1002.49 52.278 1003.94 50.804 1005.85 50.804C1007.77 50.804 1009.22 52.278 1009.22 54.5C1009.22 56.722 1007.77 58.196 1005.85 58.196ZM1016.06 54.478C1016.06 52.212 1017.29 51.068 1019.41 51.068C1019.85 51.068 1020.24 51.134 1020.57 51.244V48.846C1020.4 48.802 1020.13 48.78 1019.87 48.78C1018.2 48.78 1016.85 49.55 1016.06 50.98V49H1013.86V60H1016.06V54.478ZM1030.81 60H1033.01V43.5H1030.81V50.65C1029.95 49.484 1028.67 48.78 1027.2 48.78C1024.19 48.78 1021.92 51.134 1021.92 54.5C1021.92 57.866 1024.19 60.22 1027.2 60.22C1028.67 60.22 1029.95 59.516 1030.81 58.35V60ZM1027.46 50.804C1029.38 50.804 1030.81 52.278 1030.81 54.5C1030.81 56.722 1029.38 58.196 1027.46 58.196C1025.55 58.196 1024.12 56.722 1024.12 54.5C1024.12 52.278 1025.55 50.804 1027.46 50.804ZM1036.27 60H1038.47V53.708H1041.04C1043.71 53.708 1045.6 52.08 1045.6 49.088V47.9C1045.6 45.018 1043.71 43.5 1041.04 43.5H1036.27V60ZM1040.82 45.524C1042.41 45.524 1043.4 46.25 1043.4 48.12V48.868C1043.4 50.87 1042.41 51.684 1040.82 51.684H1038.47V45.524H1040.82ZM1050.14 54.478C1050.14 52.212 1051.37 51.068 1053.48 51.068C1053.92 51.068 1054.32 51.134 1054.65 51.244V48.846C1054.47 48.802 1054.21 48.78 1053.94 48.78C1052.27 48.78 1050.93 49.55 1050.14 50.98V49H1047.94V60H1050.14V54.478ZM1066.82 54.5C1066.82 51.134 1064.53 48.78 1061.41 48.78C1058.28 48.78 1055.99 51.134 1055.99 54.5C1055.99 57.866 1058.28 60.22 1061.41 60.22C1063.94 60.22 1065.85 58.966 1066.53 56.7H1064.16C1063.72 57.69 1062.84 58.284 1061.49 58.284C1059.65 58.284 1058.41 57.162 1058.15 55.248H1066.77C1066.8 55.006 1066.82 54.764 1066.82 54.5ZM1061.41 50.716C1063.17 50.716 1064.38 51.816 1064.64 53.664H1058.17C1058.44 51.816 1059.62 50.716 1061.41 50.716ZM1077.76 56.898C1077.76 52.41 1071.05 54.368 1071.05 51.926C1071.05 51.046 1071.84 50.54 1073.03 50.54C1074.31 50.54 1075.25 51.31 1075.25 52.366H1077.54C1077.54 50.342 1075.61 48.78 1073.03 48.78C1070.66 48.78 1068.83 50.012 1068.83 52.014C1068.83 56.436 1075.5 54.324 1075.5 56.986C1075.5 57.976 1074.7 58.482 1073.36 58.482C1071.95 58.482 1070.9 57.8 1070.9 56.458H1068.61C1068.61 58.856 1070.66 60.22 1073.36 60.22C1075.91 60.22 1077.76 58.966 1077.76 56.898ZM1088.85 56.898C1088.85 52.41 1082.14 54.368 1082.14 51.926C1082.14 51.046 1082.93 50.54 1084.12 50.54C1085.39 50.54 1086.34 51.31 1086.34 52.366H1088.63C1088.63 50.342 1086.69 48.78 1084.12 48.78C1081.74 48.78 1079.92 50.012 1079.92 52.014C1079.92 56.436 1086.58 54.324 1086.58 56.986C1086.58 57.976 1085.79 58.482 1084.45 58.482C1083.04 58.482 1081.98 57.8 1081.98 56.458H1079.7C1079.7 58.856 1081.74 60.22 1084.45 60.22C1087 60.22 1088.85 58.966 1088.85 56.898Z" fill="black"/>
<path d="M1027.19 136.272C1026.8 135.882 1026.17 135.882 1025.78 136.272C1025.39 136.663 1025.39 137.296 1025.78 137.687L1027.19 136.272ZM1031.95 143.859L1032.66 144.566L1034.07 143.152L1033.36 142.445L1031.95 143.859ZM1025.78 137.687L1031.95 143.859L1033.36 142.445L1027.19 136.272L1025.78 137.687Z" fill="black"/>
<path d="M1047.22 130.707C1047.61 130.317 1047.61 129.683 1047.22 129.293C1046.83 128.902 1046.2 128.902 1045.81 129.293L1047.22 130.707ZM1032.3 142.8L1031.59 143.507L1033.01 144.921L1033.72 144.214L1032.3 142.8ZM1045.81 129.293L1032.3 142.8L1033.72 144.214L1047.22 130.707L1045.81 129.293Z" fill="black"/>
</svg>
