<svg width="323" height="267" viewBox="0 0 323 267" fill="none" xmlns="http://www.w3.org/2000/svg">
<path d="M0 11.7883C0 5.2778 5.27781 0 11.7883 0H311.212C317.722 0 323 5.27781 323 11.7883V33.0073H0V11.7883Z" fill="#DED1F7"/>
<path d="M0 43.6167H323V223.978H0V43.6167Z" fill="#DED1F7"/>
<path d="M323 254.628C323 261.138 317.722 266.416 311.212 266.416L11.7883 266.416C5.27783 266.416 4.61401e-07 261.138 1.03057e-06 254.628L2.88559e-06 233.409L323 233.409L323 254.628Z" fill="#DED1F7"/>
<rect x="22.3984" y="67.1934" width="60.1204" height="58.9416" rx="11.7883" fill="#FAFAFA"/>
<rect x="95.4844" y="67.1934" width="58.9416" height="58.9416" rx="11.7883" fill="#FAFAFA"/>
<rect x="168.574" y="67.1934" width="58.9416" height="58.9416" rx="11.7883" fill="#FAFAFA"/>
<rect x="240.48" y="67.1934" width="58.9416" height="58.9416" rx="11.7883" fill="#FAFAFA"/>
<rect x="22.3984" y="143.818" width="60.1204" height="58.9416" rx="11.7883" fill="#FAFAFA"/>
<rect x="95.4844" y="143.818" width="58.9416" height="58.9416" rx="11.7883" fill="#FAFAFA"/>
<rect x="168.574" y="143.818" width="60.1204" height="58.9416" rx="11.7883" fill="#FAFAFA"/>
<rect x="241.66" y="143.818" width="58.9416" height="58.9416" rx="11.7883" fill="#FAFAFA"/>
<circle cx="304.727" cy="17.0931" r="5.30474" fill="#FAFAFA"/>
<circle cx="290.582" cy="17.0931" r="5.30474" fill="#FAFAFA"/>
<path d="M138 75.2266C137.959 77.0188 140.727 79.5854 142.116 80.6447V73.8721C140.762 72.257 138.053 72.9864 138 75.2266Z" fill="#DDCDF7" stroke="#DDCDF7" stroke-width="0.1"/>
<path d="M146.285 75.2266C146.326 77.0188 143.558 79.5854 142.169 80.6447V73.8721C143.523 72.257 146.233 72.9864 146.285 75.2266Z" fill="#DDCDF7" stroke="#DDCDF7" stroke-width="0.1"/>
<path d="M213.571 75.2266C213.529 77.0188 216.297 79.5854 217.686 80.6447V73.8721C216.332 72.257 213.623 72.9864 213.571 75.2266Z" fill="#DDCDF7" stroke="#DDCDF7" stroke-width="0.1"/>
<path d="M221.855 75.2266C221.897 77.0188 219.129 79.5854 217.739 80.6447V73.8721C219.094 72.257 221.803 72.9864 221.855 75.2266Z" fill="#DDCDF7" stroke="#DDCDF7" stroke-width="0.1"/>
<path d="M67.0005 75.2266C66.9588 77.0188 69.7269 79.5854 71.1162 80.6447V73.8721C69.7617 72.257 67.0526 72.9864 67.0005 75.2266Z" fill="#DDCDF7" stroke="#DDCDF7" stroke-width="0.1"/>
<path d="M75.2847 75.2266C75.3264 77.0188 72.5583 79.5854 71.169 80.6447V73.8721C72.5235 72.257 75.2326 72.9864 75.2847 75.2266Z" fill="#DDCDF7" stroke="#DDCDF7" stroke-width="0.1"/>
<path d="M284.715 75.2266C284.674 77.0188 287.442 79.5854 288.831 80.6447V73.8721C287.477 72.257 284.767 72.9864 284.715 75.2266Z" fill="#DDCDF7" stroke="#DDCDF7" stroke-width="0.1"/>
<path d="M293 75.2266C293.041 77.0188 290.273 79.5854 288.884 80.6447V73.8721C290.238 72.257 292.947 72.9864 293 75.2266Z" fill="#DDCDF7" stroke="#DDCDF7" stroke-width="0.1"/>
<path d="M138 153.109C137.959 154.901 140.727 157.467 142.116 158.527V151.754C140.762 150.139 138.053 150.868 138 153.109Z" fill="#DDCDF7" stroke="#DDCDF7" stroke-width="0.1"/>
<path d="M146.285 153.109C146.326 154.901 143.558 157.467 142.169 158.527V151.754C143.523 150.139 146.233 150.868 146.285 153.109Z" fill="#DDCDF7" stroke="#DDCDF7" stroke-width="0.1"/>
<path d="M213.571 153.109C213.529 154.901 216.297 157.467 217.686 158.527V151.754C216.332 150.139 213.623 150.868 213.571 153.109Z" fill="#DDCDF7" stroke="#DDCDF7" stroke-width="0.1"/>
<path d="M221.855 153.109C221.897 154.901 219.129 157.467 217.739 158.527V151.754C219.094 150.139 221.803 150.868 221.855 153.109Z" fill="#DDCDF7" stroke="#DDCDF7" stroke-width="0.1"/>
<path d="M67.0005 153.227C66.9588 155.019 69.7269 157.585 71.1162 158.645V151.872C69.7617 150.257 67.0526 150.986 67.0005 153.227Z" fill="#DDCDF7" stroke="#DDCDF7" stroke-width="0.1"/>
<path d="M75.2847 153.345C75.3264 155.137 72.5583 157.703 71.169 158.763V151.99C72.5235 150.375 75.2326 151.104 75.2847 153.345Z" fill="#DDCDF7" stroke="#DDCDF7" stroke-width="0.1"/>
<path d="M284.715 153.109C284.674 154.901 287.442 157.467 288.831 158.527V151.754C287.477 150.139 284.767 150.868 284.715 153.109Z" fill="#DDCDF7" stroke="#DDCDF7" stroke-width="0.1"/>
<path d="M293 153.109C293.041 154.901 290.273 157.467 288.884 158.527V151.754C290.238 150.139 292.947 150.868 293 153.109Z" fill="#DDCDF7" stroke="#DDCDF7" stroke-width="0.1"/>
<circle cx="276.438" cy="17.0931" r="5.30474" fill="#FAFAFA"/>
<rect x="14" y="9.43066" width="27.1131" height="15.3248" rx="7.66241" fill="#FAFAFA"/>
</svg>
