<svg width="341" height="480" viewBox="0 0 341 480" fill="none" xmlns="http://www.w3.org/2000/svg">
<path d="M1.43559 23H3.63559V16.708H9.39959V14.75H3.63559V10.35H11.2256V8.392H1.43559V23ZM15.9143 23.176C18.5763 23.176 20.0503 21.9 20.7543 20.294L18.8403 19.546C18.4443 20.558 17.6743 21.416 15.9143 21.416C14.1543 21.416 13.0323 20.338 12.9003 18.556H20.7103V17.764C20.7103 14.486 18.8843 12.44 15.8263 12.44C12.8783 12.44 10.7443 14.662 10.7443 17.874C10.7443 21.064 12.7243 23.176 15.9143 23.176ZM12.8563 16.928C13.0763 15.234 14.2203 14.2 15.7823 14.2C17.4103 14.2 18.4003 15.146 18.4883 16.928H12.8563ZM25.4388 23.264C26.9348 23.264 28.2328 22.67 28.9368 21.438V23H31.0268L31.0048 21.394V16.268C31.0048 13.628 29.4208 12.44 26.7588 12.44C24.0088 12.44 22.1608 13.848 22.0948 16.18H24.2728V16.048C24.3608 14.882 25.1968 14.178 26.7368 14.178C28.3208 14.178 28.9588 14.838 28.9588 15.696V15.85C28.7388 16.422 27.6608 16.532 25.9008 16.906C23.5908 17.412 21.8528 17.94 21.8528 20.272C21.8528 22.054 23.2168 23.264 25.4388 23.264ZM25.8348 21.614C24.6908 21.614 24.0528 21.042 24.0528 20.184C24.0528 19.084 25.0208 18.71 26.2088 18.402C27.2208 18.16 28.3208 17.984 28.9588 17.544V18.82C28.7828 20.844 27.3528 21.614 25.8348 21.614ZM36.2281 23H38.0761V21.108H36.8441C36.1841 21.108 35.9201 20.8 35.9201 20.14V14.464H38.1641V12.616H35.9201V9.294L33.8301 10.592V12.616H32.1801V14.464H33.8301V20.404C33.8521 22.054 34.3361 22.912 36.2281 23ZM43.2612 23.176C44.7572 23.176 45.7692 22.494 46.3412 21.218V23H48.4972V12.616H46.3412V17.588C46.3412 19.832 45.5492 21.306 43.8332 21.306C42.4252 21.306 41.7212 20.426 41.7212 18.82V12.616H39.5432V18.93C39.5432 21.57 40.9292 23.176 43.2612 23.176ZM50.7836 23H52.9396V17.676C52.9396 15.564 53.4456 14.64 55.2936 14.64H56.2836V12.528H55.9536C54.0616 12.528 53.2476 13.32 52.9396 14.53V12.616H50.7836V23ZM61.805 23.176C64.467 23.176 65.941 21.9 66.645 20.294L64.731 19.546C64.335 20.558 63.565 21.416 61.805 21.416C60.045 21.416 58.923 20.338 58.791 18.556H66.601V17.764C66.601 14.486 64.775 12.44 61.717 12.44C58.769 12.44 56.635 14.662 56.635 17.874C56.635 21.064 58.615 23.176 61.805 23.176ZM58.747 16.928C58.967 15.234 60.111 14.2 61.673 14.2C63.301 14.2 64.291 15.146 64.379 16.928H58.747ZM72.1879 23.286C74.5419 23.286 76.2359 21.878 76.2359 19.964C76.2359 17.918 74.2779 17.236 72.3859 16.862C70.4939 16.488 69.7899 16.334 69.7899 15.476C69.7899 14.684 70.5159 14.156 71.6379 14.156C72.7159 14.156 73.6619 14.64 74.2559 15.542L76.1259 14.618C75.1139 13.276 73.5959 12.396 71.6379 12.396C69.4379 12.396 67.7219 13.782 67.7219 15.608C67.7219 17.61 69.4159 18.27 71.3079 18.666C72.9359 19.018 74.1459 19.216 74.1459 20.118C74.1459 20.976 73.4419 21.504 72.2759 21.504C71.1759 21.504 70.0979 21.042 69.4599 20.118L67.5899 21.108C68.5359 22.428 70.1859 23.286 72.1879 23.286Z" fill="black"/>
<path d="M6.354 110.216C8.946 110.216 10.62 108.866 11.16 106.418L9.738 106.148C9.306 107.984 8.28 109.028 6.354 109.028C3.87 109.028 2.484 107.048 2.484 104.114V104.06C2.484 101.018 4.05 99.146 6.444 99.146C8.118 99.146 9.126 99.938 9.666 101.846L11.106 101.558C10.458 99.164 8.91 97.94 6.462 97.94C3.204 97.94 1.008 100.352 1.008 104.096C1.008 107.732 2.97 110.216 6.354 110.216ZM16.1115 110.162C17.9655 110.162 18.9015 108.434 19.0455 107.48H19.1355L19.0815 109.028V110H20.4315V101.09H18.9915V105.716C18.8835 107.642 17.8755 108.938 16.5255 108.938C15.3015 108.938 14.7975 108.236 14.7975 106.58V101.09H13.3575V106.76C13.3575 108.92 14.1855 110.144 16.1115 110.162ZM26.1667 110.162C28.0567 110.162 29.3887 109.226 29.3887 107.66C29.3887 106.022 28.0387 105.482 26.6707 105.014C25.3927 104.564 24.4207 104.258 24.4207 103.268C24.4207 102.512 25.1407 101.99 26.1487 101.99C27.2647 101.99 28.0027 102.566 28.3447 103.178L29.3167 102.44C28.7227 101.576 27.7687 100.928 26.1847 100.928C24.3487 100.928 22.9987 101.882 22.9987 103.394C22.9987 104.942 24.2947 105.482 25.6267 105.932C26.9407 106.382 27.9847 106.742 27.9847 107.714C27.9847 108.578 27.2647 109.064 26.2207 109.064C25.2127 109.064 24.2587 108.686 23.6287 107.642L22.6567 108.38C23.3947 109.586 24.7087 110.162 26.1667 110.162ZM34.3585 110.126C35.0065 110.126 35.7445 109.964 36.2485 109.784V108.686C35.7625 108.848 35.2765 108.938 34.7725 108.938C33.7465 108.938 33.4945 108.614 33.4945 107.336V103.016L33.4225 102.278H35.9785V101.09H33.4405L33.4945 100.406V98.12L32.2345 98.696L32.2165 101.09H30.6325V102.278H32.1445V107.606C32.1445 109.442 32.7745 110.126 34.3585 110.126ZM41.8323 110.18C44.4243 110.18 46.0803 108.254 46.0803 105.5C46.0803 102.71 44.6043 100.892 41.9223 100.892C39.1863 100.892 37.5843 102.908 37.5843 105.536C37.5843 108.398 39.0963 110.18 41.8323 110.18ZM41.8323 109.064C40.0683 109.064 39.0603 107.678 39.0603 105.518C39.0603 103.43 40.0863 101.99 41.9043 101.99C43.6863 101.99 44.6043 103.394 44.6043 105.518C44.6043 107.678 43.5783 109.064 41.8323 109.064ZM48.5532 110H49.9752V105.572C50.0472 103.43 51.1452 102.134 52.5852 102.134C53.7552 102.134 54.2412 102.89 54.2412 104.564V110H55.6632V105.554C55.8252 103.268 56.9952 102.152 58.2552 102.152C59.4432 102.152 59.8032 102.98 59.8032 104.564V110H61.2252V104.294C61.2252 102.206 60.5412 100.91 58.7772 100.91C57.3552 100.91 56.1672 101.954 55.6992 103.682H55.5912C55.5012 102.08 54.7812 100.91 53.1252 100.91C51.3612 100.91 50.3172 102.332 49.9572 103.682H49.8672C49.8672 103.682 49.9392 102.548 49.9392 102.35V101.09H48.5532V110ZM64.3923 99.398H65.7603C65.8143 99.398 65.8683 99.362 65.8683 99.29V97.598C65.8683 97.526 65.8143 97.49 65.7603 97.49H64.4103C64.3203 97.49 64.3023 97.526 64.3023 97.598V99.29C64.3023 99.362 64.3203 99.398 64.3923 99.398ZM64.3743 110H65.7783V101.09H64.3743V110ZM68.1321 110H75.1881V108.794H71.0481L69.6081 108.938V108.884L70.8141 107.678L75.1521 102.188V101.09H68.5101V102.296H72.3441L73.7481 102.188V102.224L72.4341 103.484L68.1321 108.938V110ZM79.4123 110.162C80.8883 110.162 82.1303 109.28 82.5263 107.966C82.5623 109.172 82.7063 109.73 82.9043 110H84.3443C84.0923 109.694 83.8943 108.92 83.8943 107.048V104.06C83.8943 101.936 82.7963 100.928 80.6363 100.928C78.9443 100.928 77.5043 101.702 76.8923 102.854L78.0083 103.448C78.4043 102.656 79.3763 102.044 80.5103 102.044C81.8783 102.044 82.4903 102.674 82.4903 103.88V104.042C82.4723 104.492 81.6983 104.672 79.9343 105.032C78.0263 105.392 76.7663 106.112 76.7483 107.75C76.7483 109.118 77.6303 110.144 79.4123 110.162ZM79.7723 109.082C78.8903 109.082 78.1883 108.596 78.1883 107.624C78.1883 106.526 79.1243 106.004 80.7443 105.644C81.5003 105.482 82.2923 105.212 82.4903 104.888V106.634C82.3643 108.056 81.1943 109.082 79.7723 109.082ZM91.3722 110.144C93.4602 110.144 95.0082 108.38 95.0082 105.356C95.0082 102.584 93.8202 100.892 91.4802 100.892C89.9322 100.892 88.7622 101.9 88.3302 103.124H88.2222L88.2942 101.504V96.86H86.9082V110H88.2042L88.1862 107.75C88.6362 109.172 89.8422 110.144 91.3722 110.144ZM90.9762 109.028C89.3022 109.028 88.2222 107.786 88.2222 105.842V105.374C88.2222 103.772 89.3022 101.99 91.0122 101.99C92.7402 101.99 93.5322 103.268 93.5322 105.464C93.5322 107.588 92.5242 109.028 90.9762 109.028ZM97.5263 110H98.9303V96.86H97.5263V110ZM105.622 110.18C107.296 110.18 108.376 109.46 109.024 108.524L108.07 107.858C107.638 108.542 106.846 109.064 105.694 109.064C104.056 109.064 102.994 108.02 102.904 105.824H109.312C109.33 105.77 109.33 105.248 109.33 105.14C109.348 102.71 108.25 100.892 105.586 100.892C103.12 100.892 101.482 102.602 101.482 105.536C101.464 108.434 102.976 110.18 105.622 110.18ZM102.922 104.87C103.048 102.8 104.164 101.972 105.532 101.972C107.206 101.972 107.89 103.034 107.89 104.744V104.87H102.922ZM120.042 110.144C122.13 110.144 123.678 108.38 123.678 105.356C123.678 102.584 122.49 100.892 120.15 100.892C118.602 100.892 117.432 101.9 117 103.124H116.892L116.964 101.504V96.86H115.578V110H116.874L116.856 107.75C117.306 109.172 118.512 110.144 120.042 110.144ZM119.646 109.028C117.972 109.028 116.892 107.786 116.892 105.842V105.374C116.892 103.772 117.972 101.99 119.682 101.99C121.41 101.99 122.202 103.268 122.202 105.464C122.202 107.588 121.194 109.028 119.646 109.028ZM126.196 110H127.6V96.86H126.196V110ZM134.328 110.18C136.92 110.18 138.576 108.254 138.576 105.5C138.576 102.71 137.1 100.892 134.418 100.892C131.682 100.892 130.08 102.908 130.08 105.536C130.08 108.398 131.592 110.18 134.328 110.18ZM134.328 109.064C132.564 109.064 131.556 107.678 131.556 105.518C131.556 103.43 132.582 101.99 134.4 101.99C136.182 101.99 137.1 103.394 137.1 105.518C137.1 107.678 136.074 109.064 134.328 109.064ZM143.965 114.302H144.145C146.989 114.302 148.681 113.096 148.681 111.458C148.681 109.982 147.547 109.532 145.657 109.316C145.117 109.28 144.001 109.172 143.533 109.118C142.255 108.974 142.021 108.578 142.021 108.11C142.021 107.732 142.435 107.336 143.227 107.21C143.533 107.282 143.875 107.318 144.235 107.318C146.521 107.318 147.925 106.004 147.925 104.078C147.925 103.628 147.835 103.196 147.655 102.8C147.979 102.422 148.501 102.332 148.915 102.332C149.113 102.332 149.257 102.368 149.329 102.404V101.036C149.257 101 149.131 100.982 149.005 100.982C148.213 100.982 147.547 101.378 147.295 102.188C146.701 101.414 145.675 100.91 144.325 100.91C141.985 100.91 140.671 102.332 140.671 104.15C140.671 105.392 141.319 106.454 142.471 106.976C141.391 107.246 140.833 107.822 140.833 108.542C140.833 109.298 141.391 109.91 142.399 110.108C141.013 110.36 140.167 111.098 140.167 112.07C140.167 113.42 141.427 114.302 143.965 114.302ZM144.307 106.328C142.759 106.328 142.057 105.374 142.057 104.114C142.057 102.926 142.741 101.882 144.307 101.882C145.855 101.882 146.575 102.854 146.575 104.096C146.575 105.374 145.837 106.328 144.307 106.328ZM144.145 113.258C142.417 113.258 141.463 112.682 141.463 111.728C141.445 111.062 142.003 110.504 143.047 110.306C143.713 110.342 144.685 110.432 145.243 110.504C146.485 110.63 147.385 110.756 147.385 111.566C147.385 112.448 146.539 113.258 144.343 113.258H144.145ZM156.774 110.162C158.25 110.162 159.492 109.28 159.888 107.966C159.924 109.172 160.068 109.73 160.266 110H161.706C161.454 109.694 161.256 108.92 161.256 107.048V104.06C161.256 101.936 160.158 100.928 157.998 100.928C156.306 100.928 154.866 101.702 154.254 102.854L155.37 103.448C155.766 102.656 156.738 102.044 157.872 102.044C159.24 102.044 159.852 102.674 159.852 103.88V104.042C159.834 104.492 159.06 104.672 157.296 105.032C155.388 105.392 154.128 106.112 154.11 107.75C154.11 109.118 154.992 110.144 156.774 110.162ZM157.134 109.082C156.252 109.082 155.55 108.596 155.55 107.624C155.55 106.526 156.486 106.004 158.106 105.644C158.862 105.482 159.654 105.212 159.852 104.888V106.634C159.726 108.056 158.556 109.082 157.134 109.082ZM164.288 110H165.71V105.572C165.782 103.43 166.97 102.134 168.41 102.134C169.598 102.134 170.21 102.89 170.21 104.564V110H171.65V104.276C171.65 102.152 170.768 100.91 168.968 100.91C167.204 100.91 166.052 102.314 165.692 103.682H165.602C165.602 103.682 165.674 102.494 165.674 102.35V101.09H164.288V110ZM177.645 110.144C179.319 110.144 180.561 108.956 180.885 107.318L180.831 108.074L180.813 110H182.145V96.86H180.759V101.54L180.867 103.07H180.777C180.363 101.882 179.337 100.892 177.735 100.892C175.467 100.892 174.027 102.548 174.027 105.482C174.027 108.326 175.449 110.144 177.645 110.144ZM178.023 109.028C176.421 109.028 175.521 107.642 175.521 105.41C175.521 103.304 176.421 101.99 178.095 101.99C179.913 101.99 180.795 103.502 180.795 105.23V105.716C180.795 107.516 179.643 109.028 178.023 109.028ZM192.475 110.18C194.167 110.18 195.265 109.424 195.841 108.254L194.725 107.678C194.347 108.56 193.609 109.046 192.529 109.046C190.837 109.046 189.811 107.786 189.811 105.464C189.811 103.25 190.873 102.008 192.547 102.008C193.681 102.008 194.347 102.674 194.635 103.538L195.877 102.98C195.301 101.54 194.203 100.892 192.529 100.892C189.901 100.892 188.335 102.854 188.335 105.518C188.335 108.38 189.937 110.18 192.475 110.18ZM201.512 110.18C204.104 110.18 205.76 108.254 205.76 105.5C205.76 102.71 204.284 100.892 201.602 100.892C198.866 100.892 197.264 102.908 197.264 105.536C197.264 108.398 198.776 110.18 201.512 110.18ZM201.512 109.064C199.748 109.064 198.74 107.678 198.74 105.518C198.74 103.43 199.766 101.99 201.584 101.99C203.366 101.99 204.284 103.394 204.284 105.518C204.284 107.678 203.258 109.064 201.512 109.064ZM208.233 110H209.655V105.572C209.727 103.43 210.915 102.134 212.355 102.134C213.543 102.134 214.155 102.89 214.155 104.564V110H215.595V104.276C215.595 102.152 214.713 100.91 212.913 100.91C211.149 100.91 209.997 102.314 209.637 103.682H209.547C209.547 103.682 209.619 102.494 209.619 102.35V101.09H208.233V110ZM221.214 110.126C221.862 110.126 222.6 109.964 223.104 109.784V108.686C222.618 108.848 222.132 108.938 221.628 108.938C220.602 108.938 220.35 108.614 220.35 107.336V103.016L220.278 102.278H222.834V101.09H220.296L220.35 100.406V98.12L219.09 98.696L219.072 101.09H217.488V102.278H219V107.606C219 109.442 219.63 110.126 221.214 110.126ZM228.652 110.18C230.326 110.18 231.406 109.46 232.054 108.524L231.1 107.858C230.668 108.542 229.876 109.064 228.724 109.064C227.086 109.064 226.024 108.02 225.934 105.824H232.342C232.36 105.77 232.36 105.248 232.36 105.14C232.378 102.71 231.28 100.892 228.616 100.892C226.15 100.892 224.512 102.602 224.512 105.536C224.494 108.434 226.006 110.18 228.652 110.18ZM225.952 104.87C226.078 102.8 227.194 101.972 228.562 101.972C230.236 101.972 230.92 103.034 230.92 104.744V104.87H225.952ZM234.899 110H236.321V105.572C236.393 103.43 237.581 102.134 239.021 102.134C240.209 102.134 240.821 102.89 240.821 104.564V110H242.261V104.276C242.261 102.152 241.379 100.91 239.579 100.91C237.815 100.91 236.663 102.314 236.303 103.682H236.213C236.213 103.682 236.285 102.494 236.285 102.35V101.09H234.899V110ZM247.88 110.126C248.528 110.126 249.266 109.964 249.77 109.784V108.686C249.284 108.848 248.798 108.938 248.294 108.938C247.268 108.938 247.016 108.614 247.016 107.336V103.016L246.944 102.278H249.5V101.09H246.962L247.016 100.406V98.12L245.756 98.696L245.738 101.09H244.154V102.278H245.666V107.606C245.666 109.442 246.296 110.126 247.88 110.126ZM258.992 110.18C260.666 110.18 261.746 109.46 262.394 108.524L261.44 107.858C261.008 108.542 260.216 109.064 259.064 109.064C257.426 109.064 256.364 108.02 256.274 105.824H262.682C262.7 105.77 262.7 105.248 262.7 105.14C262.718 102.71 261.62 100.892 258.956 100.892C256.49 100.892 254.852 102.602 254.852 105.536C254.834 108.434 256.346 110.18 258.992 110.18ZM256.292 104.87C256.418 102.8 257.534 101.972 258.902 101.972C260.576 101.972 261.26 103.034 261.26 104.744V104.87H256.292ZM268.137 110.144C269.811 110.144 271.053 108.956 271.377 107.318L271.323 108.074L271.305 110H272.637V96.86H271.251V101.54L271.359 103.07H271.269C270.855 101.882 269.829 100.892 268.227 100.892C265.959 100.892 264.519 102.548 264.519 105.482C264.519 108.326 265.941 110.144 268.137 110.144ZM268.515 109.028C266.913 109.028 266.013 107.642 266.013 105.41C266.013 103.304 266.913 101.99 268.587 101.99C270.405 101.99 271.287 103.502 271.287 105.23V105.716C271.287 107.516 270.135 109.028 268.515 109.028ZM275.875 99.398H277.243C277.297 99.398 277.351 99.362 277.351 99.29V97.598C277.351 97.526 277.297 97.49 277.243 97.49H275.893C275.803 97.49 275.785 97.526 275.785 97.598V99.29C275.785 99.362 275.803 99.398 275.875 99.398ZM275.857 110H277.261V101.09H275.857V110ZM283.107 110.126C283.755 110.126 284.493 109.964 284.997 109.784V108.686C284.511 108.848 284.025 108.938 283.521 108.938C282.495 108.938 282.243 108.614 282.243 107.336V103.016L282.171 102.278H284.727V101.09H282.189L282.243 100.406V98.12L280.983 98.696L280.965 101.09H279.381V102.278H280.893V107.606C280.893 109.442 281.523 110.126 283.107 110.126ZM290.58 110.18C293.172 110.18 294.828 108.254 294.828 105.5C294.828 102.71 293.352 100.892 290.67 100.892C287.934 100.892 286.332 102.908 286.332 105.536C286.332 108.398 287.844 110.18 290.58 110.18ZM290.58 109.064C288.816 109.064 287.808 107.678 287.808 105.518C287.808 103.43 288.834 101.99 290.652 101.99C292.434 101.99 293.352 103.394 293.352 105.518C293.352 107.678 292.326 109.064 290.58 109.064ZM297.247 110H298.633V106.274C298.867 104.24 299.785 102.62 301.459 102.62C301.675 102.62 301.891 102.62 302.053 102.638V100.982H301.765C299.785 100.982 298.795 103.106 298.525 105.158H298.417L298.597 102.35V101.09H297.247V110Z" fill="black"/>
<path d="M3.618 183H5.13L7.326 174.702L7.776 172.272H7.83L8.28 174.702L10.548 183H12.096L15.426 171.174H13.95L11.934 179.04L11.394 181.83H11.304L10.782 179.04L8.622 171.174H7.092L4.95 179.04L4.428 181.83H4.338L3.816 179.04L1.782 171.174H0.27L3.618 183ZM17.175 183H18.561V179.274C18.795 177.24 19.713 175.62 21.387 175.62C21.603 175.62 21.819 175.62 21.981 175.638V173.982H21.693C19.713 173.982 18.723 176.106 18.453 178.158H18.345L18.525 175.35V174.09H17.175V183ZM23.9802 172.398H25.3482C25.4022 172.398 25.4562 172.362 25.4562 172.29V170.598C25.4562 170.526 25.4022 170.49 25.3482 170.49H23.9982C23.9082 170.49 23.8902 170.526 23.8902 170.598V172.29C23.8902 172.362 23.9082 172.398 23.9802 172.398ZM23.9622 183H25.3662V174.09H23.9622V183ZM31.212 183.126C31.86 183.126 32.598 182.964 33.102 182.784V181.686C32.616 181.848 32.13 181.938 31.626 181.938C30.6 181.938 30.348 181.614 30.348 180.336V176.016L30.276 175.278H32.832V174.09H30.294L30.348 173.406V171.12L29.088 171.696L29.07 174.09H27.486V175.278H28.998V180.606C28.998 182.442 29.628 183.126 31.212 183.126ZM35.1951 172.398H36.5631C36.6171 172.398 36.6711 172.362 36.6711 172.29V170.598C36.6711 170.526 36.6171 170.49 36.5631 170.49H35.2131C35.1231 170.49 35.1051 170.526 35.1051 170.598V172.29C35.1051 172.362 35.1231 172.398 35.1951 172.398ZM35.1771 183H36.5811V174.09H35.1771V183ZM39.8168 183H41.2388V178.572C41.3108 176.43 42.4988 175.134 43.9388 175.134C45.1268 175.134 45.7388 175.89 45.7388 177.564V183H47.1788V177.276C47.1788 175.152 46.2968 173.91 44.4968 173.91C42.7328 173.91 41.5808 175.314 41.2208 176.682H41.1308C41.1308 176.682 41.2028 175.494 41.2028 175.35V174.09H39.8168V183ZM53.1918 187.302H53.3718C56.2158 187.302 57.9078 186.096 57.9078 184.458C57.9078 182.982 56.7738 182.532 54.8838 182.316C54.3438 182.28 53.2278 182.172 52.7598 182.118C51.4818 181.974 51.2478 181.578 51.2478 181.11C51.2478 180.732 51.6618 180.336 52.4538 180.21C52.7598 180.282 53.1018 180.318 53.4618 180.318C55.7478 180.318 57.1518 179.004 57.1518 177.078C57.1518 176.628 57.0618 176.196 56.8818 175.8C57.2058 175.422 57.7278 175.332 58.1418 175.332C58.3398 175.332 58.4838 175.368 58.5558 175.404V174.036C58.4838 174 58.3578 173.982 58.2318 173.982C57.4398 173.982 56.7738 174.378 56.5218 175.188C55.9278 174.414 54.9018 173.91 53.5518 173.91C51.2118 173.91 49.8978 175.332 49.8978 177.15C49.8978 178.392 50.5458 179.454 51.6978 179.976C50.6178 180.246 50.0598 180.822 50.0598 181.542C50.0598 182.298 50.6178 182.91 51.6258 183.108C50.2398 183.36 49.3938 184.098 49.3938 185.07C49.3938 186.42 50.6538 187.302 53.1918 187.302ZM53.5338 179.328C51.9858 179.328 51.2838 178.374 51.2838 177.114C51.2838 175.926 51.9678 174.882 53.5338 174.882C55.0818 174.882 55.8018 175.854 55.8018 177.096C55.8018 178.374 55.0638 179.328 53.5338 179.328ZM53.3718 186.258C51.6438 186.258 50.6898 185.682 50.6898 184.728C50.6718 184.062 51.2298 183.504 52.2738 183.306C52.9398 183.342 53.9118 183.432 54.4698 183.504C55.7118 183.63 56.6118 183.756 56.6118 184.566C56.6118 185.448 55.7658 186.258 53.5698 186.258H53.3718ZM64.3262 183H65.7122V175.08L65.4602 172.326L66.9542 175.044L72.0662 183H73.4342V171.174H72.0482V178.572L72.2462 181.398L70.7342 178.608L66.0002 171.174H64.3262V183ZM77.1055 183H78.5455V177.708H83.2255V176.43H78.5455V172.434H84.4315V171.174H77.1055V183ZM88.8988 183H90.3568V172.452H93.8848V171.174H85.3528V172.452H88.8988V183ZM97.8327 183.162C99.7227 183.162 101.055 182.226 101.055 180.66C101.055 179.022 99.7047 178.482 98.3367 178.014C97.0587 177.564 96.0867 177.258 96.0867 176.268C96.0867 175.512 96.8067 174.99 97.8147 174.99C98.9307 174.99 99.6687 175.566 100.011 176.178L100.983 175.44C100.389 174.576 99.4347 173.928 97.8507 173.928C96.0147 173.928 94.6647 174.882 94.6647 176.394C94.6647 177.942 95.9607 178.482 97.2927 178.932C98.6067 179.382 99.6507 179.742 99.6507 180.714C99.6507 181.578 98.9307 182.064 97.8867 182.064C96.8787 182.064 95.9247 181.686 95.2947 180.642L94.3227 181.38C95.0607 182.586 96.3747 183.162 97.8327 183.162ZM107.265 172.398H108.633C108.687 172.398 108.741 172.362 108.741 172.29V170.598C108.741 170.526 108.687 170.49 108.633 170.49H107.283C107.193 170.49 107.175 170.526 107.175 170.598V172.29C107.175 172.362 107.193 172.398 107.265 172.398ZM107.247 183H108.651V174.09H107.247V183ZM111.887 183H113.309V178.572C113.381 176.43 114.569 175.134 116.009 175.134C117.197 175.134 117.809 175.89 117.809 177.564V183H119.249V177.276C119.249 175.152 118.367 173.91 116.567 173.91C114.803 173.91 113.651 175.314 113.291 176.682H113.201C113.201 176.682 113.273 175.494 113.273 175.35V174.09H111.887V183ZM124.868 183.126C125.516 183.126 126.254 182.964 126.758 182.784V181.686C126.272 181.848 125.786 181.938 125.282 181.938C124.256 181.938 124.004 181.614 124.004 180.336V176.016L123.932 175.278H126.488V174.09H123.95L124.004 173.406V171.12L122.744 171.696L122.726 174.09H121.142V175.278H122.654V180.606C122.654 182.442 123.284 183.126 124.868 183.126ZM132.306 183.18C133.98 183.18 135.06 182.46 135.708 181.524L134.754 180.858C134.322 181.542 133.53 182.064 132.378 182.064C130.74 182.064 129.678 181.02 129.588 178.824H135.996C136.014 178.77 136.014 178.248 136.014 178.14C136.032 175.71 134.934 173.892 132.27 173.892C129.804 173.892 128.166 175.602 128.166 178.536C128.148 181.434 129.66 183.18 132.306 183.18ZM129.606 177.87C129.732 175.8 130.848 174.972 132.216 174.972C133.89 174.972 134.574 176.034 134.574 177.744V177.87H129.606ZM141.469 187.302H141.649C144.493 187.302 146.185 186.096 146.185 184.458C146.185 182.982 145.051 182.532 143.161 182.316C142.621 182.28 141.505 182.172 141.037 182.118C139.759 181.974 139.525 181.578 139.525 181.11C139.525 180.732 139.939 180.336 140.731 180.21C141.037 180.282 141.379 180.318 141.739 180.318C144.025 180.318 145.429 179.004 145.429 177.078C145.429 176.628 145.339 176.196 145.159 175.8C145.483 175.422 146.005 175.332 146.419 175.332C146.617 175.332 146.761 175.368 146.833 175.404V174.036C146.761 174 146.635 173.982 146.509 173.982C145.717 173.982 145.051 174.378 144.799 175.188C144.205 174.414 143.179 173.91 141.829 173.91C139.489 173.91 138.175 175.332 138.175 177.15C138.175 178.392 138.823 179.454 139.975 179.976C138.895 180.246 138.337 180.822 138.337 181.542C138.337 182.298 138.895 182.91 139.903 183.108C138.517 183.36 137.671 184.098 137.671 185.07C137.671 186.42 138.931 187.302 141.469 187.302ZM141.811 179.328C140.263 179.328 139.561 178.374 139.561 177.114C139.561 175.926 140.245 174.882 141.811 174.882C143.359 174.882 144.079 175.854 144.079 177.096C144.079 178.374 143.341 179.328 141.811 179.328ZM141.649 186.258C139.921 186.258 138.967 185.682 138.967 184.728C138.949 184.062 139.507 183.504 140.551 183.306C141.217 183.342 142.189 183.432 142.747 183.504C143.989 183.63 144.889 183.756 144.889 184.566C144.889 185.448 144.043 186.258 141.847 186.258H141.649ZM148.589 183H149.975V179.274C150.209 177.24 151.127 175.62 152.801 175.62C153.017 175.62 153.233 175.62 153.395 175.638V173.982H153.107C151.127 173.982 150.137 176.106 149.867 178.158H149.759L149.939 175.35V174.09H148.589V183ZM157.178 183.162C158.654 183.162 159.896 182.28 160.292 180.966C160.328 182.172 160.472 182.73 160.67 183H162.11C161.858 182.694 161.66 181.92 161.66 180.048V177.06C161.66 174.936 160.562 173.928 158.402 173.928C156.71 173.928 155.27 174.702 154.658 175.854L155.774 176.448C156.17 175.656 157.142 175.044 158.276 175.044C159.644 175.044 160.256 175.674 160.256 176.88V177.042C160.238 177.492 159.464 177.672 157.7 178.032C155.792 178.392 154.532 179.112 154.514 180.75C154.514 182.118 155.396 183.144 157.178 183.162ZM157.538 182.082C156.656 182.082 155.954 181.596 155.954 180.624C155.954 179.526 156.89 179.004 158.51 178.644C159.266 178.482 160.058 178.212 160.256 177.888V179.634C160.13 181.056 158.96 182.082 157.538 182.082ZM167.232 183.126C167.88 183.126 168.618 182.964 169.122 182.784V181.686C168.636 181.848 168.15 181.938 167.646 181.938C166.62 181.938 166.368 181.614 166.368 180.336V176.016L166.296 175.278H168.852V174.09H166.314L166.368 173.406V171.12L165.108 171.696L165.09 174.09H163.506V175.278H165.018V180.606C165.018 182.442 165.648 183.126 167.232 183.126ZM171.215 172.398H172.583C172.637 172.398 172.691 172.362 172.691 172.29V170.598C172.691 170.526 172.637 170.49 172.583 170.49H171.233C171.143 170.49 171.125 170.526 171.125 170.598V172.29C171.125 172.362 171.143 172.398 171.215 172.398ZM171.197 183H172.601V174.09H171.197V183ZM179.328 183.18C181.92 183.18 183.576 181.254 183.576 178.5C183.576 175.71 182.1 173.892 179.418 173.892C176.682 173.892 175.08 175.908 175.08 178.536C175.08 181.398 176.592 183.18 179.328 183.18ZM179.328 182.064C177.564 182.064 176.556 180.678 176.556 178.518C176.556 176.43 177.582 174.99 179.4 174.99C181.182 174.99 182.1 176.394 182.1 178.518C182.1 180.678 181.074 182.064 179.328 182.064ZM186.049 183H187.471V178.572C187.543 176.43 188.731 175.134 190.171 175.134C191.359 175.134 191.971 175.89 191.971 177.564V183H193.411V177.276C193.411 175.152 192.529 173.91 190.729 173.91C188.965 173.91 187.813 175.314 187.453 176.682H187.363C187.363 176.682 187.435 175.494 187.435 175.35V174.09H186.049V183Z" fill="black"/>
<path d="M0.27 256H1.782L2.97 252.598H8.028L9.198 256H10.71L6.462 244.174H4.572L0.27 256ZM3.366 251.41L4.77 247.414L5.472 245.074H5.544L6.246 247.414L7.65 251.41H3.366ZM15.1799 256.162C17.0339 256.162 17.9699 254.434 18.1139 253.48H18.2039L18.1499 255.028V256H19.4999V247.09H18.0599V251.716C17.9519 253.642 16.9439 254.938 15.5939 254.938C14.3699 254.938 13.8659 254.236 13.8659 252.58V247.09H12.4259V252.76C12.4259 254.92 13.2539 256.144 15.1799 256.162ZM25.253 256.126C25.901 256.126 26.639 255.964 27.143 255.784V254.686C26.657 254.848 26.171 254.938 25.667 254.938C24.641 254.938 24.389 254.614 24.389 253.336V249.016L24.317 248.278H26.873V247.09H24.335L24.389 246.406V244.12L23.129 244.696L23.111 247.09H21.527V248.278H23.039V253.606C23.039 255.442 23.669 256.126 25.253 256.126ZM32.7268 256.18C35.3188 256.18 36.9748 254.254 36.9748 251.5C36.9748 248.71 35.4988 246.892 32.8168 246.892C30.0808 246.892 28.4788 248.908 28.4788 251.536C28.4788 254.398 29.9908 256.18 32.7268 256.18ZM32.7268 255.064C30.9628 255.064 29.9548 253.678 29.9548 251.518C29.9548 249.43 30.9808 247.99 32.7988 247.99C34.5808 247.99 35.4988 249.394 35.4988 251.518C35.4988 253.678 34.4728 255.064 32.7268 255.064ZM39.4477 256H40.8697V251.572C40.9417 249.43 42.0397 248.134 43.4797 248.134C44.6497 248.134 45.1357 248.89 45.1357 250.564V256H46.5577V251.554C46.7197 249.268 47.8897 248.152 49.1497 248.152C50.3377 248.152 50.6977 248.98 50.6977 250.564V256H52.1197V250.294C52.1197 248.206 51.4357 246.91 49.6717 246.91C48.2497 246.91 47.0617 247.954 46.5937 249.682H46.4857C46.3957 248.08 45.6757 246.91 44.0197 246.91C42.2557 246.91 41.2117 248.332 40.8517 249.682H40.7617C40.7617 249.682 40.8337 248.548 40.8337 248.35V247.09H39.4477V256ZM57.053 256.162C58.529 256.162 59.771 255.28 60.167 253.966C60.203 255.172 60.347 255.73 60.545 256H61.985C61.733 255.694 61.535 254.92 61.535 253.048V250.06C61.535 247.936 60.437 246.928 58.277 246.928C56.585 246.928 55.145 247.702 54.533 248.854L55.649 249.448C56.045 248.656 57.017 248.044 58.151 248.044C59.519 248.044 60.131 248.674 60.131 249.88V250.042C60.113 250.492 59.339 250.672 57.575 251.032C55.667 251.392 54.407 252.112 54.389 253.75C54.389 255.118 55.271 256.144 57.053 256.162ZM57.413 255.082C56.531 255.082 55.829 254.596 55.829 253.624C55.829 252.526 56.765 252.004 58.385 251.644C59.141 251.482 59.933 251.212 60.131 250.888V252.634C60.005 254.056 58.835 255.082 57.413 255.082ZM67.1065 256.126C67.7545 256.126 68.4925 255.964 68.9965 255.784V254.686C68.5105 254.848 68.0245 254.938 67.5205 254.938C66.4945 254.938 66.2425 254.614 66.2425 253.336V249.016L66.1705 248.278H68.7265V247.09H66.1885L66.2425 246.406V244.12L64.9825 244.696L64.9645 247.09H63.3805V248.278H64.8925V253.606C64.8925 255.442 65.5225 256.126 67.1065 256.126ZM71.0896 245.398H72.4576C72.5116 245.398 72.5656 245.362 72.5656 245.29V243.598C72.5656 243.526 72.5116 243.49 72.4576 243.49H71.1076C71.0176 243.49 70.9996 243.526 70.9996 243.598V245.29C70.9996 245.362 71.0176 245.398 71.0896 245.398ZM71.0716 256H72.4756V247.09H71.0716V256ZM79.1314 256.18C80.8234 256.18 81.9214 255.424 82.4974 254.254L81.3814 253.678C81.0034 254.56 80.2654 255.046 79.1854 255.046C77.4934 255.046 76.4674 253.786 76.4674 251.464C76.4674 249.25 77.5294 248.008 79.2034 248.008C80.3374 248.008 81.0034 248.674 81.2914 249.538L82.5334 248.98C81.9574 247.54 80.8594 246.892 79.1854 246.892C76.5574 246.892 74.9914 248.854 74.9914 251.518C74.9914 254.38 76.5934 256.18 79.1314 256.18ZM88.3848 259.87H89.7708V256.036L89.5728 253.804H89.6628C90.1668 255.208 91.3368 256.144 92.8488 256.144C94.9368 256.144 96.4848 254.38 96.4848 251.356C96.4848 248.584 95.2968 246.892 92.9388 246.892C91.3908 246.892 90.2388 247.9 89.7888 249.124H89.6988L89.7528 247.936V247.09H88.3848V259.87ZM92.4528 255.028C90.7788 255.028 89.6988 253.786 89.6988 251.842V251.374C89.6988 249.772 90.7788 247.99 92.4888 247.99C94.2168 247.99 95.0088 249.25 95.0088 251.446C95.0088 253.588 94.0008 255.028 92.4528 255.028ZM100.84 256.162C102.316 256.162 103.558 255.28 103.954 253.966C103.99 255.172 104.134 255.73 104.332 256H105.772C105.52 255.694 105.322 254.92 105.322 253.048V250.06C105.322 247.936 104.224 246.928 102.064 246.928C100.372 246.928 98.9321 247.702 98.3201 248.854L99.4361 249.448C99.8321 248.656 100.804 248.044 101.938 248.044C103.306 248.044 103.918 248.674 103.918 249.88V250.042C103.9 250.492 103.126 250.672 101.362 251.032C99.4541 251.392 98.1941 252.112 98.1761 253.75C98.1761 255.118 99.0581 256.144 100.84 256.162ZM101.2 255.082C100.318 255.082 99.6161 254.596 99.6161 253.624C99.6161 252.526 100.552 252.004 102.172 251.644C102.928 251.482 103.72 251.212 103.918 250.888V252.634C103.792 254.056 102.622 255.082 101.2 255.082ZM108.481 259.672C110.173 259.672 110.911 258.484 111.451 257.008L114.979 247.09H113.503L111.595 252.94L111.073 254.956H111.001L110.461 252.94L108.445 247.09H106.933L110.407 256.324C109.939 257.908 109.453 258.502 108.391 258.502C108.139 258.502 107.761 258.448 107.545 258.412V259.51C107.743 259.564 108.139 259.672 108.481 259.672ZM116.774 256H118.196V251.572C118.268 249.43 119.366 248.134 120.806 248.134C121.976 248.134 122.462 248.89 122.462 250.564V256H123.884V251.554C124.046 249.268 125.216 248.152 126.476 248.152C127.664 248.152 128.024 248.98 128.024 250.564V256H129.446V250.294C129.446 248.206 128.762 246.91 126.998 246.91C125.576 246.91 124.388 247.954 123.92 249.682H123.812C123.722 248.08 123.002 246.91 121.346 246.91C119.582 246.91 118.538 248.332 118.178 249.682H118.088C118.088 249.682 118.16 248.548 118.16 248.35V247.09H116.774V256ZM136.015 256.18C137.689 256.18 138.769 255.46 139.417 254.524L138.463 253.858C138.031 254.542 137.239 255.064 136.087 255.064C134.449 255.064 133.387 254.02 133.297 251.824H139.705C139.723 251.77 139.723 251.248 139.723 251.14C139.741 248.71 138.643 246.892 135.979 246.892C133.513 246.892 131.875 248.602 131.875 251.536C131.857 254.434 133.369 256.18 136.015 256.18ZM133.315 250.87C133.441 248.8 134.557 247.972 135.925 247.972C137.599 247.972 138.283 249.034 138.283 250.744V250.87H133.315ZM142.262 256H143.684V251.572C143.756 249.43 144.944 248.134 146.384 248.134C147.572 248.134 148.184 248.89 148.184 250.564V256H149.624V250.276C149.624 248.152 148.742 246.91 146.942 246.91C145.178 246.91 144.026 248.314 143.666 249.682H143.576C143.576 249.682 143.648 248.494 143.648 248.35V247.09H142.262V256ZM155.243 256.126C155.891 256.126 156.629 255.964 157.133 255.784V254.686C156.647 254.848 156.161 254.938 155.657 254.938C154.631 254.938 154.379 254.614 154.379 253.336V249.016L154.307 248.278H156.863V247.09H154.325L154.379 246.406V244.12L153.119 244.696L153.101 247.09H151.517V248.278H153.029V253.606C153.029 255.442 153.659 256.126 155.243 256.126ZM165.491 256.162C167.381 256.162 168.713 255.226 168.713 253.66C168.713 252.022 167.363 251.482 165.995 251.014C164.717 250.564 163.745 250.258 163.745 249.268C163.745 248.512 164.465 247.99 165.473 247.99C166.589 247.99 167.327 248.566 167.669 249.178L168.641 248.44C168.047 247.576 167.093 246.928 165.509 246.928C163.673 246.928 162.323 247.882 162.323 249.394C162.323 250.942 163.619 251.482 164.951 251.932C166.265 252.382 167.309 252.742 167.309 253.714C167.309 254.578 166.589 255.064 165.545 255.064C164.537 255.064 163.583 254.686 162.953 253.642L161.981 254.38C162.719 255.586 164.033 256.162 165.491 256.162ZM171.253 259.672C172.945 259.672 173.683 258.484 174.223 257.008L177.751 247.09H176.275L174.367 252.94L173.845 254.956H173.773L173.233 252.94L171.217 247.09H169.705L173.179 256.324C172.711 257.908 172.225 258.502 171.163 258.502C170.911 258.502 170.533 258.448 170.317 258.412V259.51C170.515 259.564 170.911 259.672 171.253 259.672ZM182.085 256.162C183.975 256.162 185.307 255.226 185.307 253.66C185.307 252.022 183.957 251.482 182.589 251.014C181.311 250.564 180.339 250.258 180.339 249.268C180.339 248.512 181.059 247.99 182.067 247.99C183.183 247.99 183.921 248.566 184.263 249.178L185.235 248.44C184.641 247.576 183.687 246.928 182.103 246.928C180.267 246.928 178.917 247.882 178.917 249.394C178.917 250.942 180.213 251.482 181.545 251.932C182.859 252.382 183.903 252.742 183.903 253.714C183.903 254.578 183.183 255.064 182.139 255.064C181.131 255.064 180.177 254.686 179.547 253.642L178.575 254.38C179.313 255.586 180.627 256.162 182.085 256.162ZM190.276 256.126C190.924 256.126 191.662 255.964 192.166 255.784V254.686C191.68 254.848 191.194 254.938 190.69 254.938C189.664 254.938 189.412 254.614 189.412 253.336V249.016L189.34 248.278H191.896V247.09H189.358L189.412 246.406V244.12L188.152 244.696L188.134 247.09H186.55V248.278H188.062V253.606C188.062 255.442 188.692 256.126 190.276 256.126ZM197.714 256.18C199.388 256.18 200.468 255.46 201.116 254.524L200.162 253.858C199.73 254.542 198.938 255.064 197.786 255.064C196.148 255.064 195.086 254.02 194.996 251.824H201.404C201.422 251.77 201.422 251.248 201.422 251.14C201.44 248.71 200.342 246.892 197.678 246.892C195.212 246.892 193.574 248.602 193.574 251.536C193.556 254.434 195.068 256.18 197.714 256.18ZM195.014 250.87C195.14 248.8 196.256 247.972 197.624 247.972C199.298 247.972 199.982 249.034 199.982 250.744V250.87H195.014ZM203.961 256H205.383V251.572C205.455 249.43 206.553 248.134 207.993 248.134C209.163 248.134 209.649 248.89 209.649 250.564V256H211.071V251.554C211.233 249.268 212.403 248.152 213.663 248.152C214.851 248.152 215.211 248.98 215.211 250.564V256H216.633V250.294C216.633 248.206 215.949 246.91 214.185 246.91C212.763 246.91 211.575 247.954 211.107 249.682H210.999C210.909 248.08 210.189 246.91 208.533 246.91C206.769 246.91 205.725 248.332 205.365 249.682H205.275C205.275 249.682 205.347 248.548 205.347 248.35V247.09H203.961V256ZM223.977 256H225.345V249.142L225.291 248.278H227.541V247.09H225.291L225.345 246.334V245.56C225.345 244.228 225.795 243.706 226.929 243.706C227.343 243.706 227.775 243.76 228.135 243.868V242.77C227.757 242.662 227.307 242.572 226.695 242.572C224.859 242.572 223.977 243.616 223.977 245.452V247.09H222.483V248.278H223.977V256ZM232.766 256.18C235.358 256.18 237.014 254.254 237.014 251.5C237.014 248.71 235.538 246.892 232.856 246.892C230.12 246.892 228.518 248.908 228.518 251.536C228.518 254.398 230.03 256.18 232.766 256.18ZM232.766 255.064C231.002 255.064 229.994 253.678 229.994 251.518C229.994 249.43 231.02 247.99 232.838 247.99C234.62 247.99 235.538 249.394 235.538 251.518C235.538 253.678 234.512 255.064 232.766 255.064ZM239.433 256H240.819V252.274C241.053 250.24 241.971 248.62 243.645 248.62C243.861 248.62 244.077 248.62 244.239 248.638V246.982H243.951C241.971 246.982 240.981 249.106 240.711 251.158H240.603L240.783 248.35V247.09H239.433V256ZM252.874 256.18C254.566 256.18 255.664 255.424 256.24 254.254L255.124 253.678C254.746 254.56 254.008 255.046 252.928 255.046C251.236 255.046 250.21 253.786 250.21 251.464C250.21 249.25 251.272 248.008 252.946 248.008C254.08 248.008 254.746 248.674 255.034 249.538L256.276 248.98C255.7 247.54 254.602 246.892 252.928 246.892C250.3 246.892 248.734 248.854 248.734 251.518C248.734 254.38 250.336 256.18 252.874 256.18ZM258.364 256H259.75V252.274C259.984 250.24 260.902 248.62 262.576 248.62C262.792 248.62 263.008 248.62 263.17 248.638V246.982H262.882C260.902 246.982 259.912 249.106 259.642 251.158H259.534L259.714 248.35V247.09H258.364V256ZM268.378 256.18C270.052 256.18 271.132 255.46 271.78 254.524L270.826 253.858C270.394 254.542 269.602 255.064 268.45 255.064C266.812 255.064 265.75 254.02 265.66 251.824H272.068C272.086 251.77 272.086 251.248 272.086 251.14C272.104 248.71 271.006 246.892 268.342 246.892C265.876 246.892 264.238 248.602 264.238 251.536C264.22 254.434 265.732 256.18 268.378 256.18ZM265.678 250.87C265.804 248.8 266.92 247.972 268.288 247.972C269.962 247.972 270.646 249.034 270.646 250.744V250.87H265.678ZM276.533 256.162C278.009 256.162 279.251 255.28 279.647 253.966C279.683 255.172 279.827 255.73 280.025 256H281.465C281.213 255.694 281.015 254.92 281.015 253.048V250.06C281.015 247.936 279.917 246.928 277.757 246.928C276.065 246.928 274.625 247.702 274.013 248.854L275.129 249.448C275.525 248.656 276.497 248.044 277.631 248.044C278.999 248.044 279.611 248.674 279.611 249.88V250.042C279.593 250.492 278.819 250.672 277.055 251.032C275.147 251.392 273.887 252.112 273.869 253.75C273.869 255.118 274.751 256.144 276.533 256.162ZM276.893 255.082C276.011 255.082 275.309 254.596 275.309 253.624C275.309 252.526 276.245 252.004 277.865 251.644C278.621 251.482 279.413 251.212 279.611 250.888V252.634C279.485 254.056 278.315 255.082 276.893 255.082ZM286.587 256.126C287.235 256.126 287.973 255.964 288.477 255.784V254.686C287.991 254.848 287.505 254.938 287.001 254.938C285.975 254.938 285.723 254.614 285.723 253.336V249.016L285.651 248.278H288.207V247.09H285.669L285.723 246.406V244.12L284.463 244.696L284.445 247.09H282.861V248.278H284.373V253.606C284.373 255.442 285.003 256.126 286.587 256.126ZM294.061 256.18C296.653 256.18 298.309 254.254 298.309 251.5C298.309 248.71 296.833 246.892 294.151 246.892C291.415 246.892 289.813 248.908 289.813 251.536C289.813 254.398 291.325 256.18 294.061 256.18ZM294.061 255.064C292.297 255.064 291.289 253.678 291.289 251.518C291.289 249.43 292.315 247.99 294.133 247.99C295.915 247.99 296.833 249.394 296.833 251.518C296.833 253.678 295.807 255.064 294.061 255.064ZM300.728 256H302.114V252.274C302.348 250.24 303.266 248.62 304.94 248.62C305.156 248.62 305.372 248.62 305.534 248.638V246.982H305.246C303.266 246.982 302.276 249.106 302.006 251.158H301.898L302.078 248.35V247.09H300.728V256ZM310.001 256.162C311.891 256.162 313.223 255.226 313.223 253.66C313.223 252.022 311.873 251.482 310.505 251.014C309.227 250.564 308.255 250.258 308.255 249.268C308.255 248.512 308.975 247.99 309.983 247.99C311.099 247.99 311.837 248.566 312.179 249.178L313.151 248.44C312.557 247.576 311.603 246.928 310.019 246.928C308.183 246.928 306.833 247.882 306.833 249.394C306.833 250.942 308.129 251.482 309.461 251.932C310.775 252.382 311.819 252.742 311.819 253.714C311.819 254.578 311.099 255.064 310.055 255.064C309.047 255.064 308.093 254.686 307.463 253.642L306.491 254.38C307.229 255.586 308.543 256.162 310.001 256.162Z" fill="black"/>
<path d="M5.076 329.216C7.506 329.216 9.252 327.83 9.252 325.796C9.252 323.654 7.488 322.934 5.49 322.304C3.546 321.71 2.718 321.26 2.718 319.964C2.718 318.92 3.636 318.146 5.22 318.146C6.642 318.146 7.632 318.74 7.956 320.054L9.198 319.532C8.712 317.822 7.308 316.94 5.22 316.94C2.88 316.94 1.278 318.236 1.278 320.054C1.26 322.07 2.628 322.862 4.68 323.492C6.552 324.05 7.776 324.5 7.776 325.922C7.776 327.182 6.75 328.01 5.112 328.01C3.726 328.01 2.484 327.326 2.106 325.796L0.792 326.3C1.332 328.226 2.898 329.216 5.076 329.216ZM15.2709 329.18C16.9449 329.18 18.0249 328.46 18.6729 327.524L17.7189 326.858C17.2869 327.542 16.4949 328.064 15.3429 328.064C13.7049 328.064 12.6429 327.02 12.5529 324.824H18.9609C18.9789 324.77 18.9789 324.248 18.9789 324.14C18.9969 321.71 17.8989 319.892 15.2349 319.892C12.7689 319.892 11.1309 321.602 11.1309 324.536C11.1129 327.434 12.6249 329.18 15.2709 329.18ZM12.5709 323.87C12.6969 321.8 13.8129 320.972 15.1809 320.972C16.8549 320.972 17.5389 322.034 17.5389 323.744V323.87H12.5709ZM24.0577 329.126C24.7057 329.126 25.4437 328.964 25.9477 328.784V327.686C25.4617 327.848 24.9757 327.938 24.4717 327.938C23.4457 327.938 23.1937 327.614 23.1937 326.336V322.016L23.1217 321.278H25.6777V320.09H23.1397L23.1937 319.406V317.12L21.9337 317.696L21.9157 320.09H20.3317V321.278H21.8437V326.606C21.8437 328.442 22.4737 329.126 24.0577 329.126ZM35.1333 329.18C36.8253 329.18 37.9233 328.424 38.4993 327.254L37.3833 326.678C37.0053 327.56 36.2673 328.046 35.1873 328.046C33.4953 328.046 32.4693 326.786 32.4693 324.464C32.4693 322.25 33.5313 321.008 35.2053 321.008C36.3393 321.008 37.0053 321.674 37.2933 322.538L38.5353 321.98C37.9593 320.54 36.8613 319.892 35.1873 319.892C32.5593 319.892 30.9933 321.854 30.9933 324.518C30.9933 327.38 32.5953 329.18 35.1333 329.18ZM40.6242 329H42.0102V325.274C42.2442 323.24 43.1622 321.62 44.8362 321.62C45.0522 321.62 45.2682 321.62 45.4302 321.638V319.982H45.1422C43.1622 319.982 42.1722 322.106 41.9022 324.158H41.7942L41.9742 321.35V320.09H40.6242V329ZM50.6381 329.18C52.3121 329.18 53.3921 328.46 54.0401 327.524L53.0861 326.858C52.6541 327.542 51.8621 328.064 50.7101 328.064C49.0721 328.064 48.0101 327.02 47.9201 324.824H54.3281C54.3461 324.77 54.3461 324.248 54.3461 324.14C54.3641 321.71 53.2661 319.892 50.6021 319.892C48.1361 319.892 46.4981 321.602 46.4981 324.536C46.4801 327.434 47.9921 329.18 50.6381 329.18ZM47.9381 323.87C48.0641 321.8 49.1801 320.972 50.5481 320.972C52.2221 320.972 52.9061 322.034 52.9061 323.744V323.87H47.9381ZM58.7932 329.162C60.2692 329.162 61.5112 328.28 61.9072 326.966C61.9432 328.172 62.0872 328.73 62.2852 329H63.7252C63.4732 328.694 63.2752 327.92 63.2752 326.048V323.06C63.2752 320.936 62.1772 319.928 60.0172 319.928C58.3252 319.928 56.8852 320.702 56.2732 321.854L57.3892 322.448C57.7852 321.656 58.7572 321.044 59.8912 321.044C61.2592 321.044 61.8712 321.674 61.8712 322.88V323.042C61.8532 323.492 61.0792 323.672 59.3152 324.032C57.4072 324.392 56.1472 325.112 56.1292 326.75C56.1292 328.118 57.0112 329.144 58.7932 329.162ZM59.1532 328.082C58.2712 328.082 57.5692 327.596 57.5692 326.624C57.5692 325.526 58.5052 325.004 60.1252 324.644C60.8812 324.482 61.6732 324.212 61.8712 323.888V325.634C61.7452 327.056 60.5752 328.082 59.1532 328.082ZM68.8468 329.126C69.4948 329.126 70.2328 328.964 70.7368 328.784V327.686C70.2508 327.848 69.7648 327.938 69.2608 327.938C68.2348 327.938 67.9828 327.614 67.9828 326.336V322.016L67.9108 321.278H70.4668V320.09H67.9288L67.9828 319.406V317.12L66.7228 317.696L66.7048 320.09H65.1208V321.278H66.6328V326.606C66.6328 328.442 67.2628 329.126 68.8468 329.126ZM76.3206 329.18C78.9126 329.18 80.5686 327.254 80.5686 324.5C80.5686 321.71 79.0926 319.892 76.4106 319.892C73.6746 319.892 72.0726 321.908 72.0726 324.536C72.0726 327.398 73.5846 329.18 76.3206 329.18ZM76.3206 328.064C74.5566 328.064 73.5486 326.678 73.5486 324.518C73.5486 322.43 74.5746 320.99 76.3926 320.99C78.1746 320.99 79.0926 322.394 79.0926 324.518C79.0926 326.678 78.0666 328.064 76.3206 328.064ZM82.9875 329H84.3735V325.274C84.6075 323.24 85.5255 321.62 87.1995 321.62C87.4155 321.62 87.6315 321.62 87.7935 321.638V319.982H87.5055C85.5255 319.982 84.5355 322.106 84.2655 324.158H84.1575L84.3375 321.35V320.09H82.9875V329ZM92.9543 329H94.3403V325.274C94.5743 323.24 95.4923 321.62 97.1663 321.62C97.3823 321.62 97.5983 321.62 97.7603 321.638V319.982H97.4723C95.4923 319.982 94.5023 322.106 94.2323 324.158H94.1243L94.3043 321.35V320.09H92.9543V329ZM103.004 329.18C105.596 329.18 107.252 327.254 107.252 324.5C107.252 321.71 105.776 319.892 103.094 319.892C100.358 319.892 98.7562 321.908 98.7562 324.536C98.7562 327.398 100.268 329.18 103.004 329.18ZM103.004 328.064C101.24 328.064 100.232 326.678 100.232 324.518C100.232 322.43 101.258 320.99 103.076 320.99C104.858 320.99 105.776 322.394 105.776 324.518C105.776 326.678 104.75 328.064 103.004 328.064ZM109.94 332.672C111.632 332.672 112.37 331.484 112.91 330.008L116.438 320.09H114.962L113.054 325.94L112.532 327.956H112.46L111.92 325.94L109.904 320.09H108.392L111.866 329.324C111.398 330.908 110.912 331.502 109.85 331.502C109.598 331.502 109.22 331.448 109.004 331.412V332.51C109.202 332.564 109.598 332.672 109.94 332.672ZM119.93 329.162C121.406 329.162 122.648 328.28 123.044 326.966C123.08 328.172 123.224 328.73 123.422 329H124.862C124.61 328.694 124.412 327.92 124.412 326.048V323.06C124.412 320.936 123.314 319.928 121.154 319.928C119.462 319.928 118.022 320.702 117.41 321.854L118.526 322.448C118.922 321.656 119.894 321.044 121.028 321.044C122.396 321.044 123.008 321.674 123.008 322.88V323.042C122.99 323.492 122.216 323.672 120.452 324.032C118.544 324.392 117.284 325.112 117.266 326.75C117.266 328.118 118.148 329.144 119.93 329.162ZM120.29 328.082C119.408 328.082 118.706 327.596 118.706 326.624C118.706 325.526 119.642 325.004 121.262 324.644C122.018 324.482 122.81 324.212 123.008 323.888V325.634C122.882 327.056 121.712 328.082 120.29 328.082ZM127.462 329H128.866V315.86H127.462V329ZM134.712 329.126C135.36 329.126 136.098 328.964 136.602 328.784V327.686C136.116 327.848 135.63 327.938 135.126 327.938C134.1 327.938 133.848 327.614 133.848 326.336V322.016L133.776 321.278H136.332V320.09H133.794L133.848 319.406V317.12L132.588 317.696L132.57 320.09H130.986V321.278H132.498V326.606C132.498 328.442 133.128 329.126 134.712 329.126ZM138.695 318.398H140.063C140.117 318.398 140.171 318.362 140.171 318.29V316.598C140.171 316.526 140.117 316.49 140.063 316.49H138.713C138.623 316.49 138.605 316.526 138.605 316.598V318.29C138.605 318.362 138.623 318.398 138.695 318.398ZM138.677 329H140.081V320.09H138.677V329ZM146.773 329.18C148.447 329.18 149.527 328.46 150.175 327.524L149.221 326.858C148.789 327.542 147.997 328.064 146.845 328.064C145.207 328.064 144.145 327.02 144.055 324.824H150.463C150.481 324.77 150.481 324.248 150.481 324.14C150.499 321.71 149.401 319.892 146.737 319.892C144.271 319.892 142.633 321.602 142.633 324.536C142.615 327.434 144.127 329.18 146.773 329.18ZM144.073 323.87C144.199 321.8 145.315 320.972 146.683 320.972C148.357 320.972 149.041 322.034 149.041 323.744V323.87H144.073ZM155.612 329.162C157.502 329.162 158.834 328.226 158.834 326.66C158.834 325.022 157.484 324.482 156.116 324.014C154.838 323.564 153.866 323.258 153.866 322.268C153.866 321.512 154.586 320.99 155.594 320.99C156.71 320.99 157.448 321.566 157.79 322.178L158.762 321.44C158.168 320.576 157.214 319.928 155.63 319.928C153.794 319.928 152.444 320.882 152.444 322.394C152.444 323.942 153.74 324.482 155.072 324.932C156.386 325.382 157.43 325.742 157.43 326.714C157.43 327.578 156.71 328.064 155.666 328.064C154.658 328.064 153.704 327.686 153.074 326.642L152.102 327.38C152.84 328.586 154.154 329.162 155.612 329.162ZM168.825 329.216C170.553 329.216 171.723 328.55 172.677 327.686L173.937 329H175.773L173.649 326.84C174.693 325.67 175.395 324.122 175.701 322.268H174.297C174.117 323.744 173.649 325.076 172.875 326.066L170.265 323.384C170.031 323.15 169.815 322.916 169.635 322.718C171.561 322.178 172.785 321.134 172.785 319.55C172.785 318.02 171.669 316.94 169.833 316.94C167.889 316.94 166.593 318.164 166.593 319.82C166.593 320.774 166.989 321.548 167.799 322.538C166.071 323.006 164.559 323.924 164.559 325.886C164.559 327.938 166.233 329.216 168.825 329.216ZM169.023 322.034C168.195 321.08 167.943 320.558 167.943 319.784C167.943 318.776 168.663 318.002 169.779 318.002C170.859 318.002 171.507 318.632 171.507 319.604C171.507 320.666 170.733 321.638 169.023 322.034ZM168.933 328.082C167.205 328.082 165.963 327.254 165.963 325.706C165.963 324.374 166.935 323.564 168.357 323.186L168.951 323.816L171.939 326.912C171.165 327.578 170.157 328.082 168.933 328.082ZM185.004 329.18C186.696 329.18 187.794 328.424 188.37 327.254L187.254 326.678C186.876 327.56 186.138 328.046 185.058 328.046C183.366 328.046 182.34 326.786 182.34 324.464C182.34 322.25 183.402 321.008 185.076 321.008C186.21 321.008 186.876 321.674 187.164 322.538L188.406 321.98C187.83 320.54 186.732 319.892 185.058 319.892C182.43 319.892 180.864 321.854 180.864 324.518C180.864 327.38 182.466 329.18 185.004 329.18ZM194.041 329.18C196.633 329.18 198.289 327.254 198.289 324.5C198.289 321.71 196.813 319.892 194.131 319.892C191.395 319.892 189.793 321.908 189.793 324.536C189.793 327.398 191.305 329.18 194.041 329.18ZM194.041 328.064C192.277 328.064 191.269 326.678 191.269 324.518C191.269 322.43 192.295 320.99 194.113 320.99C195.895 320.99 196.813 322.394 196.813 324.518C196.813 326.678 195.787 328.064 194.041 328.064ZM200.762 329H202.184V324.572C202.256 322.43 203.354 321.134 204.794 321.134C205.964 321.134 206.45 321.89 206.45 323.564V329H207.872V324.554C208.034 322.268 209.204 321.152 210.464 321.152C211.652 321.152 212.012 321.98 212.012 323.564V329H213.434V323.294C213.434 321.206 212.75 319.91 210.986 319.91C209.564 319.91 208.376 320.954 207.908 322.682H207.8C207.71 321.08 206.99 319.91 205.334 319.91C203.57 319.91 202.526 321.332 202.166 322.682H202.076C202.076 322.682 202.148 321.548 202.148 321.35V320.09H200.762V329ZM216.547 329H217.969V324.572C218.041 322.43 219.139 321.134 220.579 321.134C221.749 321.134 222.235 321.89 222.235 323.564V329H223.657V324.554C223.819 322.268 224.989 321.152 226.249 321.152C227.437 321.152 227.797 321.98 227.797 323.564V329H229.219V323.294C229.219 321.206 228.535 319.91 226.771 319.91C225.349 319.91 224.161 320.954 223.693 322.682H223.585C223.495 321.08 222.775 319.91 221.119 319.91C219.355 319.91 218.311 321.332 217.951 322.682H217.861C217.861 322.682 217.933 321.548 217.933 321.35V320.09H216.547V329ZM232.386 318.398H233.754C233.808 318.398 233.862 318.362 233.862 318.29V316.598C233.862 316.526 233.808 316.49 233.754 316.49H232.404C232.314 316.49 232.296 316.526 232.296 316.598V318.29C232.296 318.362 232.314 318.398 232.386 318.398ZM232.368 329H233.772V320.09H232.368V329ZM239.6 329.162C241.49 329.162 242.822 328.226 242.822 326.66C242.822 325.022 241.472 324.482 240.104 324.014C238.826 323.564 237.854 323.258 237.854 322.268C237.854 321.512 238.574 320.99 239.582 320.99C240.698 320.99 241.436 321.566 241.778 322.178L242.75 321.44C242.156 320.576 241.202 319.928 239.618 319.928C237.782 319.928 236.432 320.882 236.432 322.394C236.432 323.942 237.728 324.482 239.06 324.932C240.374 325.382 241.418 325.742 241.418 326.714C241.418 327.578 240.698 328.064 239.654 328.064C238.646 328.064 237.692 327.686 237.062 326.642L236.09 327.38C236.828 328.586 238.142 329.162 239.6 329.162ZM247.897 329.162C249.787 329.162 251.119 328.226 251.119 326.66C251.119 325.022 249.769 324.482 248.401 324.014C247.123 323.564 246.151 323.258 246.151 322.268C246.151 321.512 246.871 320.99 247.879 320.99C248.995 320.99 249.733 321.566 250.075 322.178L251.047 321.44C250.453 320.576 249.499 319.928 247.915 319.928C246.079 319.928 244.729 320.882 244.729 322.394C244.729 323.942 246.025 324.482 247.357 324.932C248.671 325.382 249.715 325.742 249.715 326.714C249.715 327.578 248.995 328.064 247.951 328.064C246.943 328.064 245.989 327.686 245.359 326.642L244.387 327.38C245.125 328.586 246.439 329.162 247.897 329.162ZM253.603 318.398H254.971C255.025 318.398 255.079 318.362 255.079 318.29V316.598C255.079 316.526 255.025 316.49 254.971 316.49H253.621C253.531 316.49 253.513 316.526 253.513 316.598V318.29C253.513 318.362 253.531 318.398 253.603 318.398ZM253.585 329H254.989V320.09H253.585V329ZM261.717 329.18C264.309 329.18 265.965 327.254 265.965 324.5C265.965 321.71 264.489 319.892 261.807 319.892C259.071 319.892 257.469 321.908 257.469 324.536C257.469 327.398 258.981 329.18 261.717 329.18ZM261.717 328.064C259.953 328.064 258.945 326.678 258.945 324.518C258.945 322.43 259.971 320.99 261.789 320.99C263.571 320.99 264.489 322.394 264.489 324.518C264.489 326.678 263.463 328.064 261.717 328.064ZM268.438 329H269.86V324.572C269.932 322.43 271.12 321.134 272.56 321.134C273.748 321.134 274.36 321.89 274.36 323.564V329H275.8V323.276C275.8 321.152 274.918 319.91 273.118 319.91C271.354 319.91 270.202 321.314 269.842 322.682H269.752C269.752 322.682 269.824 321.494 269.824 321.35V320.09H268.438V329ZM281.489 329.162C283.379 329.162 284.711 328.226 284.711 326.66C284.711 325.022 283.361 324.482 281.993 324.014C280.715 323.564 279.743 323.258 279.743 322.268C279.743 321.512 280.463 320.99 281.471 320.99C282.587 320.99 283.325 321.566 283.667 322.178L284.639 321.44C284.045 320.576 283.091 319.928 281.507 319.928C279.671 319.928 278.321 320.882 278.321 322.394C278.321 323.942 279.617 324.482 280.949 324.932C282.263 325.382 283.307 325.742 283.307 326.714C283.307 327.578 282.587 328.064 281.543 328.064C280.535 328.064 279.581 327.686 278.951 326.642L277.979 327.38C278.717 328.586 280.031 329.162 281.489 329.162Z" fill="black"/>
<path d="M1.836 402H5.328C9.036 402 11.142 399.822 11.142 396.06C11.142 392.226 9.144 390.174 5.544 390.174H1.836V402ZM3.258 400.776V391.362H5.508C8.244 391.362 9.612 392.946 9.612 396.006V396.078C9.612 399.12 8.118 400.776 5.472 400.776H3.258ZM13.8201 391.398H15.1881C15.2421 391.398 15.2961 391.362 15.2961 391.29V389.598C15.2961 389.526 15.2421 389.49 15.1881 389.49H13.8381C13.7481 389.49 13.7301 389.526 13.7301 389.598V391.29C13.7301 391.362 13.7481 391.398 13.8201 391.398ZM13.8021 402H15.2061V393.09H13.8021V402ZM21.3578 406.302H21.5378C24.3818 406.302 26.0738 405.096 26.0738 403.458C26.0738 401.982 24.9398 401.532 23.0498 401.316C22.5098 401.28 21.3938 401.172 20.9258 401.118C19.6478 400.974 19.4138 400.578 19.4138 400.11C19.4138 399.732 19.8278 399.336 20.6198 399.21C20.9258 399.282 21.2678 399.318 21.6278 399.318C23.9138 399.318 25.3178 398.004 25.3178 396.078C25.3178 395.628 25.2278 395.196 25.0478 394.8C25.3718 394.422 25.8938 394.332 26.3078 394.332C26.5058 394.332 26.6498 394.368 26.7218 394.404V393.036C26.6498 393 26.5238 392.982 26.3978 392.982C25.6058 392.982 24.9398 393.378 24.6878 394.188C24.0938 393.414 23.0678 392.91 21.7178 392.91C19.3778 392.91 18.0638 394.332 18.0638 396.15C18.0638 397.392 18.7118 398.454 19.8638 398.976C18.7838 399.246 18.2258 399.822 18.2258 400.542C18.2258 401.298 18.7838 401.91 19.7918 402.108C18.4058 402.36 17.5598 403.098 17.5598 404.07C17.5598 405.42 18.8198 406.302 21.3578 406.302ZM21.6998 398.328C20.1518 398.328 19.4498 397.374 19.4498 396.114C19.4498 394.926 20.1338 393.882 21.6998 393.882C23.2478 393.882 23.9678 394.854 23.9678 396.096C23.9678 397.374 23.2298 398.328 21.6998 398.328ZM21.5378 405.258C19.8098 405.258 18.8558 404.682 18.8558 403.728C18.8378 403.062 19.3958 402.504 20.4398 402.306C21.1058 402.342 22.0778 402.432 22.6358 402.504C23.8778 402.63 24.7778 402.756 24.7778 403.566C24.7778 404.448 23.9318 405.258 21.7358 405.258H21.5378ZM28.6736 391.398H30.0416C30.0956 391.398 30.1496 391.362 30.1496 391.29V389.598C30.1496 389.526 30.0956 389.49 30.0416 389.49H28.6916C28.6016 389.49 28.5836 389.526 28.5836 389.598V391.29C28.5836 391.362 28.6016 391.398 28.6736 391.398ZM28.6556 402H30.0596V393.09H28.6556V402ZM35.9054 402.126C36.5534 402.126 37.2914 401.964 37.7954 401.784V400.686C37.3094 400.848 36.8234 400.938 36.3194 400.938C35.2934 400.938 35.0414 400.614 35.0414 399.336V395.016L34.9694 394.278H37.5254V393.09H34.9874L35.0414 392.406V390.12L33.7814 390.696L33.7634 393.09H32.1794V394.278H33.6914V399.606C33.6914 401.442 34.3214 402.126 35.9054 402.126ZM41.7424 402.162C43.2184 402.162 44.4604 401.28 44.8564 399.966C44.8924 401.172 45.0364 401.73 45.2344 402H46.6744C46.4224 401.694 46.2244 400.92 46.2244 399.048V396.06C46.2244 393.936 45.1264 392.928 42.9664 392.928C41.2744 392.928 39.8344 393.702 39.2224 394.854L40.3384 395.448C40.7344 394.656 41.7064 394.044 42.8404 394.044C44.2084 394.044 44.8204 394.674 44.8204 395.88V396.042C44.8024 396.492 44.0284 396.672 42.2644 397.032C40.3564 397.392 39.0964 398.112 39.0784 399.75C39.0784 401.118 39.9604 402.144 41.7424 402.162ZM42.1024 401.082C41.2204 401.082 40.5184 400.596 40.5184 399.624C40.5184 398.526 41.4544 398.004 43.0744 397.644C43.8304 397.482 44.6224 397.212 44.8204 396.888V398.634C44.6944 400.056 43.5244 401.082 42.1024 401.082ZM49.2743 402H50.6783V388.86H49.2743V402ZM61.1151 402.216C63.5451 402.216 65.2911 400.83 65.2911 398.796C65.2911 396.654 63.5271 395.934 61.5291 395.304C59.5851 394.71 58.7571 394.26 58.7571 392.964C58.7571 391.92 59.6751 391.146 61.2591 391.146C62.6811 391.146 63.6711 391.74 63.9951 393.054L65.2371 392.532C64.7511 390.822 63.3471 389.94 61.2591 389.94C58.9191 389.94 57.3171 391.236 57.3171 393.054C57.2991 395.07 58.6671 395.862 60.7191 396.492C62.5911 397.05 63.8151 397.5 63.8151 398.922C63.8151 400.182 62.7891 401.01 61.1511 401.01C59.7651 401.01 58.5231 400.326 58.1451 398.796L56.8311 399.3C57.3711 401.226 58.9371 402.216 61.1151 402.216ZM67.908 391.398H69.276C69.33 391.398 69.384 391.362 69.384 391.29V389.598C69.384 389.526 69.33 389.49 69.276 389.49H67.926C67.836 389.49 67.818 389.526 67.818 389.598V391.29C67.818 391.362 67.836 391.398 67.908 391.398ZM67.89 402H69.294V393.09H67.89V402ZM75.4457 406.302H75.6257C78.4697 406.302 80.1617 405.096 80.1617 403.458C80.1617 401.982 79.0277 401.532 77.1377 401.316C76.5977 401.28 75.4817 401.172 75.0137 401.118C73.7357 400.974 73.5017 400.578 73.5017 400.11C73.5017 399.732 73.9157 399.336 74.7077 399.21C75.0137 399.282 75.3557 399.318 75.7157 399.318C78.0017 399.318 79.4057 398.004 79.4057 396.078C79.4057 395.628 79.3157 395.196 79.1357 394.8C79.4597 394.422 79.9817 394.332 80.3957 394.332C80.5937 394.332 80.7377 394.368 80.8097 394.404V393.036C80.7377 393 80.6117 392.982 80.4857 392.982C79.6937 392.982 79.0277 393.378 78.7757 394.188C78.1817 393.414 77.1557 392.91 75.8057 392.91C73.4657 392.91 72.1517 394.332 72.1517 396.15C72.1517 397.392 72.7997 398.454 73.9517 398.976C72.8717 399.246 72.3137 399.822 72.3137 400.542C72.3137 401.298 72.8717 401.91 73.8797 402.108C72.4937 402.36 71.6477 403.098 71.6477 404.07C71.6477 405.42 72.9077 406.302 75.4457 406.302ZM75.7877 398.328C74.2397 398.328 73.5377 397.374 73.5377 396.114C73.5377 394.926 74.2217 393.882 75.7877 393.882C77.3357 393.882 78.0557 394.854 78.0557 396.096C78.0557 397.374 77.3177 398.328 75.7877 398.328ZM75.6257 405.258C73.8977 405.258 72.9437 404.682 72.9437 403.728C72.9257 403.062 73.4837 402.504 74.5277 402.306C75.1937 402.342 76.1657 402.432 76.7237 402.504C77.9657 402.63 78.8657 402.756 78.8657 403.566C78.8657 404.448 78.0197 405.258 75.8237 405.258H75.6257ZM82.6196 402H84.0416V397.572C84.1136 395.43 85.3016 394.134 86.7416 394.134C87.9296 394.134 88.5416 394.89 88.5416 396.564V402H89.9816V396.276C89.9816 394.152 89.0996 392.91 87.2996 392.91C85.5356 392.91 84.3836 394.314 84.0236 395.682H83.9336C83.9336 395.682 84.0056 394.494 84.0056 394.35V393.09H82.6196V402ZM94.8987 402.162C96.3747 402.162 97.6167 401.28 98.0127 399.966C98.0487 401.172 98.1927 401.73 98.3907 402H99.8307C99.5787 401.694 99.3807 400.92 99.3807 399.048V396.06C99.3807 393.936 98.2827 392.928 96.1227 392.928C94.4307 392.928 92.9907 393.702 92.3787 394.854L93.4947 395.448C93.8907 394.656 94.8627 394.044 95.9967 394.044C97.3647 394.044 97.9767 394.674 97.9767 395.88V396.042C97.9587 396.492 97.1847 396.672 95.4207 397.032C93.5127 397.392 92.2527 398.112 92.2347 399.75C92.2347 401.118 93.1167 402.144 94.8987 402.162ZM95.2587 401.082C94.3767 401.082 93.6747 400.596 93.6747 399.624C93.6747 398.526 94.6107 398.004 96.2307 397.644C96.9867 397.482 97.7787 397.212 97.9767 396.888V398.634C97.8507 400.056 96.6807 401.082 95.2587 401.082ZM104.952 402.126C105.6 402.126 106.338 401.964 106.842 401.784V400.686C106.356 400.848 105.87 400.938 105.366 400.938C104.34 400.938 104.088 400.614 104.088 399.336V395.016L104.016 394.278H106.572V393.09H104.034L104.088 392.406V390.12L102.828 390.696L102.81 393.09H101.226V394.278H102.738V399.606C102.738 401.442 103.368 402.126 104.952 402.126ZM111.455 402.162C113.309 402.162 114.245 400.434 114.389 399.48H114.479L114.425 401.028V402H115.775V393.09H114.335V397.716C114.227 399.642 113.219 400.938 111.869 400.938C110.645 400.938 110.141 400.236 110.141 398.58V393.09H108.701V398.76C108.701 400.92 109.529 402.144 111.455 402.162ZM118.864 402H120.25V398.274C120.484 396.24 121.402 394.62 123.076 394.62C123.292 394.62 123.508 394.62 123.67 394.638V392.982H123.382C121.402 392.982 120.412 395.106 120.142 397.158H120.034L120.214 394.35V393.09H118.864V402ZM128.878 402.18C130.552 402.18 131.632 401.46 132.28 400.524L131.326 399.858C130.894 400.542 130.102 401.064 128.95 401.064C127.312 401.064 126.25 400.02 126.16 397.824H132.568C132.586 397.77 132.586 397.248 132.586 397.14C132.604 394.71 131.506 392.892 128.842 392.892C126.376 392.892 124.738 394.602 124.738 397.536C124.72 400.434 126.232 402.18 128.878 402.18ZM126.178 396.87C126.304 394.8 127.42 393.972 128.788 393.972C130.462 393.972 131.146 395.034 131.146 396.744V396.87H126.178ZM134.945 396.258H136.349C136.421 396.258 136.457 396.222 136.457 396.132V394.008C136.457 393.936 136.421 393.9 136.349 393.9H134.963C134.891 393.9 134.855 393.936 134.855 394.008V396.132C134.855 396.222 134.891 396.258 134.945 396.258ZM134.945 402H136.349C136.421 402 136.457 401.964 136.457 401.892V399.75C136.457 399.696 136.421 399.642 136.349 399.642H134.963C134.891 399.642 134.855 399.696 134.855 399.75V401.892C134.855 401.964 134.891 402 134.945 402ZM146.579 402.18C148.253 402.18 149.333 401.46 149.981 400.524L149.027 399.858C148.595 400.542 147.803 401.064 146.651 401.064C145.013 401.064 143.951 400.02 143.861 397.824H150.269C150.287 397.77 150.287 397.248 150.287 397.14C150.305 394.71 149.207 392.892 146.543 392.892C144.077 392.892 142.439 394.602 142.439 397.536C142.421 400.434 143.933 402.18 146.579 402.18ZM143.879 396.87C144.005 394.8 145.121 393.972 146.489 393.972C148.163 393.972 148.847 395.034 148.847 396.744V396.87H143.879ZM152.827 402H154.249V397.572C154.321 395.43 155.509 394.134 156.949 394.134C158.137 394.134 158.749 394.89 158.749 396.564V402H160.189V396.276C160.189 394.152 159.307 392.91 157.507 392.91C155.743 392.91 154.591 394.314 154.231 395.682H154.141C154.141 395.682 154.213 394.494 154.213 394.35V393.09H152.827V402ZM166.706 402.18C168.398 402.18 169.496 401.424 170.072 400.254L168.956 399.678C168.578 400.56 167.84 401.046 166.76 401.046C165.068 401.046 164.042 399.786 164.042 397.464C164.042 395.25 165.104 394.008 166.778 394.008C167.912 394.008 168.578 394.674 168.866 395.538L170.108 394.98C169.532 393.54 168.434 392.892 166.76 392.892C164.132 392.892 162.566 394.854 162.566 397.518C162.566 400.38 164.168 402.18 166.706 402.18ZM172.196 402H173.582V398.274C173.816 396.24 174.734 394.62 176.408 394.62C176.624 394.62 176.84 394.62 177.002 394.638V392.982H176.714C174.734 392.982 173.744 395.106 173.474 397.158H173.366L173.546 394.35V393.09H172.196V402ZM179.409 405.672C181.101 405.672 181.839 404.484 182.379 403.008L185.907 393.09H184.431L182.523 398.94L182.001 400.956H181.929L181.389 398.94L179.373 393.09H177.861L181.335 402.324C180.867 403.908 180.381 404.502 179.319 404.502C179.067 404.502 178.689 404.448 178.473 404.412V405.51C178.671 405.564 179.067 405.672 179.409 405.672ZM187.684 405.87H189.07V402.036L188.872 399.804H188.962C189.466 401.208 190.636 402.144 192.148 402.144C194.236 402.144 195.784 400.38 195.784 397.356C195.784 394.584 194.596 392.892 192.238 392.892C190.69 392.892 189.538 393.9 189.088 395.124H188.998L189.052 393.936V393.09H187.684V405.87ZM191.752 401.028C190.078 401.028 188.998 399.786 188.998 397.842V397.374C188.998 395.772 190.078 393.99 191.788 393.99C193.516 393.99 194.308 395.25 194.308 397.446C194.308 399.588 193.3 401.028 191.752 401.028ZM200.823 402.126C201.471 402.126 202.209 401.964 202.713 401.784V400.686C202.227 400.848 201.741 400.938 201.237 400.938C200.211 400.938 199.959 400.614 199.959 399.336V395.016L199.887 394.278H202.443V393.09H199.905L199.959 392.406V390.12L198.699 390.696L198.681 393.09H197.097V394.278H198.609V399.606C198.609 401.442 199.239 402.126 200.823 402.126ZM208.261 402.18C209.935 402.18 211.015 401.46 211.663 400.524L210.709 399.858C210.277 400.542 209.485 401.064 208.333 401.064C206.695 401.064 205.633 400.02 205.543 397.824H211.951C211.969 397.77 211.969 397.248 211.969 397.14C211.987 394.71 210.889 392.892 208.225 392.892C205.759 392.892 204.121 394.602 204.121 397.536C204.103 400.434 205.615 402.18 208.261 402.18ZM205.561 396.87C205.687 394.8 206.803 393.972 208.171 393.972C209.845 393.972 210.529 395.034 210.529 396.744V396.87H205.561ZM217.406 402.144C219.08 402.144 220.322 400.956 220.646 399.318L220.592 400.074L220.574 402H221.906V388.86H220.52V393.54L220.628 395.07H220.538C220.124 393.882 219.098 392.892 217.496 392.892C215.228 392.892 213.788 394.548 213.788 397.482C213.788 400.326 215.21 402.144 217.406 402.144ZM217.784 401.028C216.182 401.028 215.282 399.642 215.282 397.41C215.282 395.304 216.182 393.99 217.856 393.99C219.674 393.99 220.556 395.502 220.556 397.23V397.716C220.556 399.516 219.404 401.028 217.784 401.028ZM230.725 402.162C232.201 402.162 233.443 401.28 233.839 399.966C233.875 401.172 234.019 401.73 234.217 402H235.657C235.405 401.694 235.207 400.92 235.207 399.048V396.06C235.207 393.936 234.109 392.928 231.949 392.928C230.257 392.928 228.817 393.702 228.205 394.854L229.321 395.448C229.717 394.656 230.689 394.044 231.823 394.044C233.191 394.044 233.803 394.674 233.803 395.88V396.042C233.785 396.492 233.011 396.672 231.247 397.032C229.339 397.392 228.079 398.112 228.061 399.75C228.061 401.118 228.943 402.144 230.725 402.162ZM231.085 401.082C230.203 401.082 229.501 400.596 229.501 399.624C229.501 398.526 230.437 398.004 232.057 397.644C232.813 397.482 233.605 397.212 233.803 396.888V398.634C233.677 400.056 232.507 401.082 231.085 401.082ZM240.813 402.162C242.667 402.162 243.603 400.434 243.747 399.48H243.837L243.783 401.028V402H245.133V393.09H243.693V397.716C243.585 399.642 242.577 400.938 241.227 400.938C240.003 400.938 239.499 400.236 239.499 398.58V393.09H238.059V398.76C238.059 400.92 238.887 402.144 240.813 402.162ZM250.886 402.126C251.534 402.126 252.272 401.964 252.776 401.784V400.686C252.29 400.848 251.804 400.938 251.3 400.938C250.274 400.938 250.022 400.614 250.022 399.336V395.016L249.95 394.278H252.506V393.09H249.968L250.022 392.406V390.12L248.762 390.696L248.744 393.09H247.16V394.278H248.672V399.606C248.672 401.442 249.302 402.126 250.886 402.126ZM254.797 402H256.183V397.68C256.255 395.484 257.461 394.134 258.883 394.134C260.089 394.134 260.701 394.89 260.701 396.564V402H262.141V396.204C262.141 394.08 261.277 392.91 259.441 392.91C257.695 392.91 256.543 394.242 256.183 395.61H256.093C256.093 395.61 256.183 394.404 256.183 394.26V388.86H254.797V402ZM268.731 402.18C271.323 402.18 272.979 400.254 272.979 397.5C272.979 394.71 271.503 392.892 268.821 392.892C266.085 392.892 264.483 394.908 264.483 397.536C264.483 400.398 265.995 402.18 268.731 402.18ZM268.731 401.064C266.967 401.064 265.959 399.678 265.959 397.518C265.959 395.43 266.985 393.99 268.803 393.99C270.585 393.99 271.503 395.394 271.503 397.518C271.503 399.678 270.477 401.064 268.731 401.064ZM275.398 402H276.784V398.274C277.018 396.24 277.936 394.62 279.61 394.62C279.826 394.62 280.042 394.62 280.204 394.638V392.982H279.916C277.936 392.982 276.946 395.106 276.676 397.158H276.568L276.748 394.35V393.09H275.398V402ZM289.864 402.144C291.952 402.144 293.5 400.38 293.5 397.356C293.5 394.584 292.312 392.892 289.972 392.892C288.424 392.892 287.254 393.9 286.822 395.124H286.714L286.786 393.504V388.86H285.4V402H286.696L286.678 399.75C287.128 401.172 288.334 402.144 289.864 402.144ZM289.468 401.028C287.794 401.028 286.714 399.786 286.714 397.842V397.374C286.714 395.772 287.794 393.99 289.504 393.99C291.232 393.99 292.024 395.268 292.024 397.464C292.024 399.588 291.016 401.028 289.468 401.028ZM296.128 405.672C297.82 405.672 298.558 404.484 299.098 403.008L302.626 393.09H301.15L299.242 398.94L298.72 400.956H298.648L298.108 398.94L296.092 393.09H294.58L298.054 402.324C297.586 403.908 297.1 404.502 296.038 404.502C295.786 404.502 295.408 404.448 295.192 404.412V405.51C295.39 405.564 295.786 405.672 296.128 405.672ZM304.438 402H305.842V388.86H304.438V402ZM309.133 391.398H310.501C310.555 391.398 310.609 391.362 310.609 391.29V389.598C310.609 389.526 310.555 389.49 310.501 389.49H309.151C309.061 389.49 309.043 389.526 309.043 389.598V391.29C309.043 391.362 309.061 391.398 309.133 391.398ZM309.115 402H310.519V393.09H309.115V402ZM313.754 402H315.176V397.572C315.248 395.43 316.436 394.134 317.876 394.134C319.064 394.134 319.676 394.89 319.676 396.564V402H321.116V396.276C321.116 394.152 320.234 392.91 318.434 392.91C316.67 392.91 315.518 394.314 315.158 395.682H315.068C315.068 395.682 315.14 394.494 315.14 394.35V393.09H313.754V402ZM327.669 402.18C329.343 402.18 330.423 401.46 331.071 400.524L330.117 399.858C329.685 400.542 328.893 401.064 327.741 401.064C326.103 401.064 325.041 400.02 324.951 397.824H331.359C331.377 397.77 331.377 397.248 331.377 397.14C331.395 394.71 330.297 392.892 327.633 392.892C325.167 392.892 323.529 394.602 323.529 397.536C323.511 400.434 325.023 402.18 327.669 402.18ZM324.969 396.87C325.095 394.8 326.211 393.972 327.579 393.972C329.253 393.972 329.937 395.034 329.937 396.744V396.87H324.969ZM336.508 402.162C338.398 402.162 339.73 401.226 339.73 399.66C339.73 398.022 338.38 397.482 337.012 397.014C335.734 396.564 334.762 396.258 334.762 395.268C334.762 394.512 335.482 393.99 336.49 393.99C337.606 393.99 338.344 394.566 338.686 395.178L339.658 394.44C339.064 393.576 338.11 392.928 336.526 392.928C334.69 392.928 333.34 393.882 333.34 395.394C333.34 396.942 334.636 397.482 335.968 397.932C337.282 398.382 338.326 398.742 338.326 399.714C338.326 400.578 337.606 401.064 336.562 401.064C335.554 401.064 334.6 400.686 333.97 399.642L332.998 400.38C333.736 401.586 335.05 402.162 336.508 402.162Z" fill="black"/>
<path d="M4.014 475H5.472V464.452H9V463.174H0.468V464.452H4.014V475ZM13.8831 475.18C16.4751 475.18 18.1311 473.254 18.1311 470.5C18.1311 467.71 16.6551 465.892 13.9731 465.892C11.2371 465.892 9.63506 467.908 9.63506 470.536C9.63506 473.398 11.1471 475.18 13.8831 475.18ZM13.8831 474.064C12.1191 474.064 11.1111 472.678 11.1111 470.518C11.1111 468.43 12.1371 466.99 13.9551 466.99C15.7371 466.99 16.6551 468.394 16.6551 470.518C16.6551 472.678 15.6291 474.064 13.8831 474.064ZM20.586 475H21.954V473.506L21.918 472.822L23.916 470.5L26.562 475H28.164L24.906 469.654L27.912 466.09H26.148L21.882 471.382L21.972 469.744V461.86H20.586V475ZM33.4467 475.18C35.1207 475.18 36.2007 474.46 36.8487 473.524L35.8947 472.858C35.4627 473.542 34.6707 474.064 33.5187 474.064C31.8807 474.064 30.8187 473.02 30.7287 470.824H37.1367C37.1547 470.77 37.1547 470.248 37.1547 470.14C37.1727 467.71 36.0747 465.892 33.4107 465.892C30.9447 465.892 29.3067 467.602 29.3067 470.536C29.2887 473.434 30.8007 475.18 33.4467 475.18ZM30.7467 469.87C30.8727 467.8 31.9887 466.972 33.3567 466.972C35.0307 466.972 35.7147 468.034 35.7147 469.744V469.87H30.7467ZM39.6938 475H41.1158V470.572C41.1878 468.43 42.3758 467.134 43.8158 467.134C45.0038 467.134 45.6158 467.89 45.6158 469.564V475H47.0558V469.276C47.0558 467.152 46.1738 465.91 44.3738 465.91C42.6098 465.91 41.4578 467.314 41.0978 468.682H41.0078C41.0078 468.682 41.0798 467.494 41.0798 467.35V466.09H39.6938V475ZM56.7953 479.302H56.9753C59.8193 479.302 61.5113 478.096 61.5113 476.458C61.5113 474.982 60.3773 474.532 58.4873 474.316C57.9473 474.28 56.8313 474.172 56.3633 474.118C55.0853 473.974 54.8513 473.578 54.8513 473.11C54.8513 472.732 55.2653 472.336 56.0573 472.21C56.3633 472.282 56.7053 472.318 57.0653 472.318C59.3513 472.318 60.7553 471.004 60.7553 469.078C60.7553 468.628 60.6653 468.196 60.4853 467.8C60.8093 467.422 61.3313 467.332 61.7453 467.332C61.9433 467.332 62.0873 467.368 62.1593 467.404V466.036C62.0873 466 61.9613 465.982 61.8353 465.982C61.0433 465.982 60.3773 466.378 60.1253 467.188C59.5313 466.414 58.5053 465.91 57.1553 465.91C54.8153 465.91 53.5013 467.332 53.5013 469.15C53.5013 470.392 54.1493 471.454 55.3013 471.976C54.2213 472.246 53.6633 472.822 53.6633 473.542C53.6633 474.298 54.2213 474.91 55.2293 475.108C53.8433 475.36 52.9973 476.098 52.9973 477.07C52.9973 478.42 54.2573 479.302 56.7953 479.302ZM57.1373 471.328C55.5893 471.328 54.8873 470.374 54.8873 469.114C54.8873 467.926 55.5713 466.882 57.1373 466.882C58.6853 466.882 59.4053 467.854 59.4053 469.096C59.4053 470.374 58.6673 471.328 57.1373 471.328ZM56.9753 478.258C55.2473 478.258 54.2933 477.682 54.2933 476.728C54.2753 476.062 54.8333 475.504 55.8773 475.306C56.5433 475.342 57.5153 475.432 58.0733 475.504C59.3153 475.63 60.2153 475.756 60.2153 476.566C60.2153 477.448 59.3693 478.258 57.1733 478.258H56.9753ZM65.8069 475.162C67.2829 475.162 68.5249 474.28 68.9209 472.966C68.9569 474.172 69.1009 474.73 69.2989 475H70.7389C70.4869 474.694 70.2889 473.92 70.2889 472.048V469.06C70.2889 466.936 69.1909 465.928 67.0309 465.928C65.3389 465.928 63.8989 466.702 63.2869 467.854L64.4029 468.448C64.7989 467.656 65.7709 467.044 66.9049 467.044C68.2729 467.044 68.8849 467.674 68.8849 468.88V469.042C68.8669 469.492 68.0929 469.672 66.3289 470.032C64.4209 470.392 63.1609 471.112 63.1429 472.75C63.1429 474.118 64.0249 475.144 65.8069 475.162ZM66.1669 474.082C65.2849 474.082 64.5829 473.596 64.5829 472.624C64.5829 471.526 65.5189 471.004 67.1389 470.644C67.8949 470.482 68.6869 470.212 68.8849 469.888V471.634C68.7589 473.056 67.5889 474.082 66.1669 474.082ZM75.8604 475.126C76.5084 475.126 77.2464 474.964 77.7504 474.784V473.686C77.2644 473.848 76.7784 473.938 76.2744 473.938C75.2484 473.938 74.9964 473.614 74.9964 472.336V468.016L74.9244 467.278H77.4804V466.09H74.9424L74.9964 465.406V463.12L73.7364 463.696L73.7184 466.09H72.1344V467.278H73.6464V472.606C73.6464 474.442 74.2764 475.126 75.8604 475.126ZM83.2982 475.18C84.9722 475.18 86.0522 474.46 86.7002 473.524L85.7462 472.858C85.3142 473.542 84.5222 474.064 83.3702 474.064C81.7322 474.064 80.6702 473.02 80.5802 470.824H86.9882C87.0062 470.77 87.0062 470.248 87.0062 470.14C87.0242 467.71 85.9262 465.892 83.2622 465.892C80.7962 465.892 79.1582 467.602 79.1582 470.536C79.1402 473.434 80.6522 475.18 83.2982 475.18ZM80.5982 469.87C80.7242 467.8 81.8402 466.972 83.2082 466.972C84.8822 466.972 85.5662 468.034 85.5662 469.744V469.87H80.5982ZM95.8639 475.162C97.7539 475.162 99.0859 474.226 99.0859 472.66C99.0859 471.022 97.7359 470.482 96.3679 470.014C95.0899 469.564 94.1179 469.258 94.1179 468.268C94.1179 467.512 94.8379 466.99 95.8459 466.99C96.9619 466.99 97.6999 467.566 98.0419 468.178L99.0139 467.44C98.4199 466.576 97.4659 465.928 95.8819 465.928C94.0459 465.928 92.6959 466.882 92.6959 468.394C92.6959 469.942 93.9919 470.482 95.3239 470.932C96.6379 471.382 97.6819 471.742 97.6819 472.714C97.6819 473.578 96.9619 474.064 95.9179 474.064C94.9099 474.064 93.9559 473.686 93.3259 472.642L92.3539 473.38C93.0919 474.586 94.4059 475.162 95.8639 475.162ZM101.498 478.87H102.884V475.036L102.686 472.804H102.776C103.28 474.208 104.45 475.144 105.962 475.144C108.05 475.144 109.598 473.38 109.598 470.356C109.598 467.584 108.41 465.892 106.052 465.892C104.504 465.892 103.352 466.9 102.902 468.124H102.812L102.866 466.936V466.09H101.498V478.87ZM105.566 474.028C103.892 474.028 102.812 472.786 102.812 470.842V470.374C102.812 468.772 103.892 466.99 105.602 466.99C107.33 466.99 108.122 468.25 108.122 470.446C108.122 472.588 107.114 474.028 105.566 474.028ZM115.554 475.18C117.228 475.18 118.308 474.46 118.956 473.524L118.002 472.858C117.57 473.542 116.778 474.064 115.626 474.064C113.988 474.064 112.926 473.02 112.836 470.824H119.244C119.262 470.77 119.262 470.248 119.262 470.14C119.28 467.71 118.182 465.892 115.518 465.892C113.052 465.892 111.414 467.602 111.414 470.536C111.396 473.434 112.908 475.18 115.554 475.18ZM112.854 469.87C112.98 467.8 114.096 466.972 115.464 466.972C117.138 466.972 117.822 468.034 117.822 469.744V469.87H112.854ZM125.221 475.18C126.913 475.18 128.011 474.424 128.587 473.254L127.471 472.678C127.093 473.56 126.355 474.046 125.275 474.046C123.583 474.046 122.557 472.786 122.557 470.464C122.557 468.25 123.619 467.008 125.293 467.008C126.427 467.008 127.093 467.674 127.381 468.538L128.623 467.98C128.047 466.54 126.949 465.892 125.275 465.892C122.647 465.892 121.081 467.854 121.081 470.518C121.081 473.38 122.683 475.18 125.221 475.18ZM130.82 464.398H132.188C132.242 464.398 132.296 464.362 132.296 464.29V462.598C132.296 462.526 132.242 462.49 132.188 462.49H130.838C130.748 462.49 130.73 462.526 130.73 462.598V464.29C130.73 464.362 130.748 464.398 130.82 464.398ZM130.802 475H132.206V466.09H130.802V475ZM135.946 475H137.314V468.142L137.26 467.278H139.51V466.09H137.26L137.314 465.334V464.56C137.314 463.228 137.764 462.706 138.898 462.706C139.312 462.706 139.744 462.76 140.104 462.868V461.77C139.726 461.662 139.276 461.572 138.664 461.572C136.828 461.572 135.946 462.616 135.946 464.452V466.09H134.452V467.278H135.946V475ZM141.472 464.398H142.84C142.894 464.398 142.948 464.362 142.948 464.29V462.598C142.948 462.526 142.894 462.49 142.84 462.49H141.49C141.4 462.49 141.382 462.526 141.382 462.598V464.29C141.382 464.362 141.4 464.398 141.472 464.398ZM141.454 475H142.858V466.09H141.454V475ZM149.55 475.18C151.224 475.18 152.304 474.46 152.952 473.524L151.998 472.858C151.566 473.542 150.774 474.064 149.622 474.064C147.984 474.064 146.922 473.02 146.832 470.824H153.24C153.258 470.77 153.258 470.248 153.258 470.14C153.276 467.71 152.178 465.892 149.514 465.892C147.048 465.892 145.41 467.602 145.41 470.536C145.392 473.434 146.904 475.18 149.55 475.18ZM146.85 469.87C146.976 467.8 148.092 466.972 149.46 466.972C151.134 466.972 151.818 468.034 151.818 469.744V469.87H146.85ZM158.695 475.144C160.369 475.144 161.611 473.956 161.935 472.318L161.881 473.074L161.863 475H163.195V461.86H161.809V466.54L161.917 468.07H161.827C161.413 466.882 160.387 465.892 158.785 465.892C156.517 465.892 155.077 467.548 155.077 470.482C155.077 473.326 156.499 475.144 158.695 475.144ZM159.073 474.028C157.471 474.028 156.571 472.642 156.571 470.41C156.571 468.304 157.471 466.99 159.145 466.99C160.963 466.99 161.845 468.502 161.845 470.23V470.716C161.845 472.516 160.693 474.028 159.073 474.028ZM173.526 475.18C175.218 475.18 176.316 474.424 176.892 473.254L175.776 472.678C175.398 473.56 174.66 474.046 173.58 474.046C171.888 474.046 170.862 472.786 170.862 470.464C170.862 468.25 171.924 467.008 173.598 467.008C174.732 467.008 175.398 467.674 175.686 468.538L176.928 467.98C176.352 466.54 175.254 465.892 173.58 465.892C170.952 465.892 169.386 467.854 169.386 470.518C169.386 473.38 170.988 475.18 173.526 475.18ZM182.563 475.18C185.155 475.18 186.811 473.254 186.811 470.5C186.811 467.71 185.335 465.892 182.653 465.892C179.917 465.892 178.315 467.908 178.315 470.536C178.315 473.398 179.827 475.18 182.563 475.18ZM182.563 474.064C180.799 474.064 179.791 472.678 179.791 470.518C179.791 468.43 180.817 466.99 182.635 466.99C184.417 466.99 185.335 468.394 185.335 470.518C185.335 472.678 184.309 474.064 182.563 474.064ZM189.284 475H190.706V470.572C190.778 468.43 191.966 467.134 193.406 467.134C194.594 467.134 195.206 467.89 195.206 469.564V475H196.646V469.276C196.646 467.152 195.764 465.91 193.964 465.91C192.2 465.91 191.048 467.314 190.688 468.682H190.598C190.598 468.682 190.67 467.494 190.67 467.35V466.09H189.284V475ZM202.265 475.126C202.913 475.126 203.651 474.964 204.155 474.784V473.686C203.669 473.848 203.183 473.938 202.679 473.938C201.653 473.938 201.401 473.614 201.401 472.336V468.016L201.329 467.278H203.885V466.09H201.347L201.401 465.406V463.12L200.141 463.696L200.123 466.09H198.539V467.278H200.051V472.606C200.051 474.442 200.681 475.126 202.265 475.126ZM209.703 475.18C211.377 475.18 212.457 474.46 213.105 473.524L212.151 472.858C211.719 473.542 210.927 474.064 209.775 474.064C208.137 474.064 207.075 473.02 206.985 470.824H213.393C213.411 470.77 213.411 470.248 213.411 470.14C213.429 467.71 212.331 465.892 209.667 465.892C207.201 465.892 205.563 467.602 205.563 470.536C205.545 473.434 207.057 475.18 209.703 475.18ZM207.003 469.87C207.129 467.8 208.245 466.972 209.613 466.972C211.287 466.972 211.971 468.034 211.971 469.744V469.87H207.003ZM215.95 475H217.372V470.572C217.444 468.43 218.632 467.134 220.072 467.134C221.26 467.134 221.872 467.89 221.872 469.564V475H223.312V469.276C223.312 467.152 222.43 465.91 220.63 465.91C218.866 465.91 217.714 467.314 217.354 468.682H217.264C217.264 468.682 217.336 467.494 217.336 467.35V466.09H215.95V475ZM228.931 475.126C229.579 475.126 230.317 474.964 230.821 474.784V473.686C230.335 473.848 229.849 473.938 229.345 473.938C228.319 473.938 228.067 473.614 228.067 472.336V468.016L227.995 467.278H230.551V466.09H228.013L228.067 465.406V463.12L226.807 463.696L226.789 466.09H225.205V467.278H226.717V472.606C226.717 474.442 227.347 475.126 228.931 475.126Z" fill="black"/>
</svg>
